SplineFontDB: 3.0
FontName: ume-stroke-stroke-expended-int-100-ext-100
FullName: ume-stroke-stroke-expended-int-100-ext-100
FamilyName: ume-stroke-stroke-expended-int-100-ext-100
Weight: Book
Copyright: OSP
Version: Look update time of this file.
ItalicAngle: 0
UnderlinePosition: -180
UnderlineWidth: 24
Ascent: 1760
Descent: 288
InvalidEm: 0
sfntRevision: 0x00000000
LayerCount: 2
Layer: 0 0 "Arri+AOgA-re" 1
Layer: 1 0 "Avant" 0
XUID: [1021 622 -412722398 13827803]
StyleMap: 0x0000
FSType: 0
OS2Version: 3
OS2_WeightWidthSlopeOnly: 0
OS2_UseTypoMetrics: 0
CreationTime: 1493334908
ModificationTime: 1498143696
PfmFamily: 17
TTFWeight: 400
TTFWidth: 5
LineGap: 184
VLineGap: 0
Panose: 2 0 5 3 0 0 0 0 0 0
OS2TypoAscent: 1760
OS2TypoAOffset: 0
OS2TypoDescent: -288
OS2TypoDOffset: 0
OS2TypoLinegap: 184
OS2WinAscent: 1768
OS2WinAOffset: 0
OS2WinDescent: 288
OS2WinDOffset: 0
HheadAscent: 1768
HheadAOffset: 0
HheadDescent: -288
HheadDOffset: 0
OS2SubXSize: 1331
OS2SubYSize: 1433
OS2SubXOff: 0
OS2SubYOff: 286
OS2SupXSize: 1331
OS2SupYSize: 1433
OS2SupXOff: 0
OS2SupYOff: 983
OS2StrikeYSize: 102
OS2StrikeYPos: 530
OS2CapHeight: 1257
OS2XHeight: 945
OS2Vendor: 'PfEd'
OS2CodePages: 00000001.00000000
OS2UnicodeRanges: 80000027.4000200a.00000000.00000000
MarkAttachClasses: 1
DEI: 91125
LangName: 1033
Encoding: UnicodeBmp
UnicodeInterp: none
NameList: AGL For New Fonts
DisplaySize: -72
AntiAlias: 1
FitToEm: 0
WinInfo: 18 18 7
BeginPrivate: 7
BlueValues 25 [0 0 1176 1176 1552 1552]
OtherBlues 11 [-288 -288]
BlueShift 1 0
StdHW 4 [64]
StdVW 5 [141]
StemSnapH 34 [43 48 52 64 70 79 97 105 109 113]
StemSnapV 35 [40 47 52 58 63 67 100 132 136 141]
EndPrivate
Grid
-2048 1255.87536621 m 0
 4096 1255.87536621 l 1024
EndSplineSet
BeginChars: 65538 232

StartChar: .notdef
Encoding: 65536 -1 0
Width: 748
Flags: W
LayerCount: 2
Fore
SplineSet
68 0 m 1
 68 1365 l 1
 612 1365 l 1
 612 0 l 1
 68 0 l 1
136 68 m 1
 544 68 l 1
 544 1297 l 1
 136 1297 l 1
 136 68 l 1
EndSplineSet
Validated: 1
EndChar

StartChar: exclam
Encoding: 33 33 3
Width: 448
GlyphClass: 2
Flags: MW
VStem: 188.5 62.2305<1.40527 214.519 1.40527 214.519 361.895 379.926> 208.5 22.2305<1245.53 1257.4>
LayerCount: 2
Fore
SplineSet
258.5 1257.40039062 m 1x80
 208.5 1257.40039062 l 1x40
 208.5 1233.65722656 188.5 397.95703125 188.5 361.89453125 c 1
 238.5 361.89453125 l 1
 288.5 361.89453125 l 1
 288.5 395.57421875 308.5 1231.12988281 308.5 1257.40039062 c 1
 258.5 1257.40039062 l 1x80
180.73046875 1257.40039062 m 1
 130.73046875 1257.40039062 l 1
 130.73046875 1219.38671875 150.73046875 396.807617188 150.73046875 361.89453125 c 1
 200.73046875 361.89453125 l 1
 250.73046875 361.89453125 l 1x80
 250.73046875 399.270507812 230.73046875 1221.84375 230.73046875 1257.40039062 c 1
 180.73046875 1257.40039062 l 1
238.5 214.518554688 m 1
 188.5 214.518554688 l 1
 188.5 1.4052734375 l 1
 238.5 1.4052734375 l 1
 288.5 1.4052734375 l 1
 288.5 214.518554688 l 1
 238.5 214.518554688 l 1
200.73046875 214.518554688 m 1
 150.73046875 214.518554688 l 1
 150.73046875 1.4052734375 l 1
 200.73046875 1.4052734375 l 1
 250.73046875 1.4052734375 l 1
 250.73046875 214.518554688 l 1
 200.73046875 214.518554688 l 1
EndSplineSet
Validated: 5
EndChar

StartChar: quotedbl
Encoding: 34 34 4
Width: 1024
GlyphClass: 2
Flags: MW
HStem: 1161.1 2.6416<308.5 320.73 308.5 320.73 308.5 329.5 329.5 353 353 358.5 308.5 329.5 329.5 353 353 358.5 320.73 329.5 329.5 353 353 369 369 370.73 320.73 329.5 329.5 353 353 369 369 370.73 358.5 369 369 408.5 358.5 369 369 408.5 370.73 370.73 370.73 370.73 608.5 620.73 608.5 653 653 658.5 620.73 653 653 669 669 670.73 658.5 669 669 708.5 670.73 670.73>
LayerCount: 2
Fore
SplineSet
358.5 1396 m 1
 308.5 1396 l 1
 308.5 1161.09960938 l 1
 358.5 1161.09960938 l 1
 408.5 1161.09960938 l 1
 408.5 1396 l 1
 358.5 1396 l 1
320.73046875 1396 m 1
 270.73046875 1396 l 1
 270.73046875 1161.09960938 l 1
 320.73046875 1161.09960938 l 1
 370.73046875 1161.09960938 l 1
 370.73046875 1396 l 1
 320.73046875 1396 l 1
369 1163.74121094 m 1
 329.5 1163.74121094 l 1
 308.5 1163.74121094 l 1
 308.5 1152.22363281 l 1
 215.428710938 1024.06738281 l 1
 257.282226562 999.447265625 l 1
 299.135742188 974.827148438 l 1
 400.353515625 1114.20214844 l 1
 408.5 1125.42089844 l 1
 408.5 1138.82226562 l 1
 408.5 1163.74121094 l 1
 369 1163.74121094 l 1
353 1163.74121094 m 1
 308.5 1163.74121094 l 1
 308.5 1152.23632812 l 1
 215.065429688 1023.71875 l 1
 256.905273438 999.080078125 l 1
 298.745117188 974.44140625 l 1
 400.33984375 1114.18359375 l 1
 408.5 1125.40820312 l 1
 408.5 1138.82226562 l 1
 408.5 1163.74121094 l 1
 358.5 1163.74121094 l 1
 353 1163.74121094 l 1
358.5 1396 m 1
 308.5 1396 l 1
 308.5 1161.09960938 l 1
 358.5 1161.09960938 l 1
 408.5 1161.09960938 l 1
 408.5 1396 l 1
 358.5 1396 l 1
320.73046875 1396 m 1
 270.73046875 1396 l 1
 270.73046875 1161.09960938 l 1
 320.73046875 1161.09960938 l 1
 370.73046875 1161.09960938 l 1
 370.73046875 1396 l 1
 320.73046875 1396 l 1
369 1163.74121094 m 1
 329.5 1163.74121094 l 1
 308.5 1163.74121094 l 1
 308.5 1152.22363281 l 1
 215.428710938 1024.06738281 l 1
 257.282226562 999.447265625 l 1
 299.135742188 974.827148438 l 1
 400.353515625 1114.20214844 l 1
 408.5 1125.42089844 l 1
 408.5 1138.82226562 l 1
 408.5 1163.74121094 l 1
 369 1163.74121094 l 1
353 1163.74121094 m 1
 308.5 1163.74121094 l 1
 308.5 1152.23632812 l 1
 215.065429688 1023.71875 l 1
 256.905273438 999.080078125 l 1
 298.745117188 974.44140625 l 1
 400.33984375 1114.18359375 l 1
 408.5 1125.40820312 l 1
 408.5 1138.82226562 l 1
 408.5 1163.74121094 l 1
 358.5 1163.74121094 l 1
 353 1163.74121094 l 1
658.5 1396 m 1
 608.5 1396 l 1
 608.5 1161.09960938 l 1
 658.5 1161.09960938 l 1
 708.5 1161.09960938 l 1
 708.5 1396 l 1
 658.5 1396 l 1
620.73046875 1396 m 1
 570.73046875 1396 l 1
 570.73046875 1161.09960938 l 1
 620.73046875 1161.09960938 l 1
 670.73046875 1161.09960938 l 1
 670.73046875 1396 l 1
 620.73046875 1396 l 1
669 1163.74121094 m 1
 629.5 1163.74121094 l 1
 608.5 1163.74121094 l 1
 608.5 1152.22363281 l 1
 515.428710938 1024.06738281 l 1
 557.282226562 999.447265625 l 1
 599.135742188 974.827148438 l 1
 700.353515625 1114.20214844 l 1
 708.5 1125.42089844 l 1
 708.5 1138.82226562 l 1
 708.5 1163.74121094 l 1
 669 1163.74121094 l 1
653 1163.74121094 m 1
 608.5 1163.74121094 l 1
 608.5 1152.23632812 l 1
 515.065429688 1023.71875 l 1
 556.905273438 999.080078125 l 1
 598.745117188 974.44140625 l 1
 700.33984375 1114.18359375 l 1
 708.5 1125.40820312 l 1
 708.5 1138.82226562 l 1
 708.5 1163.74121094 l 1
 658.5 1163.74121094 l 1
 653 1163.74121094 l 1
EndSplineSet
Validated: 5
EndChar

StartChar: numbersign
Encoding: 35 35 5
Width: 1024
GlyphClass: 2
Flags: W
LayerCount: 2
Fore
SplineSet
24 464 m 1
 24 576 l 1
 199 576 l 1
 276 1040 l 1
 88 1040 l 1
 88 1152 l 1
 294 1152 l 1
 360 1552 l 1
 504 1552 l 1
 438 1152 l 1
 702 1152 l 1
 768 1552 l 1
 912 1552 l 1
 846 1152 l 1
 1000 1152 l 1
 1000 1040 l 1
 828 1040 l 1
 751 576 l 1
 928 576 l 1
 928 464 l 1
 732 464 l 1
 656 0 l 1
 512 0 l 1
 588 464 l 1
 324 464 l 1
 248 0 l 1
 104 0 l 1
 180 464 l 1
 24 464 l 1
343 576 m 1
 607 576 l 1
 684 1040 l 1
 420 1040 l 1
 343 576 l 1
EndSplineSet
Validated: 1
EndChar

StartChar: dollar
Encoding: 36 36 6
Width: 1024
GlyphClass: 2
Flags: W
LayerCount: 2
Fore
SplineSet
80 184 m 1
 80 376 l 1
 160 285 237 224 312 192 c 0
 357 172 400 158 440 151 c 1
 440 722 l 1
 395 733 345 749 292 772 c 0
 236 796 187 839 144 900 c 0
 101 961 80 1040 80 1136 c 0
 80 1259 109 1359 168 1436 c 0
 218 1503 309 1541 440 1550 c 1
 440 1760 l 1
 584 1760 l 1
 584 1548 l 1
 641 1542 695 1529 744 1508 c 0
 813 1479 877 1435 936 1376 c 1
 936 1160 l 1
 861 1251 795 1316 736 1356 c 0
 693 1385 643 1404 584 1412 c 1
 584 822 l 1
 645 811 705 787 764 752 c 0
 825 715 871 668 900 612 c 0
 929 556 944 488 944 408 c 0
 944 269 911 167 844 100 c 0
 788 44 701 11 584 2 c 1
 584 -288 l 1
 440 -288 l 1
 440 6 l 1
 391 13 339 27 284 48 c 0
 201 80 133 125 80 184 c 1
232 1136 m 0
 232 1045 253 979 296 936 c 0
 335 897 383 872 440 859 c 1
 440 1412 l 1
 367 1404 317 1381 288 1344 c 0
 251 1296 232 1227 232 1136 c 0
584 148 m 1
 645 156 693 175 728 204 c 0
 776 244 800 312 800 408 c 0
 800 499 772 567 716 612 c 0
 667 652 623 679 584 692 c 1
 584 148 l 1
EndSplineSet
Validated: 1
EndChar

StartChar: percent
Encoding: 37 37 7
Width: 1024
GlyphClass: 2
Flags: HW
LayerCount: 2
Fore
SplineSet
667.953125 1351.95410156 m 1
 618.5625 1357.62695312 l 1
 319.693359375 -25.421875 l 1
 369.083984375 -31.09375 l 1
 418.474609375 -36.765625 l 1
 717.34375 1346.28222656 l 1
 667.953125 1351.95410156 l 1
633.749023438 1353.08691406 m 1
 584.110351562 1357.4609375 l 1
 354.166992188 -29.2607421875 l 1
 403.805664062 -33.634765625 l 1
 453.444335938 -38.0087890625 l 1
 683.387695312 1348.71289062 l 1
 633.749023438 1353.08691406 l 1
336.2265625 975.541992188 m 0
 296.127929688 1084.63964844 186.96875 1191.57617188 55.7265625 1165.94042969 c 0
 -75.5166015625 1140.30371094 -96.7060546875 1007.90722656 -56.60546875 898.807617188 c 0
 -16.5068359375 789.7109375 92.65234375 682.7734375 223.895507812 708.41015625 c 0
 355.138671875 734.046875 376.328125 866.443359375 336.2265625 975.541992188 c 0
239.634765625 956.674804688 m 0
 278.1171875 851.9765625 230.37890625 785.1484375 198.012695312 778.826171875 c 0
 165.646484375 772.50390625 78.4697265625 812.9765625 39.986328125 917.67578125 c 0
 1.5048828125 1022.37402344 49.2431640625 1089.20214844 81.607421875 1095.52441406 c 0
 113.974609375 1101.84667969 201.151367188 1061.37402344 239.634765625 956.674804688 c 0
315.330078125 971.459960938 m 0
 281.451171875 1063.63476562 184.25 1181.5625 58.978515625 1157.09375 c 0
 -66.287109375 1132.62402344 -69.5966796875 995.0859375 -35.708984375 902.890625 c 0
 -1.734375 810.454101562 95.2646484375 694.275390625 220.125976562 718.665039062 c 0
 344.982421875 743.052734375 349.310546875 879.010742188 315.330078125 971.459960938 c 0
218.73828125 952.592773438 m 0
 253.458984375 858.126953125 209.9140625 792.141601562 194.243164062 789.081054688 c 0
 178.577148438 786.021484375 95.609375 827.280273438 60.8828125 921.7578125 c 0
 26.0693359375 1016.4765625 69.59765625 1083.69628906 84.859375 1086.67773438 c 0
 100.115234375 1089.65722656 183.916015625 1047.33300781 218.73828125 952.592773438 c 0
1085.72460938 374.90234375 m 0
 1045.62597656 484.000976562 936.466796875 590.936523438 805.224609375 565.30078125 c 0
 673.98046875 539.665039062 652.791015625 407.268554688 692.892578125 298.169921875 c 0
 732.991210938 189.071289062 842.150390625 82.1357421875 973.391601562 107.771484375 c 0
 1104.63574219 133.408203125 1125.82519531 265.803710938 1085.72460938 374.90234375 c 0
989.1328125 356.03515625 m 0
 1027.61425781 251.336914062 979.875976562 184.509765625 947.510742188 178.1875 c 0
 915.14453125 171.865234375 827.967773438 212.3359375 789.484375 317.038085938 c 0
 751.001953125 421.735351562 798.740234375 488.563476562 831.10546875 494.884765625 c 0
 863.47265625 501.20703125 950.649414062 460.735351562 989.1328125 356.03515625 c 0
1064.828125 370.822265625 m 0
 1030.95019531 462.994140625 933.748046875 580.92578125 808.475585938 556.454101562 c 0
 683.211914062 531.985351562 679.90234375 394.4453125 713.7890625 302.25 c 0
 747.763671875 209.815429688 844.762695312 93.634765625 969.624023438 118.026367188 c 0
 1094.48046875 142.415039062 1098.80859375 278.372070312 1064.828125 370.822265625 c 0
968.236328125 351.954101562 m 0
 1002.95703125 257.489257812 959.412109375 191.502929688 943.741210938 188.442382812 c 0
 928.075195312 185.381835938 845.107421875 226.640625 810.380859375 321.118164062 c 0
 775.56640625 415.837890625 819.094726562 483.056640625 834.358398438 486.038085938 c 0
 849.61328125 489.018554688 933.413085938 446.694335938 968.236328125 351.954101562 c 0
EndSplineSet
Validated: 37
EndChar

StartChar: ampersand
Encoding: 38 38 8
Width: 1216
GlyphClass: 2
Flags: MW
HStem: -14.2998 109.35<396.725 540.277 396.725 565.685> 14.0498 52.6504<396.07 545.522 396.07 559.278> 1150.48 106.92<483.041 485.348 485.348 583.959 431.235 594.473> 1176.4 55.0801<485.348 583.959 583.959 607.374>
VStem: 66.3066 133.238<247.799 303.539 247.799 378.166> 99.5449 66.7617<223.737 303.176> 198.307 129.192<910.467 951.02> 227.499 70.8086 741.808 129.192<862.475 934.627 844.199 1011.3> 771 70.8076 945.576 144.104<1.90039 34.8174> 989.681 55.8955<1.90039 32.02>
LayerCount: 2
Fore
SplineSet
942.25 285.669921875 m 1xa020
 1038.13769531 442.140625 1085.30078125 621.151367188 1085.30078125 734.249023438 c 1
 1035.30078125 734.249023438 l 1
 985.30078125 734.249023438 l 1
 985.30078125 645.311523438 947.5234375 491.317382812 872.209960938 355.1640625 c 1
 756.655273438 461.900390625 621.693359375 554.995117188 538.758789062 611.376953125 c 1
 706.413085938 667.818359375 871 753.770507812 871 934.626953125 c 1
 865.262695312 1170.38964844 694.125976562 1257.40039062 583.958984375 1257.40039062 c 2
 485.34765625 1257.40039062 l 2
 377.122070312 1257.40039062 206.380859375 1175.390625 198.306640625 951.01953125 c 1xa2a0
 198.306640625 828.859375 257.3125 732.14453125 357.502929688 639.467773438 c 1
 186.37109375 573.517578125 66.306640625 460.274414062 66.306640625 296.056640625 c 0
 66.306640625 86.9091796875 280.7578125 -14.2998046875 474.653320312 -14.2998046875 c 0
 656.715820312 -14.2998046875 793.625976562 86.29296875 888.408203125 207.798828125 c 1
 951.077148438 134.447265625 989.680664062 62.1396484375 989.680664062 1.900390625 c 1xa810
 1039.68066406 1.900390625 l 1
 1089.68066406 1.900390625 l 1
 1089.68066406 99.8232421875 1024.52832031 197.1328125 942.25 285.669921875 c 1xa020
823.151367188 276.973632812 m 1
 734.09765625 151.82421875 616.391601562 66.7001953125 474.653320312 66.7001953125 c 0
 317.486328125 66.7001953125 166.306640625 142.502929688 166.306640625 296.056640625 c 0x44
 166.306640625 432.314453125 264.845703125 521.448242188 432.5390625 577.866210938 c 1
 510.186523438 524.564453125 688.756835938 407.842773438 823.151367188 276.973632812 c 1
456.174804688 671.931640625 m 1
 349.733398438 763.814453125 298.544921875 844.55078125 298.307617188 949.849609375 c 1
 305.575195312 1136.91796875 437.037109375 1176.40039062 485.34765625 1176.40039062 c 2
 583.958984375 1176.40039062 l 2
 630.7890625 1176.40039062 765.583984375 1134.58007812 771 933.848632812 c 1x1140
 770.55078125 792.131835938 640.002929688 728.935546875 456.174804688 671.931640625 c 1
853.196289062 213.671875 m 1
 909.943359375 141.104492188 945.576171875 67.734375 945.576171875 1.900390625 c 1x5560
 993.576171875 1.900390625 l 1
 995.576171875 1.900390625 l 1
 1045.57617188 1.900390625 l 1
 1045.57617188 104.27734375 985.369140625 203.764648438 907.963867188 292.985351562 c 1
 1009.84765625 461.083007812 1052.44726562 652.840820312 1052.44726562 734.291015625 c 1
 1002.44726562 734.291015625 l 1
 952.447265625 734.291015625 l 1
 952.447265625 676.192382812 917.84375 510.939453125 839.275390625 365.4765625 c 1
 733.758789062 468.475585938 611.893554688 555.969726562 535.017578125 610.678710938 c 1
 696.698242188 667.168945312 841.807617188 756.514648438 841.807617188 935.923828125 c 0
 841.807617188 1117.03222656 717.78125 1231.48046875 534.306640625 1231.48046875 c 0
 379.606445312 1231.48046875 227.499023438 1138.69433594 227.499023438 952.124023438 c 0
 227.499023438 853.640625 277.766601562 729.041015625 359.9765625 639 c 1
 194.293945312 568.421875 98.0361328125 439.2734375 99.544921875 303.17578125 c 0
 99.544921875 144.297851562 267.260742188 14.0498046875 475 14.0498046875 c 0x5550
 643.556640625 14.0498046875 767.500976562 104.997070312 853.196289062 213.671875 c 1
455.342773438 671.779296875 m 1
 379.532226562 745.083007812 327.499023438 868.810546875 327.499023438 952.124023438 c 0
 327.499023438 1097.41796875 431.774414062 1150.48046875 534.306640625 1150.48046875 c 0
 654.638671875 1150.48046875 741.807617188 1086.6796875 741.807617188 935.923828125 c 0x2280
 741.807617188 789.026367188 627.1484375 726.116210938 455.342773438 671.779296875 c 1
431.008789062 576.944335938 m 1
 506.634765625 522.4375 668.045898438 412.641601562 790.1328125 285.752929688 c 1
 709.912109375 171.954101562 605.553710938 95.0498046875 475 95.0498046875 c 0
 318.450195312 95.0498046875 199.544921875 192.059570312 199.544921875 303.5390625 c 0x88
 198.314453125 414.53125 280.0234375 521.657226562 431.008789062 576.944335938 c 1
EndSplineSet
Validated: 37
EndChar

StartChar: quotesingle
Encoding: 39 39 9
Width: 416
GlyphClass: 2
Flags: MW
HStem: 1045.99 2.37695<188.5 200.73 188.5 209.5 209.5 233 233 238.5 200.73 209.5 209.5 233 233 249 249 250.73 238.5 249 249 288.5 250.73 250.73>
LayerCount: 2
Fore
SplineSet
238.5 1257.40039062 m 1
 188.5 1257.40039062 l 1
 188.5 1045.99023438 l 1
 238.5 1045.99023438 l 1
 288.5 1045.99023438 l 1
 288.5 1257.40039062 l 1
 238.5 1257.40039062 l 1
200.73046875 1257.40039062 m 1
 150.73046875 1257.40039062 l 1
 150.73046875 1045.99023438 l 1
 200.73046875 1045.99023438 l 1
 250.73046875 1045.99023438 l 1
 250.73046875 1257.40039062 l 1
 200.73046875 1257.40039062 l 1
249 1048.3671875 m 1
 209.5 1048.3671875 l 1
 188.5 1048.3671875 l 1
 188.5 1038.00195312 l 1
 95.4287109375 922.659179688 l 1
 137.282226562 900.501953125 l 1
 179.135742188 878.34375 l 1
 280.353515625 1003.78222656 l 1
 288.5 1013.87890625 l 1
 288.5 1025.94042969 l 1
 288.5 1048.3671875 l 1
 249 1048.3671875 l 1
233 1048.3671875 m 1
 188.5 1048.3671875 l 1
 188.5 1038.01269531 l 1
 95.0654296875 922.346679688 l 1
 136.905273438 900.171875 l 1
 178.745117188 877.997070312 l 1
 280.33984375 1003.765625 l 1
 288.5 1013.8671875 l 1
 288.5 1025.94042969 l 1
 288.5 1048.3671875 l 1
 238.5 1048.3671875 l 1
 233 1048.3671875 l 1
EndSplineSet
Validated: 5
EndChar

StartChar: parenleft
Encoding: 40 40 10
Width: 624
GlyphClass: 2
Flags: MW
VStem: 100.793 142.229<381.657 613.773 381.657 616.164> 143.021 57.7715<384.543 614.176>
LayerCount: 2
Fore
SplineSet
469.342773438 -184.826171875 m 1x80
 506.467773438 -157.698242188 l 1
 482.938476562 -136.571289062 200.79296875 153.326171875 200.79296875 615.760742188 c 1x40
 205.790039062 1022.53417969 461.141601562 1301.83984375 508.189453125 1355.74316406 c 1
 467.362304688 1379.12304688 l 1
 426.53515625 1402.50292969 l 1
 377.995117188 1346.88964844 106.127929688 1050.50683594 100.79296875 616.1640625 c 1
 100.79296875 125.419921875 395.180664062 -178.701171875 432.217773438 -211.955078125 c 1
 469.342773438 -184.826171875 l 1x80
471.721679688 -183.583007812 m 1
 508.846679688 -156.454101562 l 1
 488.834960938 -138.486328125 243.021484375 149.540039062 243.021484375 613.7734375 c 1x80
 248.0390625 1022.27832031 466.974609375 1307.04199219 510.568359375 1356.98632812 c 1
 469.741210938 1380.36621094 l 1
 428.9140625 1403.74707031 l 1
 376.91796875 1344.17480469 148.3359375 1046.78613281 143.021484375 614.17578125 c 1
 143.021484375 125.231445312 394.040039062 -174.298828125 434.596679688 -210.711914062 c 1
 471.721679688 -183.583007812 l 1
EndSplineSet
Validated: 5
EndChar

StartChar: parenright
Encoding: 41 41 11
Width: 624
GlyphClass: 2
Flags: MW
VStem: 392.34 142.229<381.657 613.773> 434.568 57.7715<384.543 614.176 369.704 615.761>
LayerCount: 2
Fore
SplineSet
166.018554688 -184.826171875 m 1x40
 203.143554688 -211.955078125 l 1
 240.180664062 -178.701171875 534.568359375 125.419921875 534.568359375 616.1640625 c 1x80
 529.233398438 1050.50683594 257.366210938 1346.88964844 208.826171875 1402.50292969 c 1
 167.999023438 1379.12304688 l 1
 127.171875 1355.74316406 l 1
 174.219726562 1301.83984375 429.571289062 1022.53417969 434.568359375 615.760742188 c 1
 434.568359375 153.326171875 152.422851562 -136.571289062 128.893554688 -157.698242188 c 1
 166.018554688 -184.826171875 l 1x40
163.639648438 -183.583007812 m 1
 200.764648438 -210.711914062 l 1
 241.3203125 -174.298828125 492.33984375 125.231445312 492.33984375 614.17578125 c 1x40
 487.026367188 1046.78613281 258.443359375 1344.17480469 206.447265625 1403.74707031 c 1
 165.620117188 1380.36621094 l 1
 124.79296875 1356.98632812 l 1
 168.38671875 1307.04199219 387.323242188 1022.27832031 392.33984375 613.7734375 c 1
 392.33984375 149.540039062 146.52734375 -138.486328125 126.514648438 -156.454101562 c 1
 163.639648438 -183.583007812 l 1
EndSplineSet
Validated: 5
EndChar

StartChar: asterisk
Encoding: 42 42 12
Width: 1024
GlyphClass: 2
Flags: W
LayerCount: 2
Fore
SplineSet
80 512 m 1
 392 776 l 1
 80 1048 l 1
 192 1208 l 1
 448 920 l 1
 424 1552 l 1
 600 1552 l 1
 576 920 l 1
 840 1208 l 1
 944 1048 l 1
 640 776 l 1
 952 512 l 1
 840 344 l 1
 576 648 l 1
 600 0 l 1
 424 0 l 1
 448 648 l 1
 192 344 l 1
 80 512 l 1
EndSplineSet
Validated: 1
EndChar

StartChar: plus
Encoding: 43 43 13
Width: 1024
GlyphClass: 2
Flags: MW
HStem: 436.212 81<167.488 879.488 167.488 879.488 167.488 879.488 167.488 879.488 167.488 879.488 167.488 879.488 167.488 879.488 167.488 879.488>
LayerCount: 2
Fore
SplineSet
167.48828125 476.711914062 m 1
 167.48828125 436.211914062 l 1
 879.48828125 436.211914062 l 1
 879.48828125 476.711914062 l 1
 879.48828125 517.211914062 l 1
 167.48828125 517.211914062 l 1
 167.48828125 476.711914062 l 1
167.48828125 476.711914062 m 1
 167.48828125 436.211914062 l 1
 879.48828125 436.211914062 l 1
 879.48828125 476.711914062 l 1
 879.48828125 517.211914062 l 1
 167.48828125 517.211914062 l 1
 167.48828125 476.711914062 l 1
167.48828125 476.711914062 m 1
 167.48828125 436.211914062 l 1
 879.48828125 436.211914062 l 1
 879.48828125 476.711914062 l 1
 879.48828125 517.211914062 l 1
 167.48828125 517.211914062 l 1
 167.48828125 476.711914062 l 1
167.48828125 476.711914062 m 1
 167.48828125 436.211914062 l 1
 879.48828125 436.211914062 l 1
 879.48828125 476.711914062 l 1
 879.48828125 517.211914062 l 1
 167.48828125 517.211914062 l 1
 167.48828125 476.711914062 l 1
EndSplineSet
Validated: 5
EndChar

StartChar: comma
Encoding: 44 44 14
Width: 416
GlyphClass: 2
Flags: MW
HStem: 1.61621 2.37695<188.5 200.73 188.5 209.5 209.5 233 233 238.5 200.73 209.5 209.5 233 233 249 249 250.73 238.5 249 249 288.5 250.73 250.73>
LayerCount: 2
Fore
SplineSet
238.5 213.026367188 m 1
 188.5 213.026367188 l 1
 188.5 1.6162109375 l 1
 238.5 1.6162109375 l 1
 288.5 1.6162109375 l 1
 288.5 213.026367188 l 1
 238.5 213.026367188 l 1
200.73046875 213.026367188 m 1
 150.73046875 213.026367188 l 1
 150.73046875 1.6162109375 l 1
 200.73046875 1.6162109375 l 1
 250.73046875 1.6162109375 l 1
 250.73046875 213.026367188 l 1
 200.73046875 213.026367188 l 1
249 3.9931640625 m 1
 209.5 3.9931640625 l 1
 188.5 3.9931640625 l 1
 188.5 -6.3720703125 l 1
 95.4287109375 -121.712890625 l 1
 137.282226562 -143.87109375 l 1
 179.135742188 -166.028320312 l 1
 280.353515625 -40.591796875 l 1
 288.5 -30.4951171875 l 1
 288.5 -18.43359375 l 1
 288.5 3.9931640625 l 1
 249 3.9931640625 l 1
233 3.9931640625 m 1
 188.5 3.9931640625 l 1
 188.5 -6.361328125 l 1
 95.0654296875 -122.02734375 l 1
 136.905273438 -144.202148438 l 1
 178.745117188 -166.376953125 l 1
 280.33984375 -40.6083984375 l 1
 288.5 -30.505859375 l 1
 288.5 -18.43359375 l 1
 288.5 3.9931640625 l 1
 238.5 3.9931640625 l 1
 233 3.9931640625 l 1
EndSplineSet
Validated: 5
EndChar

StartChar: hyphen
Encoding: 45 45 15
Width: 1024
GlyphClass: 2
Flags: MW
HStem: 436.212 81<167.488 879.488 167.488 879.488 167.488 879.488 167.488 879.488>
LayerCount: 2
Fore
SplineSet
167.48828125 476.711914062 m 1
 167.48828125 436.211914062 l 1
 879.48828125 436.211914062 l 1
 879.48828125 476.711914062 l 1
 879.48828125 517.211914062 l 1
 167.48828125 517.211914062 l 1
 167.48828125 476.711914062 l 1
167.48828125 476.711914062 m 1
 167.48828125 436.211914062 l 1
 879.48828125 436.211914062 l 1
 879.48828125 476.711914062 l 1
 879.48828125 517.211914062 l 1
 167.48828125 517.211914062 l 1
 167.48828125 476.711914062 l 1
EndSplineSet
Validated: 5
EndChar

StartChar: period
Encoding: 46 46 16
Width: 416
GlyphClass: 2
Flags: MW
HStem: 2.21484 211.493<150.874 200.874 188.356 200.874 200.874 238.356 200.874 238.356 238.356 250.874 238.356 250.874 250.874 288.356 250.874 250.874 150.874 288.356>
VStem: 150.874 137.482<2.21484 213.708 2.21484 213.708>
LayerCount: 2
Fore
SplineSet
238.356445312 213.708007812 m 1
 188.356445312 213.708007812 l 1
 188.356445312 2.21484375 l 1
 238.356445312 2.21484375 l 1
 288.356445312 2.21484375 l 1
 288.356445312 213.708007812 l 1
 238.356445312 213.708007812 l 1
200.874023438 213.708007812 m 1
 150.874023438 213.708007812 l 1
 150.874023438 2.21484375 l 1
 200.874023438 2.21484375 l 1
 250.874023438 2.21484375 l 1
 250.874023438 213.708007812 l 1
 200.874023438 213.708007812 l 1
EndSplineSet
Validated: 5
EndChar

StartChar: slash
Encoding: 47 47 17
Width: 700
GlyphClass: 2
Flags: W
LayerCount: 2
Fore
SplineSet
466.723632812 1265.97558594 m 1
 417.333007812 1271.6484375 l 1
 118.462890625 -111.400390625 l 1
 167.853515625 -117.072265625 l 1
 217.244140625 -122.744140625 l 1
 516.114257812 1260.30371094 l 1
 466.723632812 1265.97558594 l 1
432.51953125 1267.10839844 m 1
 382.880859375 1271.48242188 l 1
 152.9375 -115.239257812 l 1
 202.576171875 -119.61328125 l 1
 252.21484375 -123.987304688 l 1
 482.158203125 1262.734375 l 1
 432.51953125 1267.10839844 l 1
EndSplineSet
EndChar

StartChar: zero
Encoding: 48 48 18
Width: 1024
GlyphClass: 2
Flags: MW
HStem: -14.2979 115.302 20.0039 46.6934<517 517> 1152.22 113.752 1184.97 48.248
VStem: 104.745 148.291<623.774 787.911> 153.036 51.709<623.912 786.687> 782.577 147.807<474.209 787.915 450.175 802.525> 830.384 52.1934<483.049 793.344>
LayerCount: 2
Fore
SplineSet
153.036132812 625.982421875 m 0x55
 153.036132812 339.465820312 225.213867188 20.00390625 517.080078125 20.00390625 c 0
 809.408203125 20.00390625 882.577148438 339.295898438 882.577148438 626.801757812 c 0
 882.577148438 964.443359375 797.040039062 1233.07128906 518.5390625 1233.21582031 c 0
 238.719726562 1233.36132812 153.036132812 947.391601562 153.036132812 625.982421875 c 0x55
253.036132812 625.982421875 m 0xaa
 253.036132812 961.901367188 352.131835938 1152.30175781 518.474609375 1152.21582031 c 0
 686.135742188 1152.12890625 782.577148438 978.248046875 782.577148438 626.801757812 c 0
 782.577148438 321.616210938 691.611328125 101.00390625 517.080078125 101.00390625 c 0
 343.241210938 101.00390625 253.036132812 321.517578125 253.036132812 625.982421875 c 0xaa
830.383789062 626.978515625 m 0x55
 830.383789062 267.439453125 698.716796875 68.263671875 518.053710938 66.697265625 c 0
 341.745117188 65.169921875 209.354492188 256.493164062 204.861328125 608.69140625 c 0
 204.784179688 614.75 204.745117188 620.845703125 204.745117188 626.978515625 c 0
 204.745117188 959.716796875 343.040039062 1184.96777344 488.515625 1184.96777344 c 2
 546.614257812 1184.96777344 l 2
 691.987304688 1184.96777344 830.383789062 959.708984375 830.383789062 626.978515625 c 0x55
930.383789062 626.978515625 m 0xaa
 930.383789062 948.850585938 808.915039062 1265.96777344 546.614257812 1265.96777344 c 2
 488.515625 1265.96777344 l 2
 226.116210938 1265.96777344 104.745117188 948.842773438 104.745117188 626.978515625 c 0
 104.745117188 620.569335938 104.78515625 614.194335938 104.866210938 607.854492188 c 0
 109.284179688 261.5703125 236.353515625 -16.748046875 519.124023438 -14.2978515625 c 0
 805.689453125 -11.8134765625 930.383789062 273.372070312 930.383789062 626.978515625 c 0xaa
EndSplineSet
Validated: 41
EndChar

StartChar: one
Encoding: 49 49 19
Width: 1024
GlyphClass: 2
Flags: MW
HStem: 78.8496 4.05078<200 820 480.122 530.122 530.122 580.122 580.122 580.122 200 820> 973.396 110.893<199.422 253.872> 1003.29 51.1074<199.422 251.64 199.422 251.64> 1003.29 81<199.422 251.64 199.422 251.64>
VStem: 480.122 64.0107<42.4033 1067.58 42.4033 78.8496>
LayerCount: 2
Fore
SplineSet
494.1328125 42.400390625 m 1x88
 544.1328125 42.4033203125 l 1
 544 1257.40332031 l 1
 494 1257.40039062 l 1
 444 1257.39648438 l 1
 444.1328125 42.396484375 l 1
 494.1328125 42.400390625 l 1x88
469 1184.44824219 m 1
 444 1184.44824219 l 1
 444 1122.33886719 314.047851562 1084.2890625 199.421875 1084.2890625 c 1xc8
 199.421875 1043.7890625 l 1
 199.421875 1003.2890625 l 1x98
 303.858398438 1003.2890625 544 1031.63769531 544 1184.44824219 c 1
 494 1184.44824219 l 1
 469 1184.44824219 l 1
469 1184.44824219 m 1
 444 1184.44824219 l 1
 444 1122.33886719 314.047851562 1084.2890625 199.421875 1084.2890625 c 1xc8
 199.421875 1043.7890625 l 1
 199.421875 1003.2890625 l 1x98
 303.858398438 1003.2890625 544 1031.63769531 544 1184.44824219 c 1
 494 1184.44824219 l 1
 469 1184.44824219 l 1
530.122070312 78.849609375 m 1
 580.122070312 78.849609375 l 1
 580.122070312 1257.40039062 l 1
 480.122070312 1257.40039062 l 1
 480.122070312 1150.27832031 352.666015625 1054.39648438 199.416015625 1054.39648438 c 1xa8
 199.416015625 1013.89648438 l 1
 199.416015625 973.396484375 l 1
 308.327148438 973.396484375 408.412109375 1009.14746094 480.122070312 1067.58007812 c 1
 480.122070312 78.849609375 l 1
 530.122070312 78.849609375 l 1
200 42.400390625 m 1
 200 1.900390625 l 1
 820 1.900390625 l 1
 820 42.400390625 l 1
 820 82.900390625 l 1
 200 82.900390625 l 1
 200 42.400390625 l 1
200 78.849609375 m 1
 200 38.349609375 l 1
 820 38.349609375 l 1
 820 78.849609375 l 1
 820 119.349609375 l 1
 200 119.349609375 l 1
 200 78.849609375 l 1
EndSplineSet
Validated: 5
EndChar

StartChar: two
Encoding: 50 50 20
Width: 1024
GlyphClass: 2
Flags: MW
HStem: 1160.2 97.2002<434.836 451.455 451.455 562.815> 1176.4 64.7998<451.455 562.815 562.815 589.504 392.396 613.876>
VStem: 148.896 144.058<929.261 983.875 929.261 1025.76> 192.954 55.9424<929.261 990.784> 738.011 136.733<882.821 966.73 882.821 1045.76> 774.744 63.2666
LayerCount: 2
Fore
SplineSet
198.896484375 929.260742188 m 1xa8
 248.896484375 929.260742188 l 1
 248.896484375 1094.95605469 368.4609375 1176.40039062 451.455078125 1176.40039062 c 2
 562.815429688 1176.40039062 l 2
 664.9375 1176.40039062 770.645507812 1119.90136719 774.744140625 965.958984375 c 0x54
 774.41015625 834.848632812 672.010742188 725.0234375 525.473632812 575.293945312 c 0
 388.94140625 435.788085938 142.580078125 236.135742188 142.580078125 42.400390625 c 2
 142.580078125 1.900390625 l 1
 192.580078125 1.900390625 l 1
 871.443359375 1.900390625 l 1
 871.443359375 42.400390625 l 1
 871.443359375 82.900390625 l 1
 247.536132812 82.900390625 l 1
 280.134765625 220.702148438 472.887695312 391.173828125 603.836914062 524.975585938 c 0
 747.684570312 671.956054688 874.744140625 798.912109375 874.744140625 966.73046875 c 1
 870.154296875 1159.15722656 720.83984375 1257.40039062 562.815429688 1257.40039062 c 2
 451.455078125 1257.40039062 l 2
 292.177734375 1257.40039062 148.896484375 1122.25292969 148.896484375 929.260742188 c 1
 198.896484375 929.260742188 l 1xa8
242.954101562 929.260742188 m 1
 292.954101562 929.260742188 l 1
 292.954101562 1038.49023438 353.572265625 1160.20019531 516.099609375 1160.20019531 c 0
 628.673828125 1160.20019531 738.010742188 1133.73242188 738.010742188 957.787109375 c 0xa8
 738.010742188 791.508789062 626.265625 681.850585938 525.776367188 576.020507812 c 0
 376.568359375 418.8828125 203.69921875 291.422851562 203.69921875 74.7998046875 c 2
 203.69921875 34.2998046875 l 1
 253.69921875 34.2998046875 l 1
 871.473632812 34.2998046875 l 1
 871.473632812 74.7998046875 l 1
 871.473632812 115.299804688 l 1
 306.219726562 115.299804688 l 1
 325.698242188 268.108398438 458.0078125 371.7890625 605.041992188 526.637695312 c 0
 702.4609375 629.233398438 838.010742188 759.590820312 838.010742188 957.787109375 c 0
 838.010742188 1181.578125 662.908203125 1241.20019531 516.099609375 1241.20019531 c 0
 268.693359375 1241.20019531 192.954101562 1052.30761719 192.954101562 929.260742188 c 1
 242.954101562 929.260742188 l 1
EndSplineSet
Validated: 5
EndChar

StartChar: three
Encoding: 51 51 21
Width: 1024
GlyphClass: 2
Flags: MW
HStem: -14.2998 113.4 18.0996 48.6006<472.347 576.626 379.877 600.058>
VStem: 748.905 142.23<296.169 508.812> 791.136 57.7695<292.627 506.972>
LayerCount: 2
Fore
SplineSet
120.256835938 76.6796875 m 1x50
 150.502929688 62.4306640625 287.369140625 -14.2998046875 474.954101562 -14.2998046875 c 0
 750.110351562 -14.2998046875 891.135742188 169.403320312 891.135742188 392.091796875 c 0xa0
 891.135742188 642.423828125 697.958984375 746.255859375 475.159179688 764.499023438 c 1
 872.122070312 1143.72167969 l 1
 872.122070312 1257.40039062 l 1
 156.755859375 1257.40039062 l 1
 156.755859375 1176.40039062 l 1
 772.122070312 1176.40039062 l 1
 772.122070312 1173.43847656 l 1
 340 760.627929688 l 1
 340 686.834960938 l 1
 390 686.834960938 l 2
 617.176757812 686.834960938 791.135742188 621.852539062 791.135742188 392.091796875 c 0
 791.135742188 193.163085938 678.297851562 66.7001953125 474.954101562 66.7001953125 c 0
 284.80078125 66.7001953125 209.153320312 155.2578125 137.328125 155.2578125 c 1
 137.328125 114.7578125 l 1
 120.256835938 76.6796875 l 1x50
119.012695312 121.323242188 m 1
 149.849609375 105.309570312 283.6796875 21.5234375 472.346679688 18.099609375 c 0
 727.768554688 18.099609375 848.905273438 182.262695312 848.905273438 388.190429688 c 0x50
 848.905273438 650.875976562 664.13671875 742.614257812 453.0234375 755.381835938 c 1
 821.594726562 1136.50683594 l 1
 821.594726562 1229.04980469 l 1
 156.228515625 1229.04980469 l 1
 156.228515625 1148.04980469 l 1
 705.73046875 1148.04980469 l 1
 340 769.86328125 l 1
 340 676.178710938 l 1
 390 676.178710938 l 2
 593.3515625 676.178710938 748.905273438 629.434570312 748.905273438 388.190429688 c 0
 748.905273438 204.1484375 655.327148438 99.423828125 473.439453125 99.1005859375 c 1
 283.618164062 103.045898438 214.038085938 199.528320312 137.328125 199.528320312 c 1
 137.328125 159.028320312 l 1
 119.012695312 121.323242188 l 1
EndSplineSet
Validated: 5
EndChar

StartChar: four
Encoding: 52 52 22
Width: 1024
GlyphClass: 2
Flags: MW
HStem: 1156.4 20G<628.248 650 650 650>
LayerCount: 2
Fore
SplineSet
670 1.900390625 m 1
 720 1.900390625 l 1
 720 280.073242188 l 1
 950.711914062 280.073242188 l 1
 950.711914062 320.573242188 l 1
 950.711914062 361.073242188 l 1
 720 361.073242188 l 1
 720 1216.90039062 l 1
 720 1257.40039062 l 1
 670 1257.40039062 l 1
 605.661132812 1257.40039062 l 1
 572.09765625 1257.40039062 l 1
 559.385742188 1232.23925781 l 1
 132.975585938 388.23046875 l 1
 129.2578125 380.872070312 l 1
 129.250976562 372.920898438 l 1
 129.204101562 320.602539062 l 1
 129.16796875 280.073242188 l 1
 179.204101562 280.073242188 l 1
 620 280.073242188 l 1
 620 1.900390625 l 1
 670 1.900390625 l 1
620 361.073242188 m 1
 229.240234375 361.073242188 l 1
 229.244140625 364.911132812 l 1
 620 1138.34863281 l 1
 620 361.073242188 l 1
650 280.073242188 m 1
 650 1.900390625 l 1
 700 1.900390625 l 1
 750 1.900390625 l 1
 750 280.073242188 l 1
 950.83984375 280.073242188 l 1
 950.83984375 320.573242188 l 1
 950.83984375 361.073242188 l 1
 750 361.073242188 l 1
 750 1216.90039062 l 1
 750 1257.40039062 l 1
 700 1257.40039062 l 1
 595.654296875 1257.40039062 l 1
 563.060546875 1257.40039062 l 1
 549.907226562 1233.24414062 l 1
 91.57421875 391.561523438 l 1
 87.3203125 383.75 l 1
 87.3212890625 375.212890625 l 1
 87.328125 320.569335938 l 1
 87.3330078125 280.073242188 l 1
 137.328125 280.073242188 l 1
 650 280.073242188 l 1
650 361.073242188 m 1
 187.323242188 361.073242188 l 1
 187.322265625 366.68359375 l 1
 628.248046875 1176.40039062 l 1
 650 1176.40039062 l 1
 650 361.073242188 l 1
EndSplineSet
Validated: 5
EndChar

StartChar: five
Encoding: 53 53 23
Width: 1024
GlyphClass: 2
Flags: MW
HStem: -14.2998 117.21 21.9092 44.791<447.806 559.444 358.121 583.209> 758.417 100.212 777.629 61.7891
VStem: 744.364 135.961<353.548 448.961> 780.325 64.0391<345.876 449.158 345.876 543.542>
LayerCount: 2
Fore
SplineSet
137.328125 35.658203125 m 1x54
 164.5703125 27.203125 273.745117188 -14.2998046875 454.954101562 -14.2998046875 c 0
 749.385742188 -14.2998046875 880.325195312 217.71875 880.325195312 450.454101562 c 0
 880.325195312 671.897460938 684.143554688 858.21875 440.692382812 858.62890625 c 0xa8
 347.159179688 858.787109375 281.74609375 840.967773438 244.391601562 826.64453125 c 1
 244.936523438 1176.40039062 l 1
 880 1176.40039062 l 1
 880 1216.90039062 l 1
 880 1257.40039062 l 1
 195 1257.40039062 l 1
 145.063476562 1257.40039062 l 1
 145 1216.95117188 l 1
 144.353515625 802.40625 l 1
 144.321289062 781.622070312 l 1
 165.1484375 769.481445312 l 1
 208.645507812 744.127929688 l 1
 238.913085938 726.485351562 l 1
 268.090820312 744.74609375 l 2
 270.434570312 746.099609375 325.58984375 777.823242188 440.483398438 777.62890625 c 0
 616.467773438 777.333007812 780.325195312 636.630859375 780.325195312 450.454101562 c 0
 780.325195312 231.3046875 663.934570312 66.7001953125 454.954101562 66.7001953125 c 0
 261.287109375 66.7001953125 192.53515625 119.0546875 137.328125 119.0546875 c 1
 137.328125 78.5546875 l 1
 137.328125 35.658203125 l 1x54
137.328125 76.4130859375 m 1
 165.1015625 67.1748046875 267.399414062 25.1826171875 447.805664062 21.9091796875 c 0
 718.612304688 21.9091796875 844.364257812 244.673828125 844.364257812 447.079101562 c 0
 844.364257812 451.237304688 844.298828125 455.368164062 844.169921875 459.471679688 c 0
 836.489257812 704.0234375 602.803710938 843.193359375 422.701171875 839.41796875 c 0x54
 349.221679688 839.108398438 290.396484375 821.625976562 255.625 809.228515625 c 1
 245.993164062 817.270507812 l 1
 277.352539062 1135.90039062 l 1
 880 1135.90039062 l 1
 880 1176.40039062 l 1
 880 1216.90039062 l 1
 231.1796875 1216.90039062 l 1
 185.006835938 1216.90039062 l 1
 181.337890625 1179.61816406 l 1
 144.51171875 805.440429688 l 1
 142.713867188 787.172851562 l 1
 158.466796875 774.020507812 l 1
 209.303710938 731.577148438 l 1
 236.901367188 708.536132812 l 1
 270.836914062 725.01171875 l 2
 272.603515625 725.852539062 343.271484375 758.416992188 424.045898438 758.416992188 c 0
 546.182617188 761.262695312 737.32421875 659.499023438 744.174804688 458.264648438 c 0
 744.30078125 454.571289062 744.364257812 450.842773438 744.364257812 447.079101562 c 0
 744.364257812 260.016601562 632.243164062 103.317382812 448.885742188 102.91015625 c 1
 256.719726562 106.71484375 195.194335938 160.118164062 137.328125 160.118164062 c 1
 137.328125 119.618164062 l 1
 137.328125 76.4130859375 l 1
EndSplineSet
Validated: 37
EndChar

StartChar: six
Encoding: 54 54 24
Width: 1024
GlyphClass: 2
Flags: MW
HStem: -14.2998 109.35 14.0498 52.6494 735.898 82.0088<461.889 472.859 472.859 557.459>
VStem: 129.909 132.646<280.251 431.511 396.121 396.121> 162.556 67.3535<285.395 438.426 285.395 450.862> 762.044 134.403<280.044 512.564 277.157 522.331> 796.447 65.5967<285.178 509.586>
LayerCount: 2
Fore
SplineSet
575.143554688 1276.61425781 m 1x6a
 549.803710938 1246.75292969 337.692382812 1021.08496094 228.038085938 734.681640625 c 0
 218.23046875 709.064453125 208.901367188 681.841796875 200.748046875 654.723632812 c 0
 177.314453125 575.84765625 162.555664062 492.641601562 162.555664062 409.08203125 c 0
 162.555664062 131.455078125 292.575195312 14.0498046875 514.293945312 14.0498046875 c 0
 734.259765625 14.0498046875 862.043945312 131.893554688 862.043945312 409.081054688 c 0
 862.043945312 648.551757812 744.557617188 816.8984375 514.293945312 816.8984375 c 0
 451.821289062 816.8984375 398.75 804.79296875 355.940429688 787.173828125 c 1
 476.041992188 1046.22558594 669.1640625 1205.31640625 669.1640625 1257.40039062 c 1
 619.1640625 1257.40039062 l 1
 575.143554688 1276.61425781 l 1x6a
203.547851562 661.47265625 m 1
 226.430664062 653.317382812 l 2
 249.313476562 645.162109375 248.3984375 645.48828125 249.313476562 645.162109375 c 2
 295.022460938 628.87109375 l 2
 295.525390625 629.655273438 296.01171875 630.413085938 296.485351562 631.147460938 c 1
 293.1484375 633.018554688 203.547851562 661.47265625 203.547851562 661.47265625 c 1
296.485351562 631.147460938 m 1
 302.493164062 640.46875 306.491210938 646.146484375 318.5703125 658.8203125 c 0
 349.83984375 691.626953125 409.484375 735.8984375 514.293945312 735.8984375 c 0
 662.264648438 735.8984375 762.043945312 635.581054688 762.043945312 409.081054688 c 0
 762.043945312 151.006835938 667.794921875 95.0498046875 514.293945312 95.0498046875 c 0
 358.040039062 95.0498046875 262.555664062 151.419921875 262.555664062 409.08203125 c 0xb4
 262.555664062 484.005859375 275.361328125 558.78125 296.580078125 631.06640625 c 0
 296.584960938 631.08203125 296.552734375 631.109375 296.485351562 631.147460938 c 1
519.188476562 1275.51367188 m 1
 490.438476562 1239.85253906 234.155273438 957.453125 153.85546875 602.577148438 c 0
 138.811523438 536.090820312 129.909179688 466.900390625 129.909179688 396.12109375 c 0
 129.909179688 158.071289062 248.522460938 -13.0703125 512.4375 -14.2998046875 c 0
 777.809570312 -15.53515625 896.447265625 158.193359375 896.447265625 396.12109375 c 0
 896.447265625 629.006835938 795.788085938 817.907226562 557.458984375 817.907226562 c 2
 472.859375 817.907226562 l 2
 421.37109375 817.907226562 363.125 800.459960938 308.883789062 765.514648438 c 1
 421.845703125 1041.25 613.8984375 1205.04785156 613.8984375 1257.40039062 c 1
 563.8984375 1257.40039062 l 1
 519.188476562 1275.51367188 l 1
229.909179688 396.12109375 m 2x28
 229.909179688 396.930664062 129.909179688 396.12109375 129.909179688 396.12109375 c 1x30
 229.909179688 396.12109375 l 2x28
229.909179688 396.12109375 m 0x6a
 229.909179688 480.73046875 248.280273438 546.283203125 275.021484375 596.090820312 c 0
 332.068359375 702.341796875 427.756835938 736.907226562 472.859375 736.907226562 c 2
 557.458984375 736.907226562 l 2
 705.301757812 736.907226562 796.447265625 623.051757812 796.447265625 396.12109375 c 0
 796.447265625 174.234375 701.678710938 65.8203125 513.01171875 66.69921875 c 0
 324.262695312 67.578125 229.909179688 174.668945312 229.909179688 396.12109375 c 0x6a
EndSplineSet
Validated: 37
EndChar

StartChar: seven
Encoding: 55 55 25
Width: 1024
GlyphClass: 2
Flags: MW
VStem: 304.678 151.484<2.24121 2.24121 2.24121 198.798> 356.166 48.5117<1.55859 216.812>
LayerCount: 2
Fore
SplineSet
406.1640625 1.900390625 m 1x40
 456.162109375 2.2412109375 l 1x80
 450.861328125 511.96484375 873.33203125 1146.44921875 873.912109375 1147.3125 c 2
 880 1156.36816406 l 1
 880 1166.6796875 l 1
 880 1198.26953125 l 1
 880 1216.90039062 l 1
 880 1257.40039062 l 1
 830 1257.40039062 l 1
 144.353515625 1257.40039062 l 1
 144.353515625 1216.90039062 l 1
 144.353515625 1176.40039062 l 1
 779.729492188 1176.40039062 l 1
 726.885742188 1095.31835938 350.920898438 505.870117188 356.166015625 1.55859375 c 1
 406.1640625 1.900390625 l 1x40
354.677734375 1.900390625 m 1
 404.677734375 1.900390625 l 1x40
 404.677734375 431.723632812 873.647460938 1147.0703125 874.048828125 1147.67480469 c 2
 880 1156.65039062 l 1
 880 1166.83789062 l 1
 880 1176.40039062 l 1
 880 1216.90039062 l 1
 830 1216.90039062 l 1
 144.353515625 1216.90039062 l 1
 144.353515625 1176.40039062 l 1
 144.353515625 1135.90039062 l 1
 753.891601562 1135.90039062 l 1
 647.24609375 965.700195312 304.677734375 395.6953125 304.677734375 1.900390625 c 1
 354.677734375 1.900390625 l 1
EndSplineSet
Validated: 37
EndChar

StartChar: eight
Encoding: 56 56 26
Width: 1024
GlyphClass: 2
Flags: MW
HStem: -14.2998 109.35<438.244 591.699 438.244 612.009> 14.0498 52.6504<436.478 592.829 436.478 620.445> 1150.48 106.92<452.527 465.348 465.348 563.959 410.997 576.142> 1176.4 55.0801<465.348 563.959 563.959 587.693>
VStem: 126.307 133.238<246.032 303.539 246.032 385.618> 158.307 129.192<933.829 1009.42 867.769 1047.33> 159.545 66.7617<225.504 303.176> 187.499 70.8076 741.808 129.192<867.851 934.627 861.186 1009.35> 769.762 133.238<245.965 303.539> 771 70.8076 803 66.7617<225.571 303.176 225.571 374.688>
LayerCount: 2
Fore
SplineSet
514.307617188 590.373046875 m 1x4210
 522.430664062 587.787109375 530.61328125 585.071289062 538.306640625 582.399414062 c 0
 702.12890625 525.487304688 803 440.360351562 803 309.016601562 c 0
 803 121.911132812 671.004882812 66.7001953125 514.653320312 66.7001953125 c 0
 358.301757812 66.7001953125 226.306640625 121.911132812 226.306640625 309.016601562 c 0
 226.306640625 440.673828125 327.036132812 525.830078125 491.181640625 582.698242188 c 0
 498.592773438 585.266601562 506.483398438 587.881835938 514.307617188 590.373046875 c 1x4210
390.314453125 633.4140625 m 1
 237.903320312 567.884765625 126.306640625 462.219726562 126.306640625 309.016601562 c 0
 126.306640625 73.912109375 319.942382812 -14.2998046875 514.653320312 -14.2998046875 c 0
 709.364257812 -14.2998046875 903 73.912109375 903 309.016601562 c 0xa840
 903 461.995117188 790.743164062 567.7578125 638.442382812 633.37890625 c 1
 782.82421875 694.413085938 871 787.745117188 871 934.626953125 c 0
 865.509765625 1160.26367188 673.525390625 1257.40039062 563.958984375 1257.40039062 c 2
 465.34765625 1257.40039062 l 2
 356.646484375 1257.40039062 158.306640625 1160.83007812 158.306640625 933.829101562 c 0xa480
 161.866210938 787.540039062 246.7265625 694.510742188 390.314453125 633.4140625 c 1
514.309570312 676.997070312 m 1
 506.111328125 679.576171875 498.11328125 682.192382812 490.33984375 684.841796875 c 0
 332.568359375 738.618164062 261.811523438 802.662109375 258.306640625 934.641601562 c 0
 258.904296875 1119.2421875 417.53515625 1176.40039062 465.34765625 1176.40039062 c 2
 563.958984375 1176.40039062 l 2
 611.426757812 1176.40039062 765.922851562 1118.65625 771 933.84375 c 0x1120
 770.690429688 803.018554688 696.877929688 738.766601562 538.168945312 684.794921875 c 0
 530.697265625 682.25390625 522.451171875 679.563476562 514.309570312 676.997070312 c 1
514.307617188 590.194335938 m 0
 520.107421875 588.229492188 526.018554688 586.12109375 531.470703125 584.063476562 c 0
 681.669921875 527.392578125 770.970703125 412.63671875 769.76171875 303.5390625 c 0
 769.76171875 188.390625 668.3984375 95.0498046875 515 95.0498046875 c 0
 361.487304688 95.0498046875 259.544921875 188.525390625 259.544921875 303.5390625 c 0x8840
 258.333984375 412.745117188 347.130859375 527.431640625 497.161132812 584.067382812 c 0
 502.608398438 586.123046875 508.512695312 588.23046875 514.307617188 590.194335938 c 0
631.641601562 632.099609375 m 1
 770.943359375 694.408203125 841.807617188 791.926757812 841.807617188 935.923828125 c 0
 841.807617188 1120.92675781 694.443359375 1231.48046875 514.306640625 1231.48046875 c 0
 334.059570312 1231.48046875 187.499023438 1120.79882812 187.499023438 935.923828125 c 0x5120
 187.499023438 791.798828125 257.796875 694.365234375 397.002929688 632.087890625 c 1
 249.12109375 557.423828125 158.125 431.255859375 159.544921875 303.17578125 c 0
 159.544921875 147.83203125 304.223632812 14.0498046875 515 14.0498046875 c 0
 725.890625 14.0498046875 869.76171875 147.966796875 869.76171875 303.17578125 c 0x5210
 871.181640625 431.353515625 779.62109375 557.4765625 631.641601562 632.099609375 c 1
514.306640625 677.057617188 m 0
 507.4765625 679.25 500.692382812 681.514648438 494.338867188 683.73046875 c 0
 347.250976562 735.022460938 287.499023438 799.614257812 287.499023438 935.923828125 c 0
 287.499023438 1082.9140625 390.747070312 1150.48046875 514.306640625 1150.48046875 c 0
 637.9765625 1150.48046875 741.807617188 1082.78515625 741.807617188 935.923828125 c 0x2480
 741.807617188 799.778320312 681.3359375 734.823242188 533.415039062 683.432617188 c 0
 527.33203125 681.319335938 520.833984375 679.153320312 514.306640625 677.057617188 c 0
EndSplineSet
Validated: 41
EndChar

StartChar: nine
Encoding: 57 57 27
Width: 1024
GlyphClass: 2
Flags: MW
HStem: 445.432 98.209<436.472 524.332> 462.641 63.791<408.831 540.412 408.831 544.915> 861.675 5.54297<896.426 896.426> 1168.29 109.35<435.311 471.674 356.734 590.189> 1196.64 52.6504<402.079 471.221>
VStem: 129.909 134.402<749.5 983.295 741.915 984.842> 164.312 65.5977<755.027 979.501 755.027 992.852>
LayerCount: 2
Fore
SplineSet
451.211914062 -13.275390625 m 1x6a
 476.818359375 16.900390625 692.810546875 246.62890625 801.512695312 537.098632812 c 0
 810.086914062 560.0078125 818.331054688 584.409179688 825.608398438 608.616210938 c 0
 849.041992188 687.4921875 863.80078125 770.69921875 863.80078125 854.2578125 c 0
 863.80078125 1131.88476562 733.78125 1249.2890625 512.061523438 1249.2890625 c 0
 292.095703125 1249.2890625 164.311523438 1131.4453125 164.311523438 854.2578125 c 0
 164.311523438 612.973632812 285.005859375 462.640625 512.061523438 462.640625 c 0
 577.767578125 462.640625 633.4140625 474.780273438 677.58203125 491.90625 c 1
 557.9296875 224.765625 357.19140625 58.3125 357.19140625 5.939453125 c 1
 409.19140625 5.939453125 l 1
 451.211914062 -13.275390625 l 1x6a
730.022460938 633.111328125 m 0
 726.828125 628.896484375 720.58984375 621.333984375 711.19921875 612.5390625 c 0
 681.315429688 584.549804688 621.176757812 543.640625 512.061523438 543.640625 c 0
 360.8828125 543.640625 264.311523438 629.571289062 264.311523438 854.2578125 c 0
 264.311523438 1112.33203125 358.560546875 1168.2890625 512.061523438 1168.2890625 c 0xb4
 668.31640625 1168.2890625 763.80078125 1111.91992188 763.80078125 854.2578125 c 0
 763.80078125 779.6875 751.079101562 705.140625 730.022460938 633.111328125 c 0
507.23828125 -12.0869140625 m 1
 535.930664062 23.5029296875 793.858398438 307.732421875 873.26953125 664.18359375 c 0
 887.84765625 729.62109375 896.447265625 797.651367188 896.447265625 867.217773438 c 0
 896.447265625 1100.55371094 784.310546875 1273.65234375 555.243164062 1277.55664062 c 0
 550.728515625 1277.63378906 473.140625 1277.63867188 470.208007812 1277.63867188 c 0
 243.260742188 1277.63867188 129.909179688 1102.46582031 129.909179688 867.217773438 c 0
 129.909179688 631.78125 248.314453125 445.431640625 482.353515625 445.431640625 c 0
 566.309570312 445.431640625 650.390625 463.4609375 720.853515625 506.178710938 c 1
 608.491210938 225.99609375 412.458007812 58.4716796875 412.458007812 5.939453125 c 1
 462.458007812 5.939453125 l 1
 507.23828125 -12.0869140625 l 1
896.42578125 861.674804688 m 2
 896.42578125 863.515625 896.447265625 865.36328125 896.447265625 867.217773438 c 2
 796.447265625 867.217773438 l 2
 796.447265625 865.7265625 796.443359375 864.234375 796.434570312 862.744140625 c 0
 796.4296875 861.93359375 896.42578125 861.674804688 896.42578125 861.674804688 c 2
796.447265625 867.217773438 m 0
 796.447265625 786.096679688 780.969726562 722.737304688 756.16796875 674.446289062 c 0
 700.857421875 566.75390625 598.470703125 526.431640625 482.353515625 526.431640625 c 0
 335.30859375 526.431640625 229.909179688 642.836914062 229.909179688 867.217773438 c 0
 229.909179688 1091.78417969 329.249023438 1196.63867188 470.208007812 1196.63867188 c 0x6a
 472.234375 1196.63867188 546.451171875 1196.60546875 553.38671875 1196.5703125 c 0
 699.08984375 1193.78222656 796.447265625 1089.00488281 796.447265625 867.217773438 c 0
EndSplineSet
Validated: 37
EndChar

StartChar: colon
Encoding: 58 58 28
Width: 416
GlyphClass: 2
Flags: MW
VStem: 150.73 137.77<36.7305 249.843 36.7305 249.843 585.1 798.213>
LayerCount: 2
Fore
SplineSet
238.5 249.842773438 m 1
 188.5 249.842773438 l 1
 188.5 36.73046875 l 1
 238.5 36.73046875 l 1
 288.5 36.73046875 l 1
 288.5 249.842773438 l 1
 238.5 249.842773438 l 1
200.73046875 249.842773438 m 1
 150.73046875 249.842773438 l 1
 150.73046875 36.73046875 l 1
 200.73046875 36.73046875 l 1
 250.73046875 36.73046875 l 1
 250.73046875 249.842773438 l 1
 200.73046875 249.842773438 l 1
238.5 798.212890625 m 1
 188.5 798.212890625 l 1
 188.5 585.099609375 l 1
 238.5 585.099609375 l 1
 288.5 585.099609375 l 1
 288.5 798.212890625 l 1
 238.5 798.212890625 l 1
200.73046875 798.212890625 m 1
 150.73046875 798.212890625 l 1
 150.73046875 585.099609375 l 1
 200.73046875 585.099609375 l 1
 250.73046875 585.099609375 l 1
 250.73046875 798.212890625 l 1
 200.73046875 798.212890625 l 1
EndSplineSet
Validated: 5
EndChar

StartChar: semicolon
Encoding: 59 59 29
Width: 416
GlyphClass: 2
Flags: MW
HStem: 36.7305 2.37695<188.5 200.73 188.5 209.5 209.5 233 233 238.5 200.73 209.5 209.5 233 233 249 249 250.73 238.5 249 249 288.5 250.73 250.73>
LayerCount: 2
Fore
SplineSet
238.5 249.842773438 m 1
 188.5 249.842773438 l 1
 188.5 36.73046875 l 1
 238.5 36.73046875 l 1
 288.5 36.73046875 l 1
 288.5 249.842773438 l 1
 238.5 249.842773438 l 1
200.73046875 249.842773438 m 1
 150.73046875 249.842773438 l 1
 150.73046875 36.73046875 l 1
 200.73046875 36.73046875 l 1
 250.73046875 36.73046875 l 1
 250.73046875 249.842773438 l 1
 200.73046875 249.842773438 l 1
238.5 798.212890625 m 1
 188.5 798.212890625 l 1
 188.5 585.099609375 l 1
 238.5 585.099609375 l 1
 288.5 585.099609375 l 1
 288.5 798.212890625 l 1
 238.5 798.212890625 l 1
200.73046875 798.212890625 m 1
 150.73046875 798.212890625 l 1
 150.73046875 585.099609375 l 1
 200.73046875 585.099609375 l 1
 250.73046875 585.099609375 l 1
 250.73046875 798.212890625 l 1
 200.73046875 798.212890625 l 1
249 39.107421875 m 1
 209.5 39.107421875 l 1
 188.5 39.107421875 l 1
 188.5 28.7421875 l 1
 95.4287109375 -86.599609375 l 1
 137.282226562 -108.7578125 l 1
 179.135742188 -130.915039062 l 1
 280.353515625 -5.4765625 l 1
 288.5 4.619140625 l 1
 288.5 16.6806640625 l 1
 288.5 39.107421875 l 1
 249 39.107421875 l 1
233 39.107421875 m 1
 188.5 39.107421875 l 1
 188.5 28.7529296875 l 1
 95.0654296875 -86.9140625 l 1
 136.905273438 -109.087890625 l 1
 178.745117188 -131.262695312 l 1
 280.33984375 -5.4931640625 l 1
 288.5 4.6083984375 l 1
 288.5 16.6806640625 l 1
 288.5 39.107421875 l 1
 238.5 39.107421875 l 1
 233 39.107421875 l 1
EndSplineSet
Validated: 5
EndChar

StartChar: less
Encoding: 60 60 30
Width: 1024
GlyphClass: 2
Flags: W
LayerCount: 2
Fore
SplineSet
861.4296875 1167.80957031 m 1
 826.307617188 1196.63476562 l 1
 156.689453125 661.322265625 l 1
 120.818359375 632.645507812 l 1
 156.504882812 603.819335938 l 1
 824.6796875 64.0966796875 l 1
 859.986328125 92.7744140625 l 1
 895.29296875 121.452148438 l 1
 262.8046875 632.34765625 l 1
 896.551757812 1138.984375 l 1
 861.4296875 1167.80957031 l 1
844.310546875 1178.9453125 m 1
 807.912109375 1206.71289062 l 1
 172.532226562 660.264648438 l 1
 140.412109375 632.639648438 l 1
 172.356445312 604.881835938 l 1
 806.29296875 54.0224609375 l 1
 842.8671875 81.6376953125 l 1
 879.44140625 109.252929688 l 1
 277.44921875 632.354492188 l 1
 880.708984375 1151.17773438 l 1
 844.310546875 1178.9453125 l 1
EndSplineSet
Validated: 5
EndChar

StartChar: equal
Encoding: 61 61 31
Width: 1024
GlyphClass: 2
Flags: W
LayerCount: 2
Fore
SplineSet
167.48828125 363.311523438 m 1
 167.48828125 322.811523438 l 1
 879.48828125 322.811523438 l 1
 879.48828125 363.311523438 l 1
 879.48828125 403.811523438 l 1
 167.48828125 403.811523438 l 1
 167.48828125 363.311523438 l 1
167.48828125 363.311523438 m 1
 167.48828125 322.811523438 l 1
 879.48828125 322.811523438 l 1
 879.48828125 363.311523438 l 1
 879.48828125 403.811523438 l 1
 167.48828125 403.811523438 l 1
 167.48828125 363.311523438 l 1
167.48828125 638.711914062 m 1
 167.48828125 598.211914062 l 1
 879.48828125 598.211914062 l 1
 879.48828125 638.711914062 l 1
 879.48828125 679.211914062 l 1
 167.48828125 679.211914062 l 1
 167.48828125 638.711914062 l 1
167.48828125 638.711914062 m 1
 167.48828125 598.211914062 l 1
 879.48828125 598.211914062 l 1
 879.48828125 638.711914062 l 1
 879.48828125 679.211914062 l 1
 167.48828125 679.211914062 l 1
 167.48828125 638.711914062 l 1
EndSplineSet
Validated: 5
EndChar

StartChar: greater
Encoding: 62 62 32
Width: 1024
GlyphClass: 2
Flags: W
LayerCount: 2
Fore
SplineSet
174.4296875 1167.80957031 m 1
 139.307617188 1138.984375 l 1
 773.0546875 632.34765625 l 1
 140.56640625 121.452148438 l 1
 175.873046875 92.7744140625 l 1
 211.1796875 64.0966796875 l 1
 879.354492188 603.819335938 l 1
 915.041015625 632.645507812 l 1
 879.169921875 661.322265625 l 1
 209.551757812 1196.63476562 l 1
 174.4296875 1167.80957031 l 1
191.548828125 1178.9453125 m 1
 155.150390625 1151.17773438 l 1
 758.41015625 632.354492188 l 1
 156.41796875 109.252929688 l 1
 192.9921875 81.6376953125 l 1
 229.56640625 54.0224609375 l 1
 863.502929688 604.881835938 l 1
 895.447265625 632.639648438 l 1
 863.327148438 660.264648438 l 1
 227.947265625 1206.71289062 l 1
 191.548828125 1178.9453125 l 1
EndSplineSet
Validated: 5
EndChar

StartChar: question
Encoding: 63 63 33
Width: 928
GlyphClass: 2
Flags: MW
HStem: 1158.58 98.8203<373.426 397.455 397.455 508.815> 1176.4 63.1797<397.455 508.815 508.815 535.214 352.145 559.876>
VStem: 377.702 137.77<1.90039 216.141 1.90039 216.141> 415.472 62.2305<1.90039 216.141 1.90039 216.141> 684.011 136.733<855.93 966.73 808.189 1045.63> 720.744 63.2666
LayerCount: 2
Fore
SplineSet
115.819335938 1078.11035156 m 1x88
 151.174804688 1049.47167969 l 1
 168.750976562 1063.70898438 280.196289062 1176.40039062 397.455078125 1176.40039062 c 2
 508.815429688 1176.40039062 l 2
 610.9375 1176.40039062 716.645507812 1119.91210938 720.744140625 965.946289062 c 1x44
 720.090820312 721.05078125 414.38671875 729.755859375 414.38671875 399.005859375 c 1
 464.38671875 399.005859375 l 1
 514.38671875 399.005859375 l 1
 514.38671875 663.49609375 820.744140625 649.647460938 820.744140625 966.73046875 c 1
 816.154296875 1159.15722656 666.83984375 1257.40039062 508.815429688 1257.40039062 c 2
 397.455078125 1257.40039062 l 2
 222.102539062 1257.40039062 91.3369140625 1116.80859375 80.4638671875 1106.74804688 c 1
 115.819335938 1078.11035156 l 1x88
113.361328125 1082.25292969 m 1
 148.1875 1052.36523438 l 1
 182.5078125 1022.91308594 l 1
 206.259765625 1041.07226562 284.751953125 1158.58007812 462.099609375 1158.58007812 c 0
 575.252929688 1158.58007812 684.010742188 1133.47460938 684.010742188 957.787109375 c 0x88
 684.010742188 754.072265625 377.109375 706.967773438 377.109375 398.625 c 1
 427.109375 398.625 l 1
 477.109375 398.625 l 1
 477.109375 644.577148438 784.010742188 681.1484375 784.010742188 957.787109375 c 0
 784.010742188 1181.8359375 608.329101562 1239.58007812 462.099609375 1239.58007812 c 0
 242.190429688 1239.58007812 130.045898438 1100.84375 113.361328125 1082.25292969 c 1
465.471679688 1.900390625 m 1
 515.471679688 1.900390625 l 1
 515.471679688 216.140625 l 1x20
 465.471679688 216.140625 l 1
 415.471679688 216.140625 l 1
 415.471679688 1.900390625 l 1x10
 465.471679688 1.900390625 l 1
427.702148438 1.900390625 m 1
 477.702148438 1.900390625 l 1
 477.702148438 216.140625 l 1x10
 427.702148438 216.140625 l 1
 377.702148438 216.140625 l 1
 377.702148438 1.900390625 l 1
 427.702148438 1.900390625 l 1
EndSplineSet
Validated: 5
EndChar

StartChar: at
Encoding: 64 64 34
Width: 1368
GlyphClass: 2
Flags: MW
HStem: 230.177 113.231<651.949 770.397> 253.408 66.7686<650.025 766.658 498.724 808.707> 420.528 124.974<621.563 659.443 573.306 712.149> 455.502 55.0264<620.782 667.43 620.782 688.772> 1068.15 119.184<572.115 576.516 576.516 635.042 491.659 664.623> 1097.33 60.8164<576.516 635.042 635.042 670.998> 1274.01 110.375<502.234 812.376> 1294.38 69.625<506.945 813.616>
VStem: 107.146 132.792<666.11 898.187 615.379 961.067> 139.938 67.208<677.592 903.499> 341.889 140.29<717.258 905.528> 382.179 59.71<720.995 908.277 702.241 921.965> 784.175 100.339<944.06 965.012> 1062.43 138.418<880.136 988.213> 1100.85 61.582<880.323 1001.96 714.41 1008.33>
LayerCount: 2
Fore
SplineSet
1065.03417969 330.258789062 m 1x414a
 1065.03417969 383.80859375 l 1
 996.543945312 383.80859375 968.149414062 343.408203125 651.94921875 343.408203125 c 1
 449.283203125 350.427734375 239.938476562 453.908203125 239.938476562 776.850585938 c 0
 239.938476562 1019.5234375 322.890625 1274.00683594 681.578125 1274.00683594 c 0
 943.173828125 1274.00683594 1062.43457031 1110.43554688 1062.43457031 865.990234375 c 0x828c
 1062.43457031 651.352539062 991.369140625 558.55859375 964.672851562 530.624023438 c 1
 857.713867188 530.5390625 l 1
 857.713867188 1041.94238281 l 1
 857.713867188 1177.44628906 l 1
 807.713867188 1177.44628906 l 1
 757.713867188 1177.44628906 l 1
 757.713867188 1041.94238281 l 1
 757.713867188 485.5 l 1
 757.713867188 440.459960938 l 1
 807.7578125 440.5 l 1
 985.456054688 440.640625 l 1
 1002.68554688 440.654296875 l 1
 1016.25 450.21875 l 2
 1028.00390625 458.506835938 1162.43457031 562.829101562 1162.43457031 865.990234375 c 0
 1162.43457031 1137.93652344 1011.70117188 1364.00683594 681.578125 1364.00683594 c 0
 239.796875 1364.00683594 139.938476562 1030.14746094 139.938476562 776.850585938 c 0
 139.938476562 404.984375 401.26171875 262.025390625 650.025390625 253.408203125 c 1
 967.387695312 253.408203125 1054.28808594 293.80859375 1065.03417969 293.80859375 c 1
 1065.03417969 330.258789062 l 1x414a
1064.80078125 311.556640625 m 1
 1064.80078125 362.856445312 l 1
 1009.10742188 362.856445312 852.790039062 320.176757812 680.526367188 320.176757812 c 0
 316.920898438 320.176757812 207.146484375 565.14453125 207.146484375 790.040039062 c 0
 207.146484375 1106.36816406 344.776367188 1294.38183594 669.114257812 1294.38183594 c 0
 958.118164062 1294.38183594 1100.85253906 1136.33300781 1100.85253906 880.323242188 c 0x414a
 1099.91601562 678.1171875 1026.515625 567.2734375 996.873046875 530.356445312 c 1
 884.616210938 530.356445312 l 1
 884.616210938 541.126953125 l 1
 884.616210938 1041.94238281 l 1
 884.616210938 1177.44628906 l 2
 883.616210938 1177.44628906 784.616210938 1178.34570312 784.616210938 1177.44628906 c 2
 784.616210938 1041.94238281 l 1
 784.616210938 541.126953125 l 1
 784.616210938 485.356445312 l 1
 784.616210938 440.356445312 l 1
 834.616210938 440.356445312 l 1
 1018.34082031 440.356445312 l 1
 1019.578125 440.356445312 l 1
 1020.81445312 440.411132812 l 1
 1023.41699219 440.52734375 l 1
 1043.33300781 441.415039062 l 1
 1057.10546875 454.395507812 l 2
 1064.10449219 460.9921875 1199.5234375 593.346679688 1200.85253906 880.135742188 c 0
 1200.85253906 1173.93359375 1015.84277344 1384.38183594 669.114257812 1384.38183594 c 0
 277.159179688 1384.38183594 107.146484375 1132.09375 107.146484375 790.040039062 c 0
 107.146484375 542.180664062 243.145507812 230.176757812 680.526367188 230.176757812 c 0
 860.268554688 230.176757812 1042.99316406 272.145507812 1064.80078125 272.853515625 c 1
 1064.80078125 311.556640625 l 1
807.513671875 944.059570312 m 1
 884.513671875 944.059570312 l 1
 884.513671875 985.96484375 808.520507812 1187.33007812 635.041992188 1187.33007812 c 2
 576.515625 1187.33007812 l 2
 406.801757812 1187.33007812 341.888671875 1003.25195312 341.888671875 807.803710938 c 0
 341.888671875 586.122070312 442.638671875 418.008789062 621.563476562 420.528320312 c 0x2828
 802.735351562 420.528320312 880.196289062 609.881835938 880.196289062 609.881835938 c 1
 788.002929688 644.741210938 l 1
 783.765625 635.665039062 714.077148438 510.528320312 620.782226562 510.528320312 c 0
 531.552734375 509.271484375 441.888671875 596.678710938 441.888671875 807.803710938 c 0
 441.888671875 1008.75 513.266601562 1097.33007812 576.515625 1097.33007812 c 2
 635.041992188 1097.33007812 l 2x1418
 706.953125 1097.33007812 777.744140625 975.5078125 784.174804688 944.059570312 c 1
 807.513671875 944.059570312 l 1
800.788085938 1012.99707031 m 1
 807.740234375 1016.56054688 l 1
 851.188476562 1038.82910156 l 2
 849.295898438 1041.82128906 776.974609375 1158.14648438 616.6015625 1158.14648438 c 0
 442.611328125 1158.14648438 382.178710938 1032.5390625 382.178710938 811.390625 c 0
 382.178710938 630.599609375 429.57421875 455.501953125 615.603515625 455.501953125 c 0x1418
 761.940429688 455.501953125 845.8984375 558.1328125 847.782226562 560.349609375 c 2
 808.059570312 587.6796875 l 1
 768.336914062 615.009765625 l 2
 765.936523438 612.182617188 703.283203125 545.501953125 615.603515625 545.501953125 c 0
 531.0078125 545.501953125 482.178710938 623.125976562 482.178710938 811.390625 c 0
 482.178710938 1031.38183594 527.62890625 1068.14648438 616.6015625 1068.14648438 c 0
 712.643554688 1068.14648438 762.0390625 997.6875 764.288085938 994.290039062 c 1
 800.788085938 1012.99707031 l 1
EndSplineSet
Validated: 37
EndChar

StartChar: A
Encoding: 65 65 35
Width: 1296
GlyphClass: 2
Flags: MW
HStem: 1156.4 20G<632.388 664.106 664.106 664.106>
LayerCount: 2
Fore
SplineSet
1138.64648438 1.900390625 m 1
 1215.64648438 1.900390625 l 1
 1215.64648438 41.6083984375 750.495117188 1223.97363281 748.54296875 1229.01757812 c 2
 737.555664062 1257.40039062 l 1
 558.938476562 1257.40039062 l 1
 547.951171875 1229.01757812 l 2
 545.998046875 1223.97265625 80.84765625 41.6103515625 80.84765625 1.900390625 c 1
 182.2734375 1.900390625 l 1
 200.856445312 61.08984375 564.997070312 1002.20507812 632.387695312 1176.40039062 c 1
 664.106445312 1176.40039062 l 1
 732.197265625 1000.39746094 1095.63574219 61.095703125 1114.22070312 1.900390625 c 1
 1138.64648438 1.900390625 l 1
1107.27929688 1.900390625 m 1
 1157.64648438 1.900390625 l 1
 1157.64648438 54.916015625 718.466796875 1223.82910156 716.727539062 1228.52832031 c 2
 706.043945312 1257.40039062 l 1
 668.833007812 1257.40039062 l 1
 647.745117188 1257.40039062 l 1
 627.661132812 1257.40039062 l 1
 590.395507812 1257.40039062 l 1
 579.74609375 1228.47363281 l 2
 577.971679688 1223.65429688 138.84765625 48.9599609375 138.84765625 1.900390625 c 1
 189.307617188 1.900390625 l 1
 239.767578125 1.900390625 l 1
 255.383789062 60.771484375 555.905273438 879.74609375 648.313476562 1131.19238281 c 1
 741.109375 879.875976562 1041.47167969 64.232421875 1056.91113281 1.900390625 c 1
 1107.27929688 1.900390625 l 1
357.204101562 482.573242188 m 1
 357.204101562 442.073242188 l 1
 938.711914062 442.073242188 l 1
 938.711914062 482.573242188 l 1
 938.711914062 523.073242188 l 1
 357.204101562 523.073242188 l 1
 357.204101562 482.573242188 l 1
311.965820312 482.573242188 m 1
 311.965820312 442.073242188 l 1
 984.84765625 442.073242188 l 1
 984.84765625 482.573242188 l 1
 984.84765625 523.073242188 l 1
 311.965820312 523.073242188 l 1
 311.965820312 482.573242188 l 1
EndSplineSet
Validated: 5
EndChar

StartChar: B
Encoding: 66 66 36
Width: 1304
GlyphClass: 2
Flags: MW
HStem: 1.90039 113.338<162.133 302.122 302.122 302.122 302.122 768.608> 34.2227 48.6777<252.143 768.608> 625.6 81<262.133 622.657 302.122 622.657 622.657 634.582 622.657 634.657 634.582 634.657> 1148.05 111.585<302.122 719.221 719.221 721.297> 1178.63 50.415<262.133 719.221>
VStem: 992.203 152.514<957.896 1000.67> 1044.72 47.4863 1053.82 154.399<374.099 439.571 259.569 454.67> 1108.22 45.6006
LayerCount: 2
Fore
SplineSet
162.1328125 666.020507812 m 1xb4
 162.1328125 42.400390625 l 1
 162.1328125 1.900390625 l 1
 212.1328125 1.900390625 l 1
 768.608398438 1.900390625 l 2
 1094.55175781 1.900390625 1208.21679688 167.041015625 1208.21679688 352.09765625 c 0xb1
 1208.21679688 527.044921875 1098.64453125 629.080078125 933.689453125 673.633789062 c 1
 1055.38769531 720.328125 1144.71679688 808.484375 1144.71679688 947.1953125 c 0
 1144.71679688 1124.66601562 1002.86523438 1259.63476562 721.296875 1259.63476562 c 2
 212.1328125 1259.63476562 l 1
 162.1328125 1259.63476562 l 1
 162.1328125 1219.13476562 l 1
 162.1328125 666.020507812 l 1xb4
262.1328125 706.599609375 m 1
 262.1328125 1178.63476562 l 1
 721.296875 1178.63476562 l 2
 955.580078125 1178.63476562 1044.71679688 1083.14941406 1044.71679688 947.1953125 c 0x2a
 1044.71679688 800.979492188 927.086914062 739.060546875 765.27734375 715.990234375 c 0
 719.395507812 709.448242188 670.80078125 706.599609375 622.657226562 706.599609375 c 2
 262.1328125 706.599609375 l 1
262.1328125 625.599609375 m 1
 622.657226562 625.599609375 l 2
 677.01953125 625.599609375 728.249023438 623.517578125 775.309570312 618.818359375 c 0
 987.541015625 597.625976562 1108.21679688 531.798828125 1108.21679688 352.09765625 c 0
 1108.21679688 196.518554688 1036.54199219 82.900390625 768.608398438 82.900390625 c 2
 262.1328125 82.900390625 l 1x6080
 262.1328125 625.599609375 l 1
302.122070312 706.599609375 m 1
 302.122070312 1148.04980469 l 1
 719.220703125 1148.04980469 l 2
 917.698242188 1148.04980469 992.203125 1043.44824219 992.203125 957.895507812 c 0x34
 995.491210938 816.443359375 880.967773438 743.102539062 742.483398438 716.6953125 c 0
 709.720703125 710.447265625 676.021484375 707.158203125 643.34375 706.666015625 c 0
 640.439453125 706.622070312 637.543945312 706.599609375 634.657226562 706.599609375 c 2
 302.122070312 706.599609375 l 1
302.122070312 625.599609375 m 1
 634.58203125 625.599609375 l 2
 676.6953125 625.599609375 717.318359375 623.643554688 755.3984375 619.412109375 c 0
 936.840820312 599.254882812 1053.81738281 535.2421875 1053.81738281 374.098632812 c 0
 1056.90039062 211.6015625 981.549804688 118.327148438 737.801757812 115.439453125 c 0
 734.287109375 115.397460938 730.736328125 115.376953125 727.1484375 115.376953125 c 2
 302.122070312 115.23828125 l 1xa1
 302.122070312 625.599609375 l 1
892.189453125 676.694335938 m 1
 1008.37597656 728.388671875 1094.96386719 822.041015625 1092.203125 958.685546875 c 0
 1091.78808594 1084.3828125 972.655273438 1229.04980469 719.220703125 1229.04980469 c 2
 252.122070312 1229.04980469 l 1
 202.122070312 1229.04980469 l 1
 202.122070312 1188.54980469 l 1
 202.122070312 666.874023438 l 1
 202.122070312 74.72265625 l 1
 202.122070312 34.2060546875 l 1
 252.142578125 34.22265625 l 1
 727.1484375 34.376953125 l 2
 1032.06933594 34.376953125 1157.25683594 177.040039062 1153.81738281 374.706054688 c 0x6a80
 1153.421875 538.84375 1043.37597656 634.666992188 892.189453125 676.694335938 c 1
EndSplineSet
Validated: 37
EndChar

StartChar: C
Encoding: 67 67 37
Width: 1360
GlyphClass: 2
Flags: MW
HStem: -11.2627 118.121<566.163 827.089 566.163 890.685> 25.8584 43.8789<552.21 854.257> 1146.83 112.019<559.75 660.987 660.987 768.701 459.237 834.688> 1177.85 49.9814<660.987 768.701 768.701 861.016 520.028 880.067>
VStem: 121.815 141.419<483.825 790.059> 163.234 58.5811<476.867 787.252 453.575 800.74> 1099 160<341.858 467.65> 1159 40<347.644 467.65>
LayerCount: 2
Fore
SplineSet
1145 824.969726562 m 1xaa
 1195 824.969726562 l 1
 1195 1066.13964844 1018.77148438 1227.83105469 703.259765625 1227.83105469 c 0
 336.795898438 1227.83105469 163.234375 974.712890625 163.234375 626.766601562 c 0
 163.234375 326.967773438 338.922851562 25.8583984375 706.793945312 25.8583984375 c 0
 1001.71972656 25.8583984375 1199 180.651367188 1199 467.650390625 c 1x55
 1149 467.650390625 l 1
 1099 467.650390625 l 1
 1099 216.065429688 947.383789062 106.858398438 706.793945312 106.858398438 c 0
 425.532226562 106.858398438 263.234375 340.883789062 263.234375 626.766601562 c 0
 263.234375 959.754882812 416.241210938 1146.83105469 703.259765625 1146.83105469 c 0
 966.115234375 1146.83105469 1095 1028.86230469 1095 824.969726562 c 1
 1145 824.969726562 l 1xaa
1205 824.969726562 m 1
 1255 824.969726562 l 1
 1255 1066.29003906 1054.71777344 1258.84960938 768.701171875 1258.84960938 c 2
 660.987304688 1258.84960938 l 2
 257.486328125 1258.84960938 121.815429688 953.176757812 121.815429688 626.940429688 c 0
 121.815429688 263.108398438 318.440429688 -11.2626953125 707.259765625 -11.2626953125 c 0
 1074.11035156 -11.2626953125 1259 196.24609375 1259 467.650390625 c 1xaa
 1209 467.650390625 l 1
 1159 467.650390625 l 1
 1159 227.637695312 1013.32519531 69.7373046875 707.259765625 69.7373046875 c 0
 397.161132812 69.7373046875 221.815429688 280.209960938 221.815429688 626.940429688 c 0
 221.815429688 947.564453125 346.982421875 1177.84960938 660.987304688 1177.84960938 c 2
 768.701171875 1177.84960938 l 2
 991.432617188 1177.84960938 1155 1030.86425781 1155 824.969726562 c 1
 1205 824.969726562 l 1
EndSplineSet
Validated: 5
EndChar

StartChar: D
Encoding: 68 68 38
Width: 1328
GlyphClass: 2
Flags: MW
HStem: 1.90039 117.449<162.133 507.197 302.122 464.101 464.101 507.197 302.122 635.16> 38.3496 44.5508<202.122 464.101 262.133 464.101 262.133 507.197 262.133 720.423> 1148.05 111.585<302.122 468.652> 1178.63 50.415<262.133 468.652 468.652 499.118>
VStem: 1046.67 157.792<636.52 654.03> 1104.47 42.208
LayerCount: 2
Fore
SplineSet
468.65234375 1178.63476562 m 2x54
 759.569335938 1178.63476562 1104.46679688 1107.15332031 1104.46679688 636.552734375 c 0
 1103.54003906 179.045898438 773.626953125 82.900390625 464.100585938 82.900390625 c 2
 262.1328125 82.900390625 l 1
 262.1328125 1178.63476562 l 1
 468.65234375 1178.63476562 l 2x54
468.65234375 1259.63476562 m 2xa8
 212.1328125 1259.63476562 l 1
 162.1328125 1259.63476562 l 1
 162.1328125 1219.13476562 l 1
 162.1328125 42.400390625 l 1
 162.1328125 1.900390625 l 1
 212.1328125 1.900390625 l 1
 464.100585938 1.900390625 l 2
 806.21875 1.900390625 1203.43847656 128.770507812 1204.46679688 636.51953125 c 0
 1204.46679688 1160.70898438 785.631835938 1259.63476562 468.65234375 1259.63476562 c 2xa8
499.118164062 1148.04980469 m 2
 895.138671875 1148.04980469 1046.96191406 946.298828125 1046.82714844 668.528320312 c 0
 1046.82421875 663.611328125 1046.78417969 659.532226562 1046.67480469 654.030273438 c 0
 1046.67480469 321.971679688 865.407226562 119.349609375 507.197265625 119.349609375 c 2
 302.122070312 119.349609375 l 1
 302.122070312 1148.04980469 l 1
 499.118164062 1148.04980469 l 2
499.118164062 1229.04980469 m 2x54
 252.122070312 1229.04980469 l 1
 202.122070312 1229.04980469 l 1
 202.122070312 1188.54980469 l 1
 202.122070312 78.849609375 l 1
 202.122070312 38.349609375 l 1
 252.122070312 38.349609375 l 1
 507.197265625 38.349609375 l 2
 933.6484375 38.349609375 1146.34277344 297.532226562 1146.67480469 653.377929688 c 0
 1146.78808594 659.3125 1146.82421875 663.329101562 1146.82714844 668.497070312 c 0
 1146.97558594 974.091796875 958.32421875 1229.04980469 499.118164062 1229.04980469 c 2x54
EndSplineSet
Validated: 41
EndChar

StartChar: E
Encoding: 69 69 39
Width: 1160
GlyphClass: 2
Flags: MW
VStem: 251.981 10.1514<629.205 669.705 629.205 629.205 669.705 710.205>
LayerCount: 2
Fore
SplineSet
1000 42.400390625 m 1
 1000 82.900390625 l 1
 262.1328125 82.900390625 l 1
 262.1328125 1178.63476562 l 1
 1000 1178.63476562 l 1
 1000 1219.13476562 l 1
 1000 1259.63476562 l 1
 212.1328125 1259.63476562 l 1
 162.1328125 1259.63476562 l 1
 162.1328125 1219.13476562 l 1
 162.1328125 42.400390625 l 1
 162.1328125 1.900390625 l 1
 212.1328125 1.900390625 l 1
 1000 1.900390625 l 1
 1000 42.400390625 l 1
1000 74.876953125 m 1
 999.987304688 115.376953125 l 1
 302.122070312 115.232421875 l 1
 302.122070312 1148.04980469 l 1
 1000 1148.04980469 l 1
 1000 1188.54980469 l 1
 1000 1229.04980469 l 1
 252.122070312 1229.04980469 l 1
 202.122070312 1229.04980469 l 1
 202.122070312 1188.54980469 l 1
 202.122070312 74.72265625 l 1
 202.122070312 34.2119140625 l 1
 252.134765625 34.22265625 l 1
 1000.01269531 34.376953125 l 1
 1000 74.876953125 l 1
251.981445312 669.705078125 m 1
 251.981445312 629.205078125 l 1
 919.794921875 629.205078125 l 1
 919.794921875 669.705078125 l 1
 919.794921875 710.205078125 l 1
 251.981445312 710.205078125 l 1
 251.981445312 669.705078125 l 1
225.524414062 710.005859375 m 1
 212.180664062 669.705078125 l 1
 199.228515625 630.587890625 l 1
 229.34765625 624.044921875 913.356445312 629.200195312 919.84765625 629.205078125 c 1
 919.794921875 669.705078125 l 1
 919.7421875 710.205078125 l 1
 919.7421875 710.205078125 262.709960938 709.498046875 225.524414062 710.005859375 c 1
EndSplineSet
Validated: 37
EndChar

StartChar: F
Encoding: 70 70 40
Width: 1128
GlyphClass: 2
Flags: MW
VStem: 252.071 10.0615<629.205 669.705 629.205 629.205 669.705 710.205>
LayerCount: 2
Fore
SplineSet
212.1328125 1.900390625 m 1
 262.1328125 1.900390625 l 1
 262.1328125 1178.63476562 l 1
 1000 1178.63476562 l 1
 1000 1219.13476562 l 1
 1000 1259.63476562 l 1
 212.1328125 1259.63476562 l 1
 162.1328125 1259.63476562 l 1
 162.1328125 1219.13476562 l 1
 162.1328125 1.900390625 l 1
 212.1328125 1.900390625 l 1
252.122070312 1.900390625 m 1
 302.122070312 1.900390625 l 1
 302.122070312 1148.04980469 l 1
 1000 1148.04980469 l 1
 1000 1188.54980469 l 1
 1000 1229.04980469 l 1
 252.122070312 1229.04980469 l 1
 202.122070312 1229.04980469 l 1
 202.122070312 1188.54980469 l 1
 202.122070312 1.900390625 l 1
 252.122070312 1.900390625 l 1
252.071289062 669.705078125 m 1
 252.071289062 629.205078125 l 1
 888.717773438 629.205078125 l 1
 888.717773438 669.705078125 l 1
 888.717773438 710.205078125 l 1
 252.071289062 710.205078125 l 1
 252.071289062 669.705078125 l 1
212.180664062 669.70703125 m 1
 212.180664062 629.20703125 l 1
 889.185546875 629.20703125 l 1
 889.185546875 669.70703125 l 1
 889.185546875 710.20703125 l 1
 212.180664062 710.20703125 l 1
 212.180664062 669.70703125 l 1
EndSplineSet
Validated: 5
EndChar

StartChar: G
Encoding: 71 71 41
Width: 1392
GlyphClass: 2
Flags: MW
HStem: -11.2627 118.121<566.163 800.702 566.163 888.026> 25.8584 43.8789<552.21 814.749> 1161.12 97.7285<560.586 660.987 660.987 768.701> 1177.85 64.2715<660.987 768.701 768.701 860.455 519.192 883.64>
VStem: 121.815 141.419<483.825 790.059> 163.234 58.5811<476.867 787.252 453.575 800.248> 1093.27 139.989<213.452 216.597 213.452 213.452 216.597 548.65> 1133.26 60.0107<201.979 217.65 219.738 548.65 291.014 375.449> 1133.26 100<1.90039 11.7466 1.90039 11.7466 1.90039 11.7466 11.7466 548.65 291.014 375.449>
LayerCount: 2
Fore
SplineSet
1183.25683594 1.900390625 m 1x01
 1233.25683594 1.900390625 l 1x0080
 1233.25683594 21.5927734375 1198.70410156 191.512695312 1193.26757812 219.73828125 c 1
 1193.26757812 589.150390625 l 1
 1193.26757812 629.650390625 l 1x01
 1143.26757812 629.650390625 l 1
 785 629.650390625 l 1
 785 589.150390625 l 1
 785 548.650390625 l 1
 1093.26757812 548.650390625 l 1
 1093.26757812 216.596679688 l 1
 1093.26757812 213.452148438 l 1x02
 1093.8671875 210.344726562 l 1
 1093.8671875 210.344726562 1131.23632812 16.73046875 1133.25683594 1.900390625 c 1
 1183.25683594 1.900390625 l 1x01
1183.25683594 1.900390625 m 1
 1233.25683594 1.900390625 l 1
 1233.25683594 589.150390625 l 1
 1233.25683594 629.650390625 l 1x0080
 1183.25683594 629.650390625 l 1
 785 629.650390625 l 1
 785 589.150390625 l 1
 785 548.650390625 l 1
 1133.25683594 548.650390625 l 1
 1133.25683594 1.900390625 l 1x01
 1183.25683594 1.900390625 l 1
1187.93164062 916.921875 m 1
 1237.93164062 916.921875 l 1
 1237.93164062 1097.63574219 1047.57128906 1258.84960938 768.701171875 1258.84960938 c 2
 660.987304688 1258.84960938 l 2
 257.486328125 1258.84960938 121.815429688 953.176757812 121.815429688 626.940429688 c 0
 121.815429688 263.108398438 318.440429688 -11.2626953125 707.259765625 -11.2626953125 c 0
 1068.79296875 -11.2626953125 1233.25683594 166.78125 1233.25683594 375.44921875 c 1xa880
 1183.25683594 375.44921875 l 1
 1133.25683594 375.44921875 l 1
 1133.25683594 206.578125 1018.64257812 69.7373046875 707.259765625 69.7373046875 c 0
 397.161132812 69.7373046875 221.815429688 280.209960938 221.815429688 626.940429688 c 0
 221.815429688 947.564453125 346.982421875 1177.84960938 660.987304688 1177.84960938 c 2
 768.701171875 1177.84960938 l 2x55
 998.579101562 1177.84960938 1137.93164062 1049.22167969 1137.93164062 916.921875 c 1
 1187.93164062 916.921875 l 1
1094.08496094 224.953125 m 2
 1091.91210938 222.245117188 1086.640625 216.896484375 1078.74511719 210.661132812 c 0
 1029.3359375 171.63671875 894.609375 106.858398438 706.793945312 106.858398438 c 0
 425.532226562 106.858398438 263.234375 340.883789062 263.234375 626.766601562 c 0
 263.234375 960.739257812 417.912109375 1161.12109375 703.259765625 1161.12109375 c 0xa9
 967.236328125 1161.12109375 1081 1018.70019531 1081 916.299804688 c 1
 1181 916.299804688 l 1
 1181 1065.72265625 1017.65039062 1242.12109375 703.259765625 1242.12109375 c 0
 335.125 1242.12109375 163.234375 973.728515625 163.234375 626.766601562 c 0
 163.234375 326.967773438 338.922851562 25.8583984375 706.793945312 25.8583984375 c 0
 922.703125 25.8583984375 1079.11914062 97.8232421875 1148.55761719 152.666992188 c 0
 1169.59863281 169.28515625 1193.26757812 186.306640625 1193.26757812 217.650390625 c 1x55
 1143.26757812 217.650390625 l 1
 1094.08496094 224.953125 l 2
EndSplineSet
Validated: 5
EndChar

StartChar: H
Encoding: 72 72 42
Width: 1312
GlyphClass: 2
Flags: MW
VStem: 251.204 10.9287<642.953 683.453 642.953 642.953 683.453 723.953> 1044.12 10.5898<642.953 683.453 683.453 723.953>
LayerCount: 2
Fore
SplineSet
212.1328125 1257.40039062 m 1
 162.1328125 1257.40039062 l 1
 162.1328125 1.900390625 l 1
 212.1328125 1.900390625 l 1
 262.1328125 1.900390625 l 1
 262.1328125 1257.40039062 l 1
 212.1328125 1257.40039062 l 1
252.122070312 1257.40039062 m 1
 202.122070312 1257.40039062 l 1
 202.122070312 1.900390625 l 1
 252.122070312 1.900390625 l 1
 302.122070312 1.900390625 l 1
 302.122070312 1257.40039062 l 1
 252.122070312 1257.40039062 l 1
1054.1328125 1257.40039062 m 1
 1004.1328125 1257.40039062 l 1
 1004.1328125 1.900390625 l 1
 1054.1328125 1.900390625 l 1
 1104.1328125 1.900390625 l 1
 1104.1328125 1257.40039062 l 1
 1054.1328125 1257.40039062 l 1
1094.12207031 1257.40039062 m 1
 1044.12207031 1257.40039062 l 1
 1044.12207031 1.900390625 l 1
 1094.12207031 1.900390625 l 1
 1144.12207031 1.900390625 l 1
 1144.12207031 1257.40039062 l 1
 1094.12207031 1257.40039062 l 1
251.204101562 683.453125 m 1
 251.204101562 642.953125 l 1
 1054.71191406 642.953125 l 1
 1054.71191406 683.453125 l 1
 1054.71191406 723.953125 l 1
 251.204101562 723.953125 l 1
 251.204101562 683.453125 l 1
211.965820312 683.453125 m 1
 211.965820312 642.953125 l 1
 1092.84765625 642.953125 l 1
 1092.84765625 683.453125 l 1
 1092.84765625 723.953125 l 1
 211.965820312 723.953125 l 1
 211.965820312 683.453125 l 1
EndSplineSet
Validated: 5
EndChar

StartChar: I
Encoding: 73 73 43
Width: 504
GlyphClass: 2
Flags: MW
HStem: 78.8496 4.05078<41.4199 454.85 214.122 264.122 264.122 314.122 314.122 314.122 41.4199 454.85> 1176.4 12.1494<214.122 264.122 264.122 314.122>
VStem: 41.4199 413.43<1.90039 42.4004 1.90039 42.4004 38.3496 38.3496 38.3496 42.4004 42.4004 78.8496 42.4004 78.8496 78.8496 82.9004 78.8496 82.9004 82.9004 119.35 1148.05 1188.55 1176.4 1176.4 1176.4 1188.55 1188.55 1216.9 1188.55 1216.9 1216.9 1229.05 1216.9 1229.05 1229.05 1257.4>
LayerCount: 2
Fore
SplineSet
228.1328125 1216.90039062 m 1
 178.1328125 1216.90039062 l 1
 178.1328125 42.400390625 l 1
 228.1328125 42.400390625 l 1
 278.1328125 42.400390625 l 1
 278.1328125 1216.90039062 l 1
 228.1328125 1216.90039062 l 1
264.122070312 1188.54980469 m 1
 214.122070312 1188.54980469 l 1
 214.122070312 78.849609375 l 1
 264.122070312 78.849609375 l 1
 314.122070312 78.849609375 l 1
 314.122070312 1188.54980469 l 1
 264.122070312 1188.54980469 l 1
41.419921875 42.400390625 m 1
 41.419921875 1.900390625 l 1
 454.849609375 1.900390625 l 1
 454.849609375 42.400390625 l 1
 454.849609375 82.900390625 l 1
 41.419921875 82.900390625 l 1
 41.419921875 42.400390625 l 1
41.419921875 78.849609375 m 1
 41.419921875 38.349609375 l 1
 454.849609375 38.349609375 l 1
 454.849609375 78.849609375 l 1
 454.849609375 119.349609375 l 1
 41.419921875 119.349609375 l 1
 41.419921875 78.849609375 l 1
41.419921875 1188.54980469 m 1
 41.419921875 1148.04980469 l 1
 454.849609375 1148.04980469 l 1
 454.849609375 1188.54980469 l 1
 454.849609375 1229.04980469 l 1
 41.419921875 1229.04980469 l 1
 41.419921875 1188.54980469 l 1
41.419921875 1216.90039062 m 1
 41.419921875 1176.40039062 l 1
 454.849609375 1176.40039062 l 1
 454.849609375 1216.90039062 l 1
 454.849609375 1257.40039062 l 1
 41.419921875 1257.40039062 l 1
 41.419921875 1216.90039062 l 1
EndSplineSet
Validated: 5
EndChar

StartChar: J
Encoding: 74 74 44
Width: 1112
GlyphClass: 2
Flags: MW
HStem: -14.3018 117.444 22.1572 44.5459
VStem: 806.789 136.166<289.915 1257.4 443.528 1257.4 443.528 1257.4> 842.955 63.834<441.895 1257.4 441.895 441.895>
LayerCount: 2
Fore
SplineSet
118 83.4609375 m 1x50
 118 40.75390625 l 1
 146.418945312 32.4443359375 273.719726562 -13.9736328125 437.234375 -14.3017578125 c 1
 622.146484375 -8.3056640625 961.899414062 51.2080078125 942.955078125 443.528320312 c 1
 942.955078125 1257.40039062 l 1xa0
 842.955078125 1257.40039062 l 1
 842.955078125 441.89453125 l 1
 859.705078125 107.341796875 600.150390625 72.201171875 435.364257812 66.703125 c 1
 271.861328125 67.369140625 169.369140625 123.9609375 118 123.9609375 c 1
 118 83.4609375 l 1x50
102.6953125 91.2060546875 m 1
 128.661132812 82.3876953125 291.333007812 19.7021484375 447.536132812 22.1572265625 c 0
 673.083007812 25.7041015625 906.7890625 110.572265625 906.7890625 421.909179688 c 2
 906.7890625 1257.40039062 l 1x50
 806.7890625 1257.40039062 l 1
 806.7890625 421.909179688 l 2
 806.7890625 157.919921875 638.500976562 106.17578125 445.596679688 103.142578125 c 0
 298.142578125 100.82421875 168.303710938 170.265625 118 170.265625 c 1
 118 128.145507812 l 2
 118 127.334960938 102.6953125 91.2060546875 102.6953125 91.2060546875 c 1
EndSplineSet
Validated: 37
EndChar

StartChar: K
Encoding: 75 75 45
Width: 1224
GlyphClass: 2
Flags: W
LayerCount: 2
Fore
SplineSet
252.5 1.900390625 m 1
 302.5 1.900390625 l 1
 302.5 1257.40039062 l 1
 252.5 1257.40039062 l 1
 202.5 1257.40039062 l 1
 202.5 1.900390625 l 1
 252.5 1.900390625 l 1
214.73046875 1.900390625 m 1
 264.73046875 1.900390625 l 1
 264.73046875 1257.40039062 l 1
 214.73046875 1257.40039062 l 1
 164.73046875 1257.40039062 l 1
 164.73046875 1.900390625 l 1
 214.73046875 1.900390625 l 1
1003.42382812 1257.40039062 m 1
 251.883789062 618.528320312 l 1
 251.883789062 578.028320312 l 1
 303.103515625 578.028320312 1056.42382812 1215.49316406 1056.42382812 1257.40039062 c 1
 1003.42382812 1257.40039062 l 1
1054.42382812 1257.40039062 m 1
 215.446289062 563.239257812 l 1
 215.446289062 522.739257812 l 1
 269.624023438 522.739257812 1104.42382812 1216.27246094 1104.42382812 1257.40039062 c 1
 1054.42382812 1257.40039062 l 1
1006.14746094 1.900390625 m 1
 1056.14746094 1.900390625 l 1
 1056.14746094 58.4814453125 508.215820312 813.166992188 506.21875 816.014648438 c 2
 419.267578125 776.006835938 l 1
 419.267578125 776.006835938 920.760742188 60.025390625 957.7890625 -8.470703125 c 1
 1006.14746094 1.900390625 l 1
1054.60839844 1.900390625 m 1
 1104.60839844 1.900390625 l 1
 1104.60839844 49.2822265625 538.796875 808.280273438 536.701171875 811.1953125 c 2
 450.2890625 770.4296875 l 1
 450.2890625 770.4296875 972.853515625 43.375 1007.93554688 -12.6474609375 c 1
 1054.60839844 1.900390625 l 1
EndSplineSet
Validated: 5
EndChar

StartChar: L
Encoding: 76 76 46
Width: 1104
GlyphClass: 2
Flags: W
LayerCount: 2
Fore
SplineSet
212.1328125 1257.40039062 m 1
 162.1328125 1257.40039062 l 1
 162.1328125 42.400390625 l 1
 162.1328125 1.900390625 l 1
 212.1328125 1.900390625 l 1
 945 1.900390625 l 1
 945 42.400390625 l 1
 945 82.900390625 l 1
 262.1328125 82.900390625 l 1
 262.1328125 1257.40039062 l 1
 212.1328125 1257.40039062 l 1
252.122070312 1257.40039062 m 1
 202.122070312 1257.40039062 l 1
 202.122070312 78.849609375 l 1
 202.122070312 38.349609375 l 1
 252.122070312 38.349609375 l 1
 945 38.349609375 l 1
 945 78.849609375 l 1
 945 119.349609375 l 1
 302.122070312 119.349609375 l 1
 302.122070312 1257.40039062 l 1
 252.122070312 1257.40039062 l 1
EndSplineSet
Validated: 5
EndChar

StartChar: M
Encoding: 77 77 47
Width: 1520
GlyphClass: 2
Flags: MW
HStem: 1156.4 20G<202.122 202.122 262 306.655 306.655 306.655 1182.03 1226.63 1226.63 1226.63 1286.51 1286.51>
LayerCount: 2
Fore
SplineSet
1276.6328125 1.900390625 m 1
 1326.6328125 1.900390625 l 1
 1326.6328125 1216.90039062 l 1
 1326.6328125 1257.40039062 l 1
 1276.6328125 1257.40039062 l 1
 1147.49804688 1257.40039062 l 1
 1112.96875 1257.40039062 l 1
 1100.73925781 1231.24511719 l 1
 745.015625 470.47265625 l 1
 387.87109375 1231.29394531 l 1
 375.616210938 1257.40039062 l 1
 341.135742188 1257.40039062 l 1
 212 1257.40039062 l 1
 162 1257.40039062 l 1
 162 1216.90039062 l 1
 162 1.900390625 l 1
 212 1.900390625 l 1
 262 1.900390625 l 1
 262 1176.40039062 l 1
 306.655273438 1176.40039062 l 1
 675.581054688 390.479492188 l 1
 687.838867188 364.3671875 l 1
 722.328125 364.373046875 l 1
 745.58203125 364.377929688 l 1
 767.82421875 364.381835938 l 1
 802.344726562 364.388671875 l 1
 814.571289062 390.537109375 l 1
 1182.02734375 1176.40039062 l 1
 1226.6328125 1176.40039062 l 1
 1226.6328125 1.900390625 l 1
 1276.6328125 1.900390625 l 1
1236.51074219 1.900390625 m 1
 1286.51074219 1.900390625 l 1
 1286.51074219 1176.40039062 l 1
 1286.51074219 1216.90039062 l 1
 1236.51074219 1216.90039062 l 1
 1225.35058594 1216.90039062 l 1
 1167.51953125 1216.90039062 l 1
 1134.13671875 1216.90039062 l 1
 1121.33984375 1191.92578125 l 1
 744.31640625 456.169921875 l 1
 367.29296875 1191.92578125 l 1
 354.49609375 1216.90039062 l 1
 321.11328125 1216.90039062 l 1
 263.282226562 1216.90039062 l 1
 252.122070312 1216.90039062 l 1
 202.122070312 1216.90039062 l 1
 202.122070312 1176.40039062 l 1
 202.122070312 1.900390625 l 1
 252.122070312 1.900390625 l 1
 302.122070312 1.900390625 l 1
 302.122070312 1107.81542969 l 1
 670.1484375 389.618164062 l 1
 682.9453125 364.643554688 l 1
 716.328125 364.643554688 l 1
 744.826171875 364.643554688 l 1
 772.305664062 364.643554688 l 1
 805.688476562 364.643554688 l 1
 818.485351562 389.618164062 l 1
 1186.51074219 1107.81542969 l 1
 1186.51074219 1.900390625 l 1
 1236.51074219 1.900390625 l 1
EndSplineSet
Validated: 5
EndChar

StartChar: N
Encoding: 78 78 48
Width: 1312
GlyphClass: 2
Flags: MW
HStem: 1156.4 20G<202.122 202.122 262 310.297 310.297 310.297>
LayerCount: 2
Fore
SplineSet
212 1.900390625 m 1
 262 1.900390625 l 1
 262 1176.40039062 l 1
 310.296875 1176.40039062 l 1
 904.568359375 26.7578125 l 1
 917.41796875 1.900390625 l 1
 950.688476562 1.900390625 l 1
 1095 1.900390625 l 1
 1145 1.900390625 l 1
 1145 42.400390625 l 1
 1145 1257.40039062 l 1
 1095 1257.40039062 l 1
 1045 1257.40039062 l 1
 1045 82.900390625 l 1
 983.958984375 82.900390625 l 1
 389.6875 1232.54199219 l 1
 376.837890625 1257.40039062 l 1
 343.567382812 1257.40039062 l 1
 212 1257.40039062 l 1
 162 1257.40039062 l 1
 162 1216.90039062 l 1
 162 1.900390625 l 1
 212 1.900390625 l 1
252.122070312 1.900390625 m 1
 302.122070312 1.900390625 l 1
 302.122070312 1124.17480469 l 1
 924.26953125 65.4931640625 l 1
 937.840820312 42.400390625 l 1
 969.416015625 42.400390625 l 1
 1053.82324219 42.400390625 l 1
 1103.82324219 42.400390625 l 1
 1103.82324219 82.900390625 l 1
 1103.82324219 1257.40039062 l 1
 1053.82324219 1257.40039062 l 1
 1003.82324219 1257.40039062 l 1
 1003.82324219 123.400390625 l 1
 1000.99121094 123.400390625 l 1
 371.953125 1193.80664062 l 1
 358.381835938 1216.90039062 l 1
 326.806640625 1216.90039062 l 1
 252.122070312 1216.90039062 l 1
 202.122070312 1216.90039062 l 1
 202.122070312 1176.40039062 l 1
 202.122070312 1.900390625 l 1
 252.122070312 1.900390625 l 1
EndSplineSet
Validated: 5
EndChar

StartChar: O
Encoding: 79 79 49
Width: 1448
GlyphClass: 2
Flags: MW
HStem: -11.2627 112.019<718.714 726.758 575.884 912.965> 19.7559 49.9814<718.948 727.957> 1139.92 118.931<568.554 676.987 676.987 763.529 503.221 872.905> 1177.85 43.0693<676.987 763.529 763.529 893.467>
VStem: 129.815 141.419<454.777 764.174 454.777 792.279> 171.234 58.5811<455.319 770.307> 1168.56 142.141<463.035 764.634> 1210.7 57.8594<455.451 770.621 455.451 785.037>
LayerCount: 2
Fore
SplineSet
1268.56054688 621.630859375 m 0x55
 1268.56054688 919.610351562 1110.828125 1220.91894531 720.979492188 1220.91894531 c 0
 330.415039062 1220.91894531 171.234375 919.79296875 171.234375 620.8203125 c 0
 171.234375 271.971679688 353.526367188 19.755859375 720.2578125 19.755859375 c 0
 735.65625 19.755859375 750.783203125 20.2041015625 765.6328125 21.09765625 c 0
 1103.42578125 41.4453125 1268.56054688 289.271484375 1268.56054688 621.630859375 c 0x55
1168.56054688 621.630859375 m 0xaa
 1168.56054688 304.438476562 1020.25195312 117.659179688 758.2265625 101.875 c 0
 745.912109375 101.134765625 733.2578125 100.755859375 720.2578125 100.755859375 c 0
 431.510742188 100.755859375 271.234375 288.733398438 271.234375 620.8203125 c 0
 271.234375 907.528320312 416.127929688 1139.91894531 720.979492188 1139.91894531 c 0
 1024.83007812 1139.91894531 1168.56054688 907.63671875 1168.56054688 621.630859375 c 0xaa
129.815429688 626.940429688 m 0
 129.815429688 265.474609375 331.354492188 -6.80859375 711.013671875 -11.2099609375 c 0
 714.108398438 -11.2451171875 717.170898438 -11.2626953125 720.2578125 -11.2626953125 c 0
 1105.671875 -11.2626953125 1310.70117188 262.4296875 1310.70117188 626.940429688 c 0
 1310.70117188 957.607421875 1111.20996094 1258.84960938 763.529296875 1258.84960938 c 2
 676.987304688 1258.84960938 l 2
 329.455078125 1258.84960938 129.815429688 957.6171875 129.815429688 626.940429688 c 0
229.815429688 626.940429688 m 0x55
 229.815429688 943.124023438 417.26171875 1177.84960938 676.987304688 1177.84960938 c 2
 763.529296875 1177.84960938 l 2
 1023.40527344 1177.84960938 1210.70117188 943.133789062 1210.70117188 626.940429688 c 0
 1210.70117188 280.888671875 1027.75976562 69.7373046875 720.2578125 69.7373046875 c 0
 717.637695312 69.7373046875 715.014648438 69.751953125 712.4453125 69.78125 c 0
 410.143554688 73.2861328125 229.815429688 283.698242188 229.815429688 626.940429688 c 0x55
EndSplineSet
Validated: 9
EndChar

StartChar: P
Encoding: 80 80 50
Width: 1264
GlyphClass: 2
Flags: MW
HStem: 625.6 97.2002<262.133 622.657 622.657 634.582 634.582 634.657 252.354 738.321> 641.8 64.7998<262.133 262.133 262.133 622.657 262.133 262.133 262.133 622.657 302.122 622.657> 641.8 81<252.354 634.582 252.354 634.582 302.122 634.582 634.582 634.657 634.582 634.582 634.582 634.582 252.354 636.403> 1148.05 111.585<302.122 719.221 719.221 721.297> 1178.63 50.415<262.133 719.221>
VStem: 252.354 9.7793<706.6 722.8 706.6 722.8> 992.203 152.514<957.896 1000.67> 1044.72 47.4863
LayerCount: 2
Fore
SplineSet
162.1328125 666.030273438 m 1x96
 162.1328125 1.900390625 l 1
 212.1328125 1.900390625 l 1
 262.1328125 1.900390625 l 1
 262.1328125 625.599609375 l 1
 622.657226562 625.599609375 l 2
 853.984375 625.599609375 1144.71679688 690.415039062 1144.71679688 947.1953125 c 0
 1144.71679688 1124.66601562 1002.86523438 1259.63476562 721.296875 1259.63476562 c 2
 212.1328125 1259.63476562 l 1
 162.1328125 1259.63476562 l 1
 162.1328125 1219.13476562 l 1
 162.1328125 666.030273438 l 1x96
262.1328125 706.599609375 m 1x4d
 262.1328125 1178.63476562 l 1
 721.296875 1178.63476562 l 2
 955.580078125 1178.63476562 1044.71679688 1083.14941406 1044.71679688 947.1953125 c 0
 1044.71679688 762.106445312 846.626953125 706.599609375 622.657226562 706.599609375 c 2
 262.1328125 706.599609375 l 1x4d
302.122070312 641.799804688 m 1
 634.657226562 641.799804688 l 2
 638.149414062 641.799804688 641.65234375 641.821289062 645.163085938 641.865234375 c 0
 843.262695312 644.326171875 1096.95214844 723.25390625 1092.203125 958.686523438 c 0
 1091.78808594 1084.38183594 972.655273438 1229.04980469 719.220703125 1229.04980469 c 2
 252.122070312 1229.04980469 l 1
 202.122070312 1229.04980469 l 1
 202.122070312 1188.54980469 l 1
 202.122070312 682.299804688 l 1
 202.122070312 1.900390625 l 1
 252.122070312 1.900390625 l 1
 302.122070312 1.900390625 l 1
 302.122070312 641.799804688 l 1
302.122070312 722.799804688 m 1x26
 302.122070312 1148.04980469 l 1
 719.220703125 1148.04980469 l 2
 917.698242188 1148.04980469 992.203125 1043.44824219 992.203125 957.895507812 c 0
 996.170898438 787.196289062 823.0625 725.456054688 645.129882812 722.875976562 c 0
 641.62890625 722.825195312 638.13671875 722.799804688 634.657226562 722.799804688 c 2x96
 302.122070312 722.799804688 l 1x26
634.58203125 682.299804688 m 1
 634.58203125 722.799804688 l 1x84
 252.353515625 722.799804688 l 1x24
 252.353515625 682.299804688 l 1
 252.353515625 641.799804688 l 1
 634.58203125 641.799804688 l 1x44
 634.58203125 682.299804688 l 1
634.58203125 682.299804688 m 1
 634.58203125 722.799804688 l 1x84
 252.353515625 722.799804688 l 1x24
 252.353515625 682.299804688 l 1
 252.353515625 641.799804688 l 1
 634.58203125 641.799804688 l 1x44
 634.58203125 682.299804688 l 1
EndSplineSet
Validated: 37
EndChar

StartChar: Q
Encoding: 81 81 51
Width: 1448
GlyphClass: 2
Flags: MW
HStem: -241.1 103.68<1085.96 1204.63 1085.96 1204.63> -218.42 58.3203<1087.9 1204.63 1087.9 1204.63> -11.2627 113.138 21.0977 48.6396 1139.92 118.931<568.554 676.987 676.987 763.529 503.221 872.905> 1177.85 43.0693<676.987 763.529 763.529 893.467>
VStem: 129.815 141.419<454.777 764.174 454.777 792.279> 171.234 58.5811<455.319 770.307> 670.363 100<119.888 302.118 119.888 302.118 119.888 302.118 119.888 302.118> 1168.56 142.141<463.035 764.634> 1210.7 57.8594<455.451 770.621 455.451 785.037>
LayerCount: 2
Fore
SplineSet
1268.56054688 621.630859375 m 0x15a0
 1268.56054688 919.610351562 1110.828125 1220.91894531 720.979492188 1220.91894531 c 0
 330.415039062 1220.91894531 171.234375 919.79296875 171.234375 620.8203125 c 0
 171.234375 271.971679688 353.526367188 19.755859375 720.2578125 19.755859375 c 0
 735.65625 19.755859375 750.783203125 20.2041015625 765.6328125 21.09765625 c 0
 1103.42578125 41.4453125 1268.56054688 289.271484375 1268.56054688 621.630859375 c 0x15a0
1168.56054688 621.630859375 m 0x2ac0
 1168.56054688 304.438476562 1020.25195312 117.659179688 758.2265625 101.875 c 0
 745.912109375 101.134765625 733.2578125 100.755859375 720.2578125 100.755859375 c 0
 431.510742188 100.755859375 271.234375 288.733398438 271.234375 620.8203125 c 0
 271.234375 907.528320312 416.127929688 1139.91894531 720.979492188 1139.91894531 c 0
 1024.83007812 1139.91894531 1168.56054688 907.63671875 1168.56054688 621.630859375 c 0x2ac0
129.815429688 626.940429688 m 0
 129.815429688 265.474609375 331.354492188 -6.80859375 711.013671875 -11.2099609375 c 0
 714.108398438 -11.2451171875 717.170898438 -11.2626953125 720.2578125 -11.2626953125 c 0
 1105.671875 -11.2626953125 1310.70117188 262.4296875 1310.70117188 626.940429688 c 0
 1310.70117188 957.607421875 1111.20996094 1258.84960938 763.529296875 1258.84960938 c 2
 676.987304688 1258.84960938 l 2
 329.455078125 1258.84960938 129.815429688 957.6171875 129.815429688 626.940429688 c 0
229.815429688 626.940429688 m 0x15a0
 229.815429688 943.124023438 417.26171875 1177.84960938 676.987304688 1177.84960938 c 2
 763.529296875 1177.84960938 l 2
 1023.40527344 1177.84960938 1210.70117188 943.133789062 1210.70117188 626.940429688 c 0
 1210.70117188 280.888671875 1027.75976562 69.7373046875 720.2578125 69.7373046875 c 0
 717.637695312 69.7373046875 715.014648438 69.751953125 712.4453125 69.78125 c 0
 410.143554688 73.2861328125 229.815429688 283.698242188 229.815429688 626.940429688 c 0x15a0
720.36328125 302.118164062 m 1
 670.36328125 302.118164062 l 1
 670.36328125 -95.5126953125 916.62109375 -241.099609375 1204.62695312 -241.099609375 c 1x8080
 1204.62695312 -200.599609375 l 1
 1204.62695312 -160.099609375 l 1x4080
 971.1640625 -160.099609375 770.36328125 -62.3427734375 770.36328125 302.118164062 c 1
 720.36328125 302.118164062 l 1
720.36328125 302.118164062 m 1
 670.36328125 302.118164062 l 1
 670.36328125 -97.390625 920.494140625 -218.419921875 1204.62695312 -218.419921875 c 1x4080
 1204.62695312 -177.919921875 l 1
 1204.62695312 -137.419921875 l 1
 967.291015625 -137.419921875 770.36328125 -60.46484375 770.36328125 302.118164062 c 1
 720.36328125 302.118164062 l 1
EndSplineSet
Validated: 5
EndChar

StartChar: R
Encoding: 82 82 52
Width: 1280
GlyphClass: 2
Flags: MW
HStem: 641.8 64.7998<262.133 262.133 262.133 622.657 262.133 262.133 262.133 622.657 302.122 606.866 606.866 622.657> 1148.05 111.585<302.122 719.221 719.221 721.297> 1178.63 50.415<262.133 719.221>
VStem: 252.354 9.7793<706.6 722.8 706.6 722.8> 992.203 152.514<957.896 1000.67> 1044.72 47.4863
LayerCount: 2
Fore
SplineSet
162.1328125 666.030273438 m 1xd8
 162.1328125 1.900390625 l 1
 212.1328125 1.900390625 l 1
 262.1328125 1.900390625 l 1
 262.1328125 625.599609375 l 1
 622.657226562 625.599609375 l 2
 853.984375 625.599609375 1144.71679688 690.415039062 1144.71679688 947.1953125 c 0
 1144.71679688 1124.66601562 1002.86523438 1259.63476562 721.296875 1259.63476562 c 2
 212.1328125 1259.63476562 l 1
 162.1328125 1259.63476562 l 1
 162.1328125 1219.13476562 l 1
 162.1328125 666.030273438 l 1xd8
262.1328125 706.599609375 m 1
 262.1328125 1178.63476562 l 1
 721.296875 1178.63476562 l 2
 955.580078125 1178.63476562 1044.71679688 1083.14941406 1044.71679688 947.1953125 c 0xb4
 1044.71679688 762.106445312 846.626953125 706.599609375 622.657226562 706.599609375 c 2
 262.1328125 706.599609375 l 1
302.122070312 641.799804688 m 1
 606.866210938 641.799804688 l 1
 634.657226562 641.799804688 l 2
 638.149414062 641.799804688 641.65234375 641.821289062 645.163085938 641.865234375 c 0
 843.262695312 644.326171875 1096.95214844 723.25390625 1092.203125 958.686523438 c 0
 1091.78808594 1084.38183594 972.655273438 1229.04980469 719.220703125 1229.04980469 c 2
 252.122070312 1229.04980469 l 1
 202.122070312 1229.04980469 l 1
 202.122070312 1188.54980469 l 1
 202.122070312 682.299804688 l 1
 202.122070312 1.900390625 l 1
 252.122070312 1.900390625 l 1
 302.122070312 1.900390625 l 1
 302.122070312 641.799804688 l 1
302.122070312 722.799804688 m 1
 302.122070312 1148.04980469 l 1
 719.220703125 1148.04980469 l 2
 917.698242188 1148.04980469 992.203125 1043.44824219 992.203125 957.895507812 c 0xd8
 996.170898438 787.196289062 823.0625 725.456054688 645.129882812 722.875976562 c 0
 641.62890625 722.825195312 638.13671875 722.799804688 634.657226562 722.799804688 c 2
 606.866210938 722.799804688 l 1
 302.122070312 722.799804688 l 1
634.58203125 682.299804688 m 1
 634.58203125 722.799804688 l 1
 252.353515625 722.799804688 l 1
 252.353515625 682.299804688 l 1
 252.353515625 641.799804688 l 1
 634.58203125 641.799804688 l 1
 634.58203125 682.299804688 l 1
634.58203125 682.299804688 m 1
 634.58203125 722.799804688 l 1
 252.353515625 722.799804688 l 1
 252.353515625 682.299804688 l 1
 252.353515625 641.799804688 l 1
 634.58203125 641.799804688 l 1
 634.58203125 682.299804688 l 1
1062.14746094 1.900390625 m 1
 1112.14746094 1.900390625 l 1
 1112.14746094 53.255859375 649.370117188 699.1875 647.3671875 702.09765625 c 2
 560.025390625 662.65234375 l 1
 560.025390625 662.65234375 981.712890625 49.388671875 1014.15429688 -9.4765625 c 1
 1062.14746094 1.900390625 l 1
1120.51269531 2.1318359375 m 1
 1170.51269531 2.1318359375 l 1
 1170.51269531 49.83984375 678.528320312 684.723632812 676.678710938 687.215820312 c 2
 590.975585938 645.479492188 l 1
 590.975585938 645.479492188 1040.31835938 39.7939453125 1073.88769531 -12.521484375 c 1
 1120.51269531 2.1318359375 l 1
EndSplineSet
Validated: 37
EndChar

StartChar: S
Encoding: 83 83 53
Width: 1232
GlyphClass: 2
Flags: MW
HStem: -14.2998 117.45<487.099 636.926 487.099 729.5> 22.1494 44.5508 1152.1 105.256 1176.36 56.7441<482.518 528.088>
VStem: 133.667 139.113<946.653 995.603 848.588 1066.12> 172.78 60.8867 934.001 162.598<889.439 889.895> 952.929 144.535<247.041 305.222> 996.601 37.3984<889.452 889.881> 997.464 55.4648
LayerCount: 2
Fore
SplineSet
232.126953125 358.299804688 m 1x95
 227.126953125 358.299804688 l 1
 177.126953125 358.299804688 l 1
 177.126953125 267.029296875 265.615234375 22.833984375 635.721679688 22.1494140625 c 0
 641.676757812 22.0400390625 645.022460938 22.0078125 649.893554688 21.9931640625 c 0
 906.612304688 21.23828125 1052.48632812 141.833007812 1052.92871094 304.734375 c 0x4040
 1055.30859375 490.130859375 928.462890625 604.002929688 686.99609375 654.620117188 c 1
 568.751953125 682.515625 l 2
 411.204101562 719.681640625 272.780273438 762.872070312 272.780273438 934.3046875 c 0
 272.780273438 1056.90039062 409.51953125 1151.79003906 592.758789062 1152.09960938 c 0
 844.06640625 1148.0078125 933.2109375 1006.71386719 934.000976562 889.439453125 c 1x6a
 984 889.66015625 l 1
 1033.99902344 889.880859375 l 1x6080
 1032.98339844 1040.68457031 906.602539062 1228.52246094 593.650390625 1233.09960938 c 0
 368.8828125 1233.09960938 172.780273438 1112.08300781 172.780273438 934.3046875 c 0
 172.780273438 707.399414062 382.360351562 642.12109375 540.7890625 604.747070312 c 2
 660.533203125 576.497070312 l 1
 875.260742188 531.713867188 955.106445312 451.884765625 952.928710938 305.221679688 c 0
 952.928710938 188.859375 864.595703125 102.969726562 652.348632812 102.989257812 c 0
 647.0859375 102.990234375 643.33203125 103.0234375 636.92578125 103.150390625 c 0
 337.271484375 103.150390625 277.126953125 293.786132812 277.126953125 358.299804688 c 1
 232.126953125 358.299804688 l 1x95
171.40234375 358.299804688 m 1
 121.40234375 358.299804688 l 1
 121.40234375 194.388671875 270.813476562 -14.2998046875 593.517578125 -14.2998046875 c 0
 865.481445312 -14.2998046875 1097.46386719 68.708984375 1097.46386719 310.63671875 c 0x81
 1097.46386719 533.254882812 905.837890625 605.915039062 729.728515625 644.223632812 c 2
 562.802734375 683.900390625 l 1
 375.047851562 724.208984375 240.334960938 757.244140625 233.666992188 947.71875 c 1
 234.327148438 1120.22949219 436.947265625 1176.35546875 528.087890625 1176.35546875 c 2
 643.869140625 1176.44433594 l 2
 818.145507812 1176.578125 995.4453125 1060.75195312 996.600585938 889.452148438 c 1x9480
 1046.59960938 889.673828125 l 1
 1096.59863281 889.89453125 l 1
 1095.1171875 1109.51367188 869.008789062 1257.6171875 643.7734375 1257.44433594 c 2
 528.017578125 1257.35546875 l 2
 409.537109375 1257.35546875 133.666992188 1185.59082031 133.666992188 946.653320312 c 1x2a
 141.671875 701.116210938 350.70703125 645.66015625 535.908203125 605.877929688 c 1
 702.702148438 566.232421875 l 2
 872.668945312 529.34375 997.463867188 481.544921875 997.463867188 310.63671875 c 0
 997.463867188 130.354492188 847.504882812 66.7001953125 593.517578125 66.7001953125 c 0
 335.268554688 66.7001953125 221.40234375 229.0234375 221.40234375 358.299804688 c 1
 171.40234375 358.299804688 l 1
EndSplineSet
Validated: 37
EndChar

StartChar: T
Encoding: 84 84 54
Width: 1208
GlyphClass: 2
Flags: MW
HStem: 1176.4 12.1494<570.122 620.122 620.122 670.122>
LayerCount: 2
Fore
SplineSet
580.1328125 1216.90039062 m 1
 530.1328125 1216.90039062 l 1
 530.1328125 1.900390625 l 1
 580.1328125 1.900390625 l 1
 630.1328125 1.900390625 l 1
 630.1328125 1216.90039062 l 1
 580.1328125 1216.90039062 l 1
620.122070312 1188.54980469 m 1
 570.122070312 1188.54980469 l 1
 570.122070312 1.900390625 l 1
 620.122070312 1.900390625 l 1
 670.122070312 1.900390625 l 1
 670.122070312 1188.54980469 l 1
 620.122070312 1188.54980469 l 1
80 1188.54980469 m 1
 80 1148.04980469 l 1
 1120 1148.04980469 l 1
 1120 1188.54980469 l 1
 1120 1229.04980469 l 1
 80 1229.04980469 l 1
 80 1188.54980469 l 1
80 1216.90039062 m 1
 80 1176.40039062 l 1
 1120 1176.40039062 l 1
 1120 1216.90039062 l 1
 1120 1257.40039062 l 1
 80 1257.40039062 l 1
 80 1216.90039062 l 1
EndSplineSet
Validated: 5
EndChar

StartChar: U
Encoding: 85 85 55
Width: 1312
GlyphClass: 2
Flags: MW
HStem: -14.2998 117.45<570.179 747.701 570.179 751.892> 22.1504 44.5498<581.003 737.058 581.003 768.975>
VStem: 168.79 136.166<438.109 442.716 442.716 1257.4> 204.956 63.834<281.666 1257.4 442.716 1257.4 442.716 1257.4> 1012.79 136.166<302.521 1257.4 442.716 1257.4 442.716 1257.4> 1048.96 63.834<438.109 442.716 442.716 1257.4>
LayerCount: 2
Fore
SplineSet
1098.95507812 1257.40039062 m 1xa8
 1048.95507812 1257.40039062 l 1
 1048.95507812 442.715820312 l 2
 1048.95507812 100.669921875 815.244140625 66.7001953125 658.872070312 66.7001953125 c 0
 503.134765625 66.7001953125 268.790039062 104.700195312 268.790039062 442.715820312 c 2
 268.790039062 1257.40039062 l 1x54
 218.790039062 1257.40039062 l 1
 168.790039062 1257.40039062 l 1
 168.790039062 442.715820312 l 2
 168.790039062 54.3427734375 472.19921875 -14.2998046875 658.872070312 -14.2998046875 c 0
 844.912109375 -14.2998046875 1148.95507812 50.130859375 1148.95507812 442.715820312 c 2
 1148.95507812 1257.40039062 l 1
 1098.95507812 1257.40039062 l 1xa8
1062.7890625 1257.40039062 m 1
 1012.7890625 1257.40039062 l 1
 1012.7890625 438.109375 l 2
 1012.7890625 166.932617188 836.530273438 103.150390625 658.872070312 103.150390625 c 0
 481.485351562 103.150390625 304.956054688 168.674804688 304.956054688 438.109375 c 2
 304.956054688 1257.40039062 l 1xa8
 254.956054688 1257.40039062 l 1
 204.956054688 1257.40039062 l 1
 204.956054688 438.109375 l 2
 204.956054688 125.22265625 438.395507812 22.150390625 658.872070312 22.150390625 c 0
 879.077148438 22.150390625 1112.7890625 123.384765625 1112.7890625 438.109375 c 2
 1112.7890625 1257.40039062 l 1
 1062.7890625 1257.40039062 l 1
EndSplineSet
Validated: 5
EndChar

StartChar: V
Encoding: 86 86 56
Width: 1296
GlyphClass: 2
Flags: W
LayerCount: 2
Fore
SplineSet
1115.93164062 1257.40039062 m 1
 1065.43359375 1257.40039062 l 1
 1049.03320312 1196.50195312 720.327148438 261.51953125 657.505859375 82.8955078125 c 1
 644.059570312 82.8955078125 l 1
 581.879882812 259.6953125 252.530273438 1196.50976562 236.131835938 1257.40039062 c 1
 185.633789062 1257.40039062 l 1
 135.135742188 1257.40039062 l 1
 135.135742188 1215.66699219 556.51953125 36.1572265625 558.232421875 31.291015625 c 2
 568.579101562 1.8955078125 l 1
 606.31640625 1.8955078125 l 1
 695.249023438 1.8955078125 l 1
 732.986328125 1.8955078125 l 1
 743.333007812 31.291015625 l 2
 745.022460938 36.091796875 1166.4296875 1215.75976562 1166.4296875 1257.40039062 c 1
 1115.93164062 1257.40039062 l 1
1175.734375 1257.40039062 m 1
 1125.01660156 1257.40039062 l 1
 1106.28710938 1198.02539062 739.366210938 258.997070312 670.619140625 83.03515625 c 1
 630.946289062 83.03515625 l 1
 562.905273438 257.189453125 195.276367188 1198.03320312 176.548828125 1257.40039062 c 1
 75.11328125 1257.40039062 l 1
 75.11328125 1217.14160156 544.690429688 35.349609375 546.661132812 30.30859375 c 2
 557.713867188 2.03515625 l 1
 743.8515625 2.03515625 l 1
 754.904296875 30.30859375 l 2
 756.875976562 35.3525390625 1226.45214844 1217.13867188 1226.45214844 1257.40039062 c 1
 1175.734375 1257.40039062 l 1
EndSplineSet
Validated: 5
EndChar

StartChar: W
Encoding: 87 87 57
Width: 1520
GlyphClass: 2
Flags: MW
HStem: 1156.4 20G<715.655 789.724 789.724 789.724>
LayerCount: 2
Fore
SplineSet
1367.62988281 1257.40039062 m 1
 1317.55957031 1257.40039062 l 1
 1311.94042969 1209.09082031 1125.10839844 272.147460938 1087.1953125 82.900390625 c 1
 1031.68945312 82.900390625 l 1
 837.76171875 1222.43066406 l 1
 831.810546875 1257.40039062 l 1
 788.23046875 1257.40039062 l 1
 752.119140625 1257.40039062 l 1
 717.01171875 1257.40039062 l 1
 673.42578125 1257.40039062 l 1
 667.479492188 1222.42480469 l 1
 473.745117188 82.900390625 l 1
 418.245117188 82.900390625 l 1
 380.728515625 270.18359375 193.232421875 1209.44238281 187.741210938 1257.40039062 c 1
 137.741210938 1257.40039062 l 1
 87.7412109375 1257.40039062 l 1
 87.7412109375 1214.8671875 325.670898438 39.3125 326.354492188 35.9052734375 c 2
 333.174804688 1.900390625 l 1
 375.70703125 1.900390625 l 1
 517.331054688 1.900390625 l 1
 560.916992188 1.900390625 l 1
 566.86328125 36.875 l 1
 752.627929688 1129.52050781 l 1
 938.578125 36.869140625 l 1
 944.529296875 1.900390625 l 1
 988.109375 1.900390625 l 1
 1129.73242188 1.900390625 l 1
 1172.26367188 1.900390625 l 1
 1179.08496094 35.904296875 l 2
 1179.76074219 39.2744140625 1417.69921875 1214.80078125 1417.69921875 1257.40039062 c 1
 1367.62988281 1257.40039062 l 1
1313.78417969 1257.40039062 m 1
 1263.73632812 1257.40039062 l 1
 1259.09570312 1210.29492188 1095.44042969 275.62890625 1061.54492188 82.900390625 c 1
 1057.12597656 82.900390625 l 1
 883.5546875 1221.86132812 l 1
 878.139648438 1257.40039062 l 1
 833.931640625 1257.40039062 l 1
 671.446289062 1257.40039062 l 1
 627.237304688 1257.40039062 l 1
 621.822265625 1221.86035156 l 1
 448.3125 82.900390625 l 1
 443.895507812 82.900390625 l 1
 410.348632812 273.65625 246.1328125 1210.60351562 241.609375 1257.40039062 c 1
 202.609375 1257.40039062 l 1
 191.609375 1257.40039062 l 1
 141.609375 1257.40039062 l 1
 141.609375 1216.38183594 350.4765625 39.7548828125 351.017578125 36.6806640625 c 2
 357.142578125 1.900390625 l 1
 400.516601562 1.900390625 l 1
 492.521484375 1.900390625 l 1
 536.73046875 1.900390625 l 1
 542.145507812 37.4404296875 l 1
 715.655273438 1176.40039062 l 1
 789.723632812 1176.40039062 l 1
 963.294921875 37.4384765625 l 1
 968.709960938 1.900390625 l 1
 1012.91796875 1.900390625 l 1
 1104.92382812 1.900390625 l 1
 1148.296875 1.900390625 l 1
 1154.42285156 36.6806640625 l 2
 1154.95996094 39.7314453125 1363.83105469 1216.34472656 1363.83105469 1257.40039062 c 1
 1313.78417969 1257.40039062 l 1
EndSplineSet
Validated: 5
EndChar

StartChar: X
Encoding: 88 88 58
Width: 1232
GlyphClass: 2
Flags: HW
LayerCount: 2
Fore
SplineSet
1094.23339844 -2.232421875 m 17
 1094.23339844 24.3310546875 871.250976562 324.322265625 642.452148438 626.576171875 c 1
 871.23046875 928.741210938 1094.23339844 1228.03515625 1094.23339844 1253.26757812 c 1
 935 1255.69628906 l 17
 935 1255.69628906 725.501953125 937.171875 576.987304688 718.241210938 c 1
 435.624023438 929.296875 224 1253.26757812 224 1253.26757812 c 1
 59.7412109375 1253.26757812 l 1
 59.7412109375 1228.03515625 282.744140625 928.741210938 511.522460938 626.576171875 c 1
 282.723632812 324.322265625 59.7412109375 24.3310546875 59.7412109375 -2.232421875 c 9
 218.12890625 -4.353515625 l 17
 218.12890625 -4.353515625 408.912109375 280.688476562 576.987304688 531.439453125 c 1
 745.0625 280.688476562 935 -2.232421875 935 -2.232421875 c 1
 1094.23339844 -2.232421875 l 17
EndSplineSet
Validated: 9
EndChar

StartChar: Y
Encoding: 89 89 59
Width: 1208
GlyphClass: 2
Flags: W
LayerCount: 2
Fore
SplineSet
237.858398438 1257.40039062 m 1
 154.858398438 1257.40039062 l 1
 154.858398438 1198.25195312 539.340820312 567.143554688 541.3984375 563.641601562 c 2
 554.969726562 540.549804688 l 1
 655.37890625 540.549804688 l 1
 668.953125 563.634765625 l 2
 671.073242188 567.23828125 1055.49804688 1197.73632812 1055.49804688 1257.40039062 c 1
 953.67578125 1257.40039062 l 1
 933.564453125 1206.09277344 685.561523438 780.905273438 605.184570312 643.66796875 c 1
 523.7109375 782.846679688 276.8359375 1206.24804688 256.705078125 1257.40039062 c 1
 237.858398438 1257.40039062 l 1
1056.24609375 1257.40039062 m 1
 1004.97265625 1257.40039062 l 1
 980.453125 1203.70703125 691.919921875 768.764648438 605.037109375 638.150390625 c 1
 518.258789062 768.456054688 229.825195312 1202.86035156 205.267578125 1257.40039062 c 1
 102.8359375 1257.40039062 l 1
 102.8359375 1194.41113281 540.397460938 564.642578125 542.319335938 561.767578125 c 2
 556.500976562 540.549804688 l 1
 653.625 540.549804688 l 1
 667.80078125 561.787109375 l 2
 669.750976562 564.708007812 1107.51953125 1195.57128906 1107.51953125 1257.40039062 c 1
 1056.24609375 1257.40039062 l 1
586.5 581.049804688 m 1
 536.5 581.049804688 l 1
 536.5 1.900390625 l 1
 586.5 1.900390625 l 1
 636.5 1.900390625 l 1
 636.5 581.049804688 l 1
 586.5 581.049804688 l 1
624 581.049804688 m 1
 574 581.049804688 l 1
 574 1.900390625 l 1
 624 1.900390625 l 1
 674 1.900390625 l 1
 674 581.049804688 l 1
 624 581.049804688 l 1
EndSplineSet
Validated: 5
EndChar

StartChar: Z
Encoding: 90 90 60
Width: 1160
GlyphClass: 2
Flags: HMW
HStem: 40 60<254.756 999.595 999.595 1000.12 254.756 1013.21> 1450 65<156.756 903.595>
LayerCount: 2
Fore
SplineSet
1004.05175781 1260 m 2
 156.755859375 1260 l 1
 156.228515625 1125 l 2
 845.934570312 1125 l 1
 508.23828125 613.98828125 l 5
 161.412109375 149.926757812 l 2
 157.068359375 142.373046875 154.738181852 133.999485715 154.755859375 125 c 2
 155 0.7099609375 l 2
 1000.12207031 0 l 1
 999.594726562 140 l 1
 307.807617188 140 l 1
 596.17578125 566.30859375 l 5
 997.465820312 1113.07324219 l 2
 1001.74121094 1120.50683594 1004.12695312 1129 1004.12207031 1138 c 2
 1004.05175781 1260 l 2
EndSplineSet
Validated: 9
EndChar

StartChar: bracketleft
Encoding: 91 91 61
Width: 688
GlyphClass: 2
Flags: MW
VStem: 110 480<-147.95 -107.45 -147.95 -107.45 -107.45 -66.9502 1265.5 1306 1306 1346.5>
LayerCount: 2
Fore
SplineSet
590 1306 m 1
 590 1346.5 l 1
 160 1346.5 l 1
 110 1346.5 l 1
 110 1306 l 1
 110 -107.450195312 l 1
 110 -147.950195312 l 1
 160 -147.950195312 l 1
 590 -147.950195312 l 1
 590 -107.450195312 l 1
 590 -66.9501953125 l 1
 210 -66.9501953125 l 1
 210 1265.5 l 1
 590 1265.5 l 1
 590 1306 l 1
590 1306 m 1
 590 1346.5 l 1
 200 1346.5 l 1
 150 1346.5 l 1
 150 1306 l 1
 150 -107.450195312 l 1
 150 -147.950195312 l 1
 200 -147.950195312 l 1
 590 -147.950195312 l 1
 590 -107.450195312 l 1
 590 -66.9501953125 l 1
 250 -66.9501953125 l 1
 250 1265.5 l 1
 590 1265.5 l 1
 590 1306 l 1
EndSplineSet
Validated: 5
EndChar

StartChar: backslash
Encoding: 92 92 62
Width: 1032
GlyphClass: 2
Flags: W
LayerCount: 2
Fore
SplineSet
-286.421875 1118.86035156 m 1
 -325.305664062 1095.9453125 l 1
 882.116210938 7.1279296875 l 1
 921 30.04296875 l 1
 959.883789062 52.9580078125 l 1
 -247.538085938 1141.77539062 l 1
 -286.421875 1118.86035156 l 1
-257.577148438 1132.30859375 m 1
 -297.565429688 1110.42675781 l 1
 852.68359375 -6.6953125 l 1
 892.671875 15.1865234375 l 1
 932.66015625 37.0673828125 l 1
 -217.588867188 1154.18945312 l 1
 -257.577148438 1132.30859375 l 1
EndSplineSet
Validated: 5
EndChar

StartChar: bracketright
Encoding: 93 93 63
Width: 688
GlyphClass: 2
Flags: MW
VStem: 110 480<-147.95 -107.45 -147.95 -107.45 -147.95 -107.45 -147.95 -107.45 -107.45 -66.9502 -107.45 -66.9502 1265.5 1265.5 1265.5 1306 1265.5 1306 1265.5 1265.5 1306 1346.5 1306 1346.5>
LayerCount: 2
Fore
SplineSet
110 1306 m 1
 110 1265.5 l 1
 490 1265.5 l 1
 490 -66.9501953125 l 1
 110 -66.9501953125 l 1
 110 -107.450195312 l 1
 110 -147.950195312 l 1
 540 -147.950195312 l 1
 590 -147.950195312 l 1
 590 -107.450195312 l 1
 590 1306 l 1
 590 1346.5 l 1
 540 1346.5 l 1
 110 1346.5 l 1
 110 1306 l 1
110 1306 m 1
 110 1265.5 l 1
 450 1265.5 l 1
 450 -66.9501953125 l 1
 110 -66.9501953125 l 1
 110 -107.450195312 l 1
 110 -147.950195312 l 1
 500 -147.950195312 l 1
 550 -147.950195312 l 1
 550 -107.450195312 l 1
 550 1306 l 1
 550 1346.5 l 1
 500 1346.5 l 1
 110 1346.5 l 1
 110 1306 l 1
EndSplineSet
Validated: 5
EndChar

StartChar: asciicircum
Encoding: 94 94 64
Width: 848
GlyphClass: 2
Flags: W
LayerCount: 2
Fore
SplineSet
104 1216 m 1
 104 1408 l 1
 424 1704 l 1
 752 1392 l 1
 752 1200 l 1
 424 1512 l 1
 104 1216 l 1
EndSplineSet
Validated: 1
EndChar

StartChar: underscore
Encoding: 95 95 65
Width: 624
GlyphClass: 2
Flags: MW
HStem: 436.212 81<167.488 879.488 167.488 879.488 167.488 879.488 167.488 879.488>
LayerCount: 2
Fore
SplineSet
167.48828125 476.711914062 m 1
 167.48828125 436.211914062 l 1
 879.48828125 436.211914062 l 1
 879.48828125 476.711914062 l 1
 879.48828125 517.211914062 l 1
 167.48828125 517.211914062 l 1
 167.48828125 476.711914062 l 1
167.48828125 476.711914062 m 1
 167.48828125 436.211914062 l 1
 879.48828125 436.211914062 l 1
 879.48828125 476.711914062 l 1
 879.48828125 517.211914062 l 1
 167.48828125 517.211914062 l 1
 167.48828125 476.711914062 l 1
EndSplineSet
Validated: 5
EndChar

StartChar: grave
Encoding: 96 96 66
Width: 848
GlyphClass: 2
Flags: W
LayerCount: 2
Fore
SplineSet
602.14453125 1257.12890625 m 1
 639.29296875 1287.24902344 l 1
 328.193359375 1598.05175781 l 1
 291.044921875 1567.93261719 l 1
 253.896484375 1537.81347656 l 1
 564.99609375 1227.00976562 l 1
 602.14453125 1257.12890625 l 1
619.263671875 1272.53613281 m 1
 652.729492188 1305.97070312 l 1
 307.391601562 1585.95996094 l 1
 273.92578125 1552.52636719 l 1
 240.459960938 1519.09179688 l 1
 585.797851562 1239.10253906 l 1
 619.263671875 1272.53613281 l 1
EndSplineSet
Validated: 5
EndChar

StartChar: a
Encoding: 97 97 67
Width: 976
GlyphClass: 2
Flags: HMW
HStem: -13.5078 108.558<376.112 499.295 376.112 535.446> 14.0498 53.4424<337.152 495.606 335.778 531.615> 521.033 78.8682<684.759 727.462 641.668 768.443> 848.35 97.2002<397.37 431.355 431.355 542.716> 864.55 64.7998<431.355 542.716 542.716 566.137 358.055 592.574>
VStem: 115.913 146.443 130.797 150.058<682.159 710.16 682.159 761.17> 162.356 53.502 180.854 49.9424<682.159 718.149> 677.911 100<177.537 679.147 177.537 679.147 184.831 679.147 184.831 679.147> 716.645 61.2666<686.08 750.962> 716.646 99.9922<1.90039 2.63574>
LayerCount: 2
Fore
SplineSet
741.70703125 1.53125 m 1x3240
 766.745117188 1.900390625 l 1
 816.737304688 2.6357421875 l 1x3010
 816.200195312 26.5732421875 792.313476562 121.16796875 778.010742188 184.831054688 c 1
 778.010742188 679.147460938 l 2
 778.010742188 857.265625 644.374023438 929.349609375 488.099609375 929.349609375 c 0
 228.208984375 929.349609375 180.954101562 754.138671875 180.954101562 682.159179688 c 1x28c0
 230.954101562 682.159179688 l 1
 280.954101562 682.159179688 l 1
 280.954101562 738.16015625 306.83984375 848.349609375 488.099609375 848.349609375 c 0
 601.799804688 848.349609375 678.010742188 814.93359375 678.010742188 679.147460938 c 2
 678.010742188 181.181640625 l 1
 678.010742188 177.537109375 l 1
 678.814453125 173.951171875 l 2
 691.280273438 118.298828125 715.279296875 12.2783203125 716.669921875 1.1630859375 c 1
 741.70703125 1.53125 l 1x3240
180.896484375 682.159179688 m 1
 230.896484375 682.159179688 l 1
 230.896484375 796.3203125 338.684570312 864.549804688 431.455078125 864.549804688 c 2
 542.815429688 864.549804688 l 2
 642.53125 864.549804688 716.744140625 815.84375 716.744140625 686.080078125 c 2x28a0
 716.745117188 1.900390625 l 1
 766.745117188 1.900390625 l 1
 816.745117188 1.900390625 l 1
 816.744140625 686.080078125 l 2
 816.744140625 848.03515625 702.92578125 945.549804688 542.815429688 945.549804688 c 2
 431.455078125 945.549804688 l 2
 281.954101562 945.549804688 130.896484375 840.180664062 130.896484375 682.159179688 c 1x3210
 180.896484375 682.159179688 l 1
768.54296875 561.533203125 m 1
 768.54296875 602.033203125 l 1
 629.412109375 602.033203125 117.001953125 601.47265625 115.86328125 269.235351562 c 0
 115.8515625 268.56640625 115.825195312 265.095703125 116.012695312 260.526367188 c 0
 117.561523438 222.595703125 143.541992188 -13.5078125 433.201171875 -13.5078125 c 0xa4
 637.889648438 -13.5078125 807.209960938 193.9609375 807.209960938 193.9609375 c 1
 766.596679688 217.583984375 l 1
 725.983398438 241.20703125 l 1
 721.864257812 236.576171875 558.2109375 67.4921875 433.201171875 67.4921875 c 0
 238.553710938 67.4921875 217.551757812 224.162109375 215.958007812 263.203125 c 0x61
 215.791015625 267.27734375 215.853515625 268.103515625 215.864257812 268.671875 c 0
 215.864257812 506.82421875 601.173828125 521.033203125 768.54296875 521.033203125 c 1
 768.54296875 561.533203125 l 1
727.561523438 559.401367188 m 1
 727.561523438 599.901367188 l 1
 555.973632812 599.901367188 162.456054688 549.961914062 162.456054688 261.89453125 c 0
 162.456054688 164.203125 232.51953125 14.0498046875 441.984375 14.0498046875 c 0x61
 621.444335938 14.0498046875 765.517578125 156.01171875 765.545898438 156.038085938 c 2
 727.876953125 182.669921875 l 1
 690.20703125 209.301757812 l 1
 686.53125 205.916992188 556.8046875 95.0498046875 441.984375 95.0498046875 c 0
 310.439453125 95.0498046875 262.456054688 184.69921875 262.456054688 261.89453125 c 0
 262.456054688 467.673828125 553.075195312 518.901367188 727.561523438 518.901367188 c 1
 727.561523438 559.401367188 l 1
EndSplineSet
Validated: 5
EndChar

StartChar: b
Encoding: 98 98 68
Width: 1016
GlyphClass: 2
Flags: MW
HStem: -14.2998 109.35<453.279 518.802 453.279 672.164> 14.0498 52.6504<475.176 519.11> 848.35 97.5459<485.914 515.337 464.962 543.45> 864.896 64.4541<500.81 514.886>
VStem: 207.338 61.5791<157.622 171.308 171.308 1073.97 157.622 157.622 1073.97 1318.2> 743.347 147.653<365.213 612.086 360.792 663.663> 791 52.3467<370.449 618.995>
LayerCount: 2
Fore
SplineSet
243.916992188 2.154296875 m 1x08
 268.916992188 2.154296875 l 1
 268.916992188 8.6484375 295.103515625 101.17578125 306.313476562 145.329101562 c 2
 307.337890625 149.366210938 l 1
 307.337890625 153.487304688 l 1
 307.337890625 1073.96875 l 1
 307.337890625 1318.19726562 l 1
 257.337890625 1318.19726562 l 1
 207.337890625 1318.19726562 l 1
 207.337890625 1073.96875 l 1
 207.337890625 157.622070312 l 1
 193.51953125 103.646484375 168.916992188 25.7421875 168.916992188 2.154296875 c 1
 218.916992188 2.154296875 l 1
 243.916992188 2.154296875 l 1x08
218.916992188 2.154296875 m 1
 268.916992188 2.154296875 l 1
 268.916992188 171.307617188 l 1
 268.916992188 1073.96875 l 1
 268.916992188 1318.19726562 l 1
 218.916992188 1318.19726562 l 1
 168.916992188 1318.19726562 l 1
 168.916992188 1073.96875 l 1
 168.916992188 171.307617188 l 1
 168.916992188 2.154296875 l 1
 218.916992188 2.154296875 l 1
218.379882812 751.118164062 m 1
 252.4140625 721.44921875 l 1
 329.733398438 779.641601562 486.733398438 864.895507812 514.885742188 864.895507812 c 2
 609.461914062 864.205078125 l 2
 719.274414062 864.205078125 791 748.989257812 791 489.000976562 c 0
 791 226.595703125 693.034179688 66.7001953125 545.029296875 66.7001953125 c 0x5a
 405.322265625 66.7001953125 260.6640625 211.200195312 256.626953125 215.532226562 c 1
 216.6171875 191.243164062 l 1
 176.607421875 166.954101562 l 1
 176.607421875 166.954101562 334.309570312 -14.2998046875 545.029296875 -14.2998046875 c 0
 799.297851562 -14.2998046875 891 232.583007812 891 489.000976562 c 0
 891 735.171875 829.655273438 945.205078125 609.913085938 945.205078125 c 2
 515.336914062 945.895507812 l 2xac
 414.586914062 945.895507812 263.909179688 840.668945312 184.345703125 780.788085938 c 1
 218.379882812 751.118164062 l 1
257.192382812 153.235351562 m 1
 218.759765625 127.329101562 l 2
 221.186523438 124.966796875 332.47265625 14.0498046875 519.110351562 14.0498046875 c 0
 780.234375 15.3544921875 843.346679688 251.171875 843.346679688 489.7265625 c 0
 843.346679688 846.146484375 723.770507812 930.637695312 543.010742188 929.349609375 c 0x5a
 371.94140625 929.349609375 223.361328125 808.848632812 222.586914062 808.250976562 c 2
 257.0625 778.91796875 l 1
 291.538085938 749.584960938 l 2
 293.958007812 751.451171875 428.377929688 848.349609375 543.450195312 848.349609375 c 0
 653.465820312 849.133789062 743.346679688 837.598632812 743.346679688 489.7265625 c 0
 743.346679688 240.700195312 673.365234375 95.822265625 518.801757812 95.0498046875 c 0xac
 387.755859375 95.0498046875 297.84765625 177.024414062 295.625976562 179.142578125 c 2
 257.192382812 153.235351562 l 1
EndSplineSet
Validated: 37
EndChar

StartChar: c
Encoding: 99 99 69
Width: 1024
GlyphClass: 2
Flags: MW
HStem: -14.3057 97.2061<533 533> 1.90039 64.7949<532.984 635.176> 848.35 97.1953<448.886 490.859 490.859 575.459 372.342 615.309> 864.545 64.8047<490.859 575.459 575.459 649.477 405.697 654.556>
VStem: 122.762 140.317<352.287 598.703> 163.079 59.6826<352.025 595.331 323.666 606.695> 772.431 147.227<274.506 329.945 274.506 329.95> 819.657 52.7734<280.265 329.945>
LayerCount: 2
Fore
SplineSet
869.657226562 329.9453125 m 1xaa
 819.657226562 329.9453125 l 1
 819.657226562 230.583984375 773.516601562 66.6953125 532.984375 66.6953125 c 0
 378.696289062 64.7392578125 222.76171875 187.202148438 222.76171875 460.129882812 c 0
 222.76171875 730.53125 347.283203125 864.544921875 490.859375 864.544921875 c 2
 575.458984375 864.544921875 l 2x55
 733.65234375 864.544921875 819.159179688 764.745117188 819.159179688 631.579101562 c 1
 869.159179688 631.579101562 l 1
 919.159179688 631.579101562 l 1
 919.159179688 792.029296875 803.4375 945.544921875 575.458984375 945.544921875 c 2
 490.859375 945.544921875 l 2
 253.82421875 945.544921875 122.76171875 737.276367188 122.76171875 460.129882812 c 0
 122.76171875 167.575195312 299.368164062 -16.8232421875 533.6953125 -14.3056640625 c 0
 857.555664062 -13.6201171875 919.657226562 219.067382812 919.657226562 329.9453125 c 1
 869.657226562 329.9453125 l 1xaa
822.430664062 329.950195312 m 1
 772.430664062 329.950195312 l 1
 772.430664062 180.116210938 665.934570312 82.900390625 533.325195312 82.900390625 c 0
 350.499023438 82.900390625 263.079101562 231.970703125 263.079101562 472.603515625 c 0
 263.079101562 732.625 364.96875 848.349609375 532.802734375 848.349609375 c 0xaa
 697.814453125 848.349609375 771.086914062 752.106445312 771.086914062 630.85546875 c 1
 821.086914062 630.85546875 l 1
 871.086914062 630.85546875 l 1
 871.086914062 779.208007812 766.150390625 929.349609375 532.802734375 929.349609375 c 0
 278.591796875 929.349609375 163.079101562 740.787109375 163.079101562 472.603515625 c 0
 163.079101562 231.447265625 254.694335938 1.900390625 533.325195312 1.900390625 c 0
 737.026367188 1.900390625 872.430664062 151.209960938 872.430664062 329.950195312 c 1
 822.430664062 329.950195312 l 1
EndSplineSet
Validated: 37
EndChar

StartChar: d
Encoding: 100 100 70
Width: 1016
GlyphClass: 2
Flags: MW
HStem: -14.2998 109.35<498.577 558.859 417.626 619.808> 14.0498 52.6504<497.794 575.014 497.794 591.465> 849.162 98.0078<418.871 433.635 433.635 518.233 322.841 566.479> 866.17 63.9922<433.635 518.233 518.233 582.442>
VStem: 116.762 140.317<351.938 599.158> 157.079 59.6826<353.4 601.632 333.088 616.761> 756.48 61.5781<2.1543 1073.97 186.13 1073.97 186.13 1073.97 1073.97 1318.2>
LayerCount: 2
Fore
SplineSet
806.48046875 2.154296875 m 1x02
 856.4765625 2.6904296875 l 1
 855.991210938 32.3056640625 831.209960938 125.06640625 818.05859375 186.129882812 c 1
 818.05859375 1073.96875 l 1
 818.05859375 1318.19726562 l 1
 768.05859375 1318.19726562 l 1
 718.05859375 1318.19726562 l 1
 718.05859375 1073.96875 l 1
 718.05859375 182.647460938 l 1
 718.05859375 179.180664062 l 1
 718.786132812 175.765625 l 2
 731.181640625 117.537109375 755.717773438 13.7490234375 756.484375 1.6171875 c 1
 806.48046875 2.154296875 l 1x02
806.48046875 2.154296875 m 1
 856.48046875 2.154296875 l 1
 856.48046875 171.307617188 l 1
 856.48046875 1073.96875 l 1
 856.48046875 1318.19726562 l 1
 806.48046875 1318.19726562 l 1
 756.48046875 1318.19726562 l 1
 756.48046875 1073.96875 l 1
 756.48046875 171.307617188 l 1
 756.48046875 2.154296875 l 1
 806.48046875 2.154296875 l 1
781.564453125 648.734375 m 1
 856.564453125 648.734375 l 1
 856.564453125 697.234375 747.741210938 947.169921875 518.233398438 947.169921875 c 2
 433.634765625 947.169921875 l 2
 212.046875 947.169921875 116.76171875 726.841796875 116.76171875 471.474609375 c 0
 116.76171875 185.200195312 259.922851562 -17.3251953125 498.577148438 -14.2998046875 c 0xaa
 741.038085938 -14.2998046875 852.069335938 220.993164062 852.069335938 220.993164062 c 1
 759.862304688 252.342773438 l 1
 755.5390625 243.999023438 652.233398438 66.7001953125 497.793945312 66.7001953125 c 0
 348.838867188 64.8115234375 216.76171875 194.701171875 216.76171875 471.474609375 c 0
 216.76171875 731.790039062 318.482421875 866.169921875 433.634765625 866.169921875 c 2
 518.233398438 866.169921875 l 2x56
 646.650390625 866.169921875 750.5625 685.856445312 756.451171875 648.734375 c 1
 781.564453125 648.734375 l 1
767.864257812 743.051757812 m 1
 812.811523438 760.793945312 l 2
 812.203125 761.8046875 714.64453125 930.162109375 491.577148438 930.162109375 c 0
 256.884765625 930.162109375 157.079101562 760.82421875 157.079101562 472.697265625 c 0
 157.079101562 234.103515625 243.969726562 14.0498046875 490.134765625 14.0498046875 c 0x56
 692.795898438 14.0498046875 808.837890625 159.426757812 809.803710938 160.588867188 c 2
 768.325195312 183.204101562 l 1
 726.846679688 205.819335938 l 1
 723.991210938 202.3828125 627.583007812 95.0498046875 490.134765625 95.0498046875 c 0
 345.118164062 95.0498046875 257.079101562 231.177734375 257.079101562 472.697265625 c 0
 257.079101562 758.462890625 346.1640625 849.162109375 491.577148438 849.162109375 c 0
 641.381835938 849.162109375 719.702148438 730.513671875 722.916015625 725.310546875 c 1
 767.864257812 743.051757812 l 1
EndSplineSet
Validated: 37
EndChar

StartChar: e
Encoding: 101 101 71
Width: 1024
GlyphClass: 2
Flags: MW
HStem: -12.2314 95.8477<479.209 555.864> 2.61621 66.1523<454.33 556.647 454.33 634.495> 847.636 97.1729<514.146 559.379 474.496 591.202> 863.809 64.8271<514.437 559.379 559.379 626.177 514.437 633.482>
VStem: 128.471 135.259 165.127 65.3438<313.466 424.788> 761.749 134.133<520.277 520.277> 795.882 65.8516<479.765 589.2 479.765 520.277>
LayerCount: 2
Fore
SplineSet
846.024414062 203.453125 m 1xaa
 796.024414062 203.453125 l 1
 796.024414062 184.282226562 732.049804688 66.544921875 556.647460938 68.7685546875 c 0
 352.01171875 68.7685546875 230.470703125 191.564453125 230.470703125 435.3671875 c 0x44
 230.340820312 437.985351562 230.358398438 437.647460938 230.284179688 439.27734375 c 2
 845.881835938 439.27734375 l 1
 895.881835938 439.27734375 l 1
 895.881835938 479.77734375 l 1
 895.881835938 589.200195312 l 2
 895.881835938 742.586914062 796.69140625 944.80859375 559.37890625 944.80859375 c 2
 474.49609375 944.80859375 l 2
 257.151367188 941.8046875 131.284179688 766.029296875 130.470703125 590.443359375 c 0
 129.203125 565.984375 128.479492188 515.615234375 128.470703125 514.961914062 c 0
 128.483398438 513.935546875 128.5703125 506.834960938 128.772460938 495.23046875 c 0
 129.0859375 477.263671875 129.626953125 451.25 130.470703125 433.741210938 c 0
 130.80859375 172.274414062 278.91796875 -12.2314453125 555.864257812 -12.2314453125 c 0
 793.133789062 -15.2392578125 896.024414062 139.728515625 896.024414062 203.453125 c 1
 846.024414062 203.453125 l 1xaa
228.556640625 520.27734375 m 1
 228.787109375 534.6796875 229.3984375 568.655273438 230.470703125 588.704101562 c 0
 230.470703125 742.654296875 338.083984375 861.541992188 475.362304688 863.80859375 c 2
 559.37890625 863.80859375 l 2
 707.5859375 863.80859375 795.881835938 728.934570312 795.881835938 589.200195312 c 2
 795.881835938 520.27734375 l 1x15
 228.556640625 520.27734375 l 1
785.184570312 203.391601562 m 1
 771.684570312 203.391601562 l 1
 748.684570312 203.391601562 l 1
 748.684570312 177.026367188 664.912109375 83.6162109375 551.745117188 83.6162109375 c 0x85
 406.672851562 83.6162109375 265.126953125 181.091796875 265.126953125 425.270507812 c 2
 264.920898438 439.27734375 l 1
 811.733398438 439.27734375 l 1
 861.717773438 439.27734375 l 1
 861.733398438 479.764648438 l 1
 861.766601562 564.55859375 l 2
 861.766601562 789.479492188 737.916992188 928.635742188 514.436523438 928.635742188 c 0
 298.920898438 929.650390625 163.0625 791.856445312 163.0625 565.1171875 c 2
 164.094726562 494.953125 l 1
 165.126953125 424.788085938 l 2
 165.126953125 156.150390625 335.411132812 2.6162109375 551.745117188 2.6162109375 c 0x55
 717.244140625 2.6162109375 848.684570312 119.1484375 848.684570312 203.391601562 c 1
 798.684570312 203.391601562 l 1
 785.184570312 203.391601562 l 1
263.729492188 520.27734375 m 1x2a
 263.0625 565.622070312 l 2
 263.405273438 767.989257812 367.431640625 848.327148438 514.145507812 847.635742188 c 0
 668.258789062 847.635742188 761.766601562 767.81640625 761.766601562 564.583984375 c 2
 761.749023438 520.27734375 l 1
 263.729492188 520.27734375 l 1x2a
EndSplineSet
Validated: 37
EndChar

StartChar: f
Encoding: 102 102 72
Width: 624
GlyphClass: 2
Flags: MW
HStem: 1208.03 110.312<371.279 566.086 566.086 566.086> 1237.35 51.6885<360.575 371.279 371.279 566.086>
VStem: 165.372 136.166<1.37695 1093.01 1.37695 1136.54> 201.538 63.834<1.37695 1093.01 1093.01 1136.54 1.37695 1093.01>
LayerCount: 2
Fore
SplineSet
215.372070312 1.376953125 m 1xa0
 265.372070312 1.376953125 l 1
 265.372070312 1093.01464844 l 2
 265.372070312 1204.18554688 278.890625 1237.34570312 360.575195312 1237.34570312 c 2
 566.174804688 1237.34570312 l 1x50
 566.174804688 1277.84570312 l 1
 566.174804688 1318.34570312 l 1
 360.575195312 1318.34570312 l 2
 188.78515625 1318.34570312 165.372070312 1198.86132812 165.372070312 1093.01464844 c 2
 165.372070312 1.376953125 l 1
 215.372070312 1.376953125 l 1xa0
251.538085938 1.376953125 m 1
 301.538085938 1.376953125 l 1
 301.538085938 1136.54394531 l 2
 301.538085938 1195.82617188 311.517578125 1208.03417969 371.279296875 1208.03417969 c 2
 566.0859375 1208.03417969 l 1xa0
 566.0859375 1248.53417969 l 1
 566.0859375 1289.03417969 l 1
 371.279296875 1289.03417969 l 2
 247.296875 1289.03417969 201.538085938 1216.36425781 201.538085938 1136.54394531 c 2
 201.538085938 1.376953125 l 1
 251.538085938 1.376953125 l 1
26.3818359375 901.571289062 m 1
 26.3818359375 861.071289062 l 1
 552.7890625 861.071289062 l 1
 552.7890625 901.571289062 l 1
 552.7890625 942.071289062 l 1
 26.3818359375 942.071289062 l 1
 26.3818359375 901.571289062 l 1
24.654296875 901.571289062 m 1
 24.654296875 861.071289062 l 1
 551.772460938 861.071289062 l 1
 551.772460938 901.571289062 l 1
 551.772460938 942.071289062 l 1
 24.654296875 942.071289062 l 1
 24.654296875 901.571289062 l 1
EndSplineSet
Validated: 5
EndChar

StartChar: g
Encoding: 103 103 73
Width: 944
GlyphClass: 2
Flags: MW
HStem: -223.627 117.581<368.977 428.446> -187.046 44.4189 37.5742 106.895<432 432> 63.4688 55.1084<431.794 507.091 431.794 535.939> 849.162 98.0078<370.763 399.635 399.635 484.233 289.141 514.513> 866.17 63.9922<399.635 484.233 484.233 549.076 318.339 553.941>
VStem: 114.762 140.317<372.157 616.805 372.157 627.966> 155.079 59.6826<381.688 608.893> 646.994 100<20.2935 759.247 95.4492 759.247 95.4492 762.491 95.4492 765.712> 683.16 63.834<131.636 759.247 95.4492 945.55 131.636 131.636> 683.16 100<133.27 945.55 133.27 945.55 131.636 945.55 936.725 945.55>
LayerCount: 2
Fore
SplineSet
733.16015625 945.549804688 m 1x8020
 683.16015625 945.549804688 l 1
 683.16015625 131.635742188 l 1
 695.017578125 -105.1953125 580.708984375 -137.368164062 426.430664062 -142.626953125 c 1x4020
 266.821289062 -142.526367188 192.796875 -130.65625 191.727539062 -130.48828125 c 2
 181.938476562 -170.204101562 l 1
 172.150390625 -209.920898438 l 2
 175.958984375 -210.537109375 257.040039062 -223.626953125 428.446289062 -223.626953125 c 1
 623.685546875 -217.295898438 796.487304688 -142.108398438 783.16015625 133.26953125 c 1
 783.16015625 945.549804688 l 1
 733.16015625 945.549804688 l 1x8020
733.16015625 945.549804688 m 1
 683.16015625 945.549804688 l 1x4020
 683.16015625 927.900390625 659.72265625 830.13671875 647.622070312 768.891601562 c 2
 646.994140625 765.711914062 l 1
 646.994140625 762.491210938 l 1
 646.994140625 95.44921875 l 2
 646.994140625 -54.8623046875 580.125 -106.045898438 437.71484375 -106.045898438 c 0x8080
 300.239257812 -106.045898438 201.064453125 -91.212890625 200.696289062 -91.158203125 c 2
 191.510742188 -130.96875 l 1
 182.325195312 -170.779296875 l 2
 184.348632812 -171.0859375 289.708007812 -187.045898438 437.71484375 -187.045898438 c 0
 636.31640625 -187.045898438 746.994140625 -85.0830078125 746.994140625 95.44921875 c 2
 746.994140625 759.247070312 l 1x4080
 759.249023438 820.09765625 783.16015625 906.596679688 783.16015625 945.549804688 c 1
 733.16015625 945.549804688 l 1
733.028320312 648.734375 m 1
 783.028320312 648.734375 l 1
 783.028320312 685.806640625 730.989257812 947.169921875 484.233398438 947.169921875 c 2
 399.634765625 947.169921875 l 2
 178.647460938 947.169921875 114.76171875 755.296875 114.76171875 500.634765625 c 0
 114.76171875 215.720703125 190.0546875 34.94921875 432.271484375 37.57421875 c 0x2a
 680.155273438 38.7958984375 780.33984375 299.948242188 780.33984375 299.948242188 c 1
 733.176757812 313.395507812 l 1
 686.013671875 326.84375 l 1
 681.685546875 316.884765625 582.387695312 118.577148438 431.793945312 118.577148438 c 0
 285.963867188 116.728515625 214.76171875 209.182617188 214.76171875 500.634765625 c 0
 214.76171875 766.223632812 283.881835938 866.169921875 399.634765625 866.169921875 c 2
 484.233398438 866.169921875 l 2x15
 623.649414062 866.169921875 683.028320312 681.407226562 683.028320312 648.734375 c 1
 733.028320312 648.734375 l 1
674.303710938 754.874023438 m 1
 697.069335938 763.244140625 l 1
 742.598632812 779.983398438 l 2
 740.889648438 783.033203125 658.575195312 930.162109375 439.577148438 930.162109375 c 0
 197.100585938 930.162109375 155.079101562 736.987304688 155.079101562 480.797851562 c 0
 155.079101562 282.577148438 181.537109375 63.46875 432.134765625 63.46875 c 0x15
 639.743164062 63.46875 740.920898438 230.790039062 740.920898438 230.790039062 c 1
 696.533203125 249.432617188 l 1
 652.145507812 268.07421875 l 1
 648.866210938 262.953125 564.788085938 144.46875 432.134765625 144.46875 c 0
 291.55078125 144.46875 255.079101562 263.516601562 255.079101562 480.797851562 c 0
 255.079101562 752.811523438 301.948242188 849.162109375 439.577148438 849.162109375 c 0
 589.44921875 849.162109375 649.319335938 750.29296875 651.537109375 746.50390625 c 1
 674.303710938 754.874023438 l 1
EndSplineSet
Validated: 37
EndChar

StartChar: h
Encoding: 104 104 74
Width: 1024
GlyphClass: 2
Flags: MW
HStem: 848.35 97.4912<480.892 520.986 423.992 633.702> 864.841 64.5088
VStem: 717.505 136.376<1.9082 648.242 1.9082 1.9082> 753.881 63.624<1.9082 648.242 648.242 696.12 1.9082 700.66 1.8916 648.242>
LayerCount: 2
Fore
SplineSet
252.5 1.900390625 m 1x00
 302.5 1.900390625 l 1
 302.5 1318.15039062 l 1
 252.5 1318.15039062 l 1
 202.5 1318.15039062 l 1
 202.5 1.900390625 l 1
 252.5 1.900390625 l 1x00
214.73046875 1.900390625 m 1
 264.73046875 1.900390625 l 1
 264.73046875 1318.15039062 l 1
 214.73046875 1318.15039062 l 1
 164.73046875 1318.15039062 l 1
 164.73046875 1.900390625 l 1
 214.73046875 1.900390625 l 1
213.723632812 690.913085938 m 1
 256.432617188 669.854492188 l 1
 262.319335938 677.686523438 420.513671875 864.172851562 520.44921875 864.840820312 c 0
 526.475585938 864.790039062 588.075195312 864.259765625 589.8515625 864.259765625 c 0
 741.504882812 864.259765625 753.880859375 763.529296875 753.880859375 700.66015625 c 2
 753.880859375 1.8916015625 l 1x50
 803.880859375 1.8916015625 l 1
 853.880859375 1.8916015625 l 1
 853.880859375 700.66015625 l 2
 853.880859375 762.9921875 835.041015625 944.473632812 589.620117188 945.262695312 c 0
 588.323242188 945.272460938 521.286132812 945.838867188 520.986328125 945.840820312 c 0xa0
 326.998046875 945.840820312 171.014648438 711.971679688 171.014648438 711.971679688 c 1
 213.723632812 690.913085938 l 1
254.354492188 741.522460938 m 1
 296.879882812 720.221679688 l 1
 300.200195312 724.5703125 402.23828125 848.349609375 559.544921875 848.349609375 c 0
 707.859375 848.349609375 717.504882812 754.16015625 717.504882812 648.2421875 c 2
 717.504882812 1.908203125 l 1xa0
 767.504882812 1.908203125 l 1
 817.504882812 1.908203125 l 1
 817.504882812 648.2421875 l 2
 817.504882812 743.998046875 805.248046875 929.349609375 559.544921875 929.349609375 c 0
 334.352539062 929.349609375 212.65625 763.908203125 211.829101562 762.823242188 c 2
 254.354492188 741.522460938 l 1
EndSplineSet
Validated: 5
EndChar

StartChar: i
Encoding: 105 105 75
Width: 432
GlyphClass: 2
Flags: MW
VStem: 150.73 137.77<1.90039 956.973 1.90039 956.973 1103.85 1316.97>
LayerCount: 2
Fore
SplineSet
238.5 1.900390625 m 1
 288.5 1.900390625 l 1
 288.5 956.97265625 l 1
 238.5 956.97265625 l 1
 188.5 956.97265625 l 1
 188.5 1.900390625 l 1
 238.5 1.900390625 l 1
200.73046875 1.900390625 m 1
 250.73046875 1.900390625 l 1
 250.73046875 956.97265625 l 1
 200.73046875 956.97265625 l 1
 150.73046875 956.97265625 l 1
 150.73046875 1.900390625 l 1
 200.73046875 1.900390625 l 1
238.5 1103.85449219 m 1
 288.5 1103.85449219 l 1
 288.5 1316.96679688 l 1
 238.5 1316.96679688 l 1
 188.5 1316.96679688 l 1
 188.5 1103.85449219 l 1
 238.5 1103.85449219 l 1
200.73046875 1103.85449219 m 1
 250.73046875 1103.85449219 l 1
 250.73046875 1316.96679688 l 1
 200.73046875 1316.96679688 l 1
 150.73046875 1316.96679688 l 1
 150.73046875 1103.85449219 l 1
 200.73046875 1103.85449219 l 1
EndSplineSet
Validated: 5
EndChar

StartChar: j
Encoding: 106 106 76
Width: 448
GlyphClass: 2
Flags: MW
HStem: -230.49 81<-10.4424 47.1572 -10.4424 113.205> -230.49 123.272<-10.3428 -10.3428 -10.3428 47.1572 -10.3428 113.205> -188.212 38.7217
VStem: 154.195 136.165<-54.2397 945.55 -16.5439 945.55 -16.5439 945.55> 190.36 63.835<-28.4414 -16.5439 -16.5439 945.55>
LayerCount: 2
Fore
SplineSet
240.360351562 945.549804688 m 1x50
 190.360351562 945.549804688 l 1
 190.360351562 -16.5439453125 l 2
 190.360351562 -140.271484375 143.036132812 -149.490234375 47.1572265625 -149.490234375 c 2x88
 -10.4423828125 -149.490234375 l 1x28
 -10.4423828125 -189.990234375 l 1
 -10.4423828125 -230.490234375 l 1x88
 47.1572265625 -230.490234375 l 2
 179.252929688 -230.490234375 290.360351562 -180.715820312 290.360351562 -16.5439453125 c 2
 290.360351562 945.549804688 l 1
 240.360351562 945.549804688 l 1x50
204.1953125 945.549804688 m 1
 154.1953125 945.549804688 l 1
 154.1953125 -28.44140625 l 2
 154.1953125 -80.0380859375 141.022460938 -106.204101562 81.4033203125 -107.219726562 c 0
 74.568359375 -107.239257812 -10.3427734375 -107.217773438 -10.3427734375 -107.217773438 c 1x50
 -10.3583984375 -147.717773438 l 1
 -10.3740234375 -188.217773438 l 2
 -9.84765625 -188.217773438 79.2861328125 -188.265625 82.7490234375 -188.211914062 c 0x30
 219.927734375 -186.525390625 254.1953125 -92.623046875 254.1953125 -28.44140625 c 2
 254.1953125 945.549804688 l 1
 204.1953125 945.549804688 l 1
240.5 1103.85449219 m 1
 290.5 1103.85449219 l 1
 290.5 1316.96679688 l 1
 240.5 1316.96679688 l 1
 190.5 1316.96679688 l 1
 190.5 1103.85449219 l 1
 240.5 1103.85449219 l 1
204.73046875 1103.85449219 m 1
 254.73046875 1103.85449219 l 1
 254.73046875 1316.96679688 l 1
 204.73046875 1316.96679688 l 1
 154.73046875 1316.96679688 l 1
 154.73046875 1103.85449219 l 1
 204.73046875 1103.85449219 l 1
EndSplineSet
Validated: 37
EndChar

StartChar: k
Encoding: 107 107 77
Width: 944
GlyphClass: 2
Flags: W
LayerCount: 2
Fore
SplineSet
252.5 1.900390625 m 1
 302.5 1.900390625 l 1
 302.5 1318.15039062 l 1
 252.5 1318.15039062 l 1
 202.5 1318.15039062 l 1
 202.5 1.900390625 l 1
 252.5 1.900390625 l 1
214.73046875 1.900390625 m 1
 264.73046875 1.900390625 l 1
 264.73046875 1318.15039062 l 1
 214.73046875 1318.15039062 l 1
 164.73046875 1318.15039062 l 1
 164.73046875 1.900390625 l 1
 214.73046875 1.900390625 l 1
735.495117188 945.549804688 m 1
 251.883789062 456.528320312 l 1
 251.883789062 416.028320312 l 1
 311.317382812 416.028320312 787.495117188 911.306640625 787.495117188 945.549804688 c 1
 735.495117188 945.549804688 l 1
782.495117188 945.549804688 m 1
 215.446289062 401.239257812 l 1
 215.446289062 360.739257812 l 1
 276.872070312 360.739257812 835.495117188 910.731445312 835.495117188 945.549804688 c 1
 782.495117188 945.549804688 l 1
724.147460938 1.900390625 m 1
 810.147460938 1.900390625 l 1
 810.147460938 54.5400390625 457.541015625 616.953125 455.360351562 620.579101562 c 1
 365.456054688 585.11328125 l 1
 365.456054688 585.11328125 682.26171875 59.228515625 707.59375 1.900390625 c 1
 724.147460938 1.900390625 l 1
808.608398438 1.900390625 m 1
 858.608398438 1.900390625 l 1
 858.608398438 45.7763671875 482.025390625 621.53515625 479.71875 625.21875 c 1
 390.533203125 588.580078125 l 1
 390.533203125 588.580078125 734.78125 38.4716796875 760.934570312 -10.337890625 c 1
 808.608398438 1.900390625 l 1
EndSplineSet
Validated: 5
EndChar

StartChar: l
Encoding: 108 108 78
Width: 432
GlyphClass: 2
Flags: MW
HStem: 1.90039 121.5<346.277 356.981 356.981 390 323.37 390> 42.4004 40.5<356.981 390>
VStem: 151.074 136.166<183.18 226.708 226.708 1318.35> 187.24 63.834<141.221 1318.35 226.708 1318.35 226.708 1318.35>
LayerCount: 2
Fore
SplineSet
201.07421875 1318.34570312 m 1x50
 151.07421875 1318.34570312 l 1
 151.07421875 226.708007812 l 2
 151.07421875 120.763671875 174.654296875 1.900390625 346.27734375 1.900390625 c 2
 390 1.900390625 l 1xa0
 390 42.400390625 l 1
 390 82.900390625 l 1
 346.27734375 82.900390625 l 2
 264.42578125 82.900390625 251.07421875 115.634765625 251.07421875 226.708007812 c 2
 251.07421875 1318.34570312 l 1
 201.07421875 1318.34570312 l 1x50
237.240234375 1318.34570312 m 1
 187.240234375 1318.34570312 l 1
 187.240234375 183.1796875 l 2
 187.240234375 99.26171875 240.4609375 42.400390625 356.981445312 42.400390625 c 2
 390 42.400390625 l 1
 390 82.900390625 l 1x50
 390 123.400390625 l 1
 356.981445312 123.400390625 l 2
 289.7578125 123.400390625 287.240234375 127.9921875 287.240234375 183.1796875 c 2
 287.240234375 1318.34570312 l 1
 237.240234375 1318.34570312 l 1
EndSplineSet
Validated: 5
EndChar

StartChar: m
Encoding: 109 109 79
Width: 1504
GlyphClass: 2
Flags: MW
HStem: 848.35 97.2002<425.122 482.284 482.284 541.174 949.301 1016.85 1016.85 1075.74> 864.55 64.7998<482.284 541.174 541.174 618.945 1016.85 1075.74 1075.74 1153.21>
VStem: 671.505 136.376<1.9082 648.242 1.9082 1.9082> 707.881 63.624<1.9082 648.242 648.242 688.782 1.9082 708.76 1.8916 648.242> 1205.12 136.361<1.85547 648.242 1.85547 1.90039> 1241.48 63.6387<1.94434 1.94434>
LayerCount: 2
Fore
SplineSet
239.99609375 945.549804688 m 1x80
 214.731445312 945.549804688 l 1
 164.731445312 945.549804688 l 1
 164.731445312 921.2109375 188.430664062 853.869140625 202.5 802.82421875 c 1
 202.5 1.900390625 l 1
 252.5 1.900390625 l 1
 302.5 1.900390625 l 1
 302.5 807.26953125 l 1
 302.5 811.696289062 l 1
 301.319335938 816.017578125 l 2
 289.799804688 858.193359375 268.200195312 931.458007812 265.260742188 945.549804688 c 1
 239.99609375 945.549804688 l 1x80
214.73046875 1.900390625 m 1
 264.73046875 1.900390625 l 1
 264.73046875 124.168945312 l 1
 264.731445312 779.237304688 l 1
 264.731445312 945.549804688 l 1
 214.731445312 945.549804688 l 1
 164.731445312 945.549804688 l 1
 164.731445312 779.237304688 l 1
 164.73046875 124.168945312 l 1
 164.73046875 1.900390625 l 1
 214.73046875 1.900390625 l 1
214.875976562 765.076171875 m 1
 258.397460938 745.138671875 l 1
 261.635742188 749.775390625 349.825195312 864.549804688 482.284179688 864.549804688 c 2
 541.173828125 864.549804688 l 2
 696.716796875 864.549804688 707.880859375 743.759765625 707.880859375 708.759765625 c 2
 707.880859375 1.8916015625 l 1x50
 757.880859375 1.8916015625 l 1
 807.880859375 1.8916015625 l 1
 807.880859375 708.759765625 l 2x60
 807.880859375 742.294921875 793.189453125 945.549804688 541.173828125 945.549804688 c 2
 482.284179688 945.549804688 l 2
 277.750976562 945.549804688 171.565429688 785.315429688 171.354492188 785.013671875 c 2
 214.875976562 765.076171875 l 1
252.354492188 800.2265625 m 1
 293.323242188 777.008789062 l 2
 295.063476562 779.024414062 359.038085938 848.349609375 491.206054688 848.349609375 c 0
 671.029296875 848.349609375 671.504882812 738.963867188 671.504882812 648.2421875 c 2
 671.504882812 1.908203125 l 1xa0
 721.504882812 1.908203125 l 1
 771.504882812 1.908203125 l 1
 771.504882812 648.2421875 l 2
 771.504882812 729.321289062 766.146484375 929.349609375 491.206054688 929.349609375 c 0
 304.0859375 929.349609375 214.987304688 827.61328125 211.385742188 823.443359375 c 1
 252.354492188 800.2265625 l 1
750.265625 759.918945312 m 1
 794.245117188 740.65234375 l 1
 797.713867188 745.84765625 885.532226562 864.549804688 1016.84863281 864.549804688 c 2
 1075.74316406 864.549804688 l 2
 1230.68554688 864.549804688 1242.43652344 741.248046875 1242.43652344 705.831054688 c 2
 1241.47753906 1.9443359375 l 1x44
 1291.47753906 1.900390625 l 1
 1341.47753906 1.85546875 l 1x48
 1342.43652344 705.764648438 l 2
 1342.43652344 738.921875 1328.3359375 945.549804688 1075.74316406 945.549804688 c 2
 1016.84863281 945.549804688 l 2
 811.069335938 945.549804688 706.286132812 779.185546875 706.286132812 779.185546875 c 1
 750.265625 759.918945312 l 1
716.87890625 720.791015625 m 1
 760.276367188 700.67578125 l 1
 763.77734375 705.631835938 873.799804688 848.349609375 1024.80273438 848.349609375 c 0
 1204.6328125 848.349609375 1205.11621094 738.959960938 1205.11621094 648.2421875 c 2
 1205.11621094 1.900390625 l 1x88
 1255.11621094 1.900390625 l 1
 1305.11621094 1.900390625 l 1
 1305.11621094 648.2421875 l 2
 1305.11621094 729.32421875 1299.74414062 929.349609375 1024.80273438 929.349609375 c 0
 799.077148438 929.349609375 673.481445312 740.905273438 673.481445312 740.905273438 c 1
 716.87890625 720.791015625 l 1
EndSplineSet
Validated: 5
EndChar

StartChar: n
Encoding: 110 110 80
Width: 1024
GlyphClass: 2
Flags: MW
HStem: 848.35 97.4912<480.892 520.986 423.992 633.702> 864.841 64.5088
VStem: 202.5 62.2305<1.90039 124.169 124.169 738.896 1.90039 124.169> 717.505 136.376<1.9082 648.242 1.9082 1.9082> 753.881 63.624<1.9082 648.242 648.242 696.12 1.9082 700.66 1.8916 648.242>
LayerCount: 2
Fore
SplineSet
239.913085938 945.348632812 m 1x20
 214.7421875 945.549804688 l 1
 164.744140625 945.94921875 l 1
 164.518554688 927.354492188 197.056640625 767.3984375 202.5 738.895507812 c 1
 202.5 1.900390625 l 1
 252.5 1.900390625 l 1
 302.5 1.900390625 l 1
 302.5 742.010742188 l 1
 302.5 745.127929688 l 1
 301.911132812 748.208984375 l 1
 301.911132812 748.208984375 266.883789062 932.76953125 265.083984375 945.1484375 c 1
 239.913085938 945.348632812 l 1x20
214.73046875 1.900390625 m 1
 264.73046875 1.900390625 l 1
 264.73046875 124.168945312 l 1
 264.73046875 779.237304688 l 1
 264.73046875 945.549804688 l 1
 214.73046875 945.549804688 l 1
 164.73046875 945.549804688 l 1
 164.73046875 779.237304688 l 1
 164.73046875 124.168945312 l 1
 164.73046875 1.900390625 l 1
 214.73046875 1.900390625 l 1
213.723632812 690.913085938 m 1
 256.432617188 669.854492188 l 1
 262.319335938 677.686523438 420.513671875 864.172851562 520.44921875 864.840820312 c 0
 526.475585938 864.790039062 588.075195312 864.259765625 589.8515625 864.259765625 c 0
 741.504882812 864.259765625 753.880859375 763.529296875 753.880859375 700.66015625 c 2
 753.880859375 1.8916015625 l 1x68
 803.880859375 1.8916015625 l 1
 853.880859375 1.8916015625 l 1
 853.880859375 700.66015625 l 2
 853.880859375 762.9921875 835.041015625 944.473632812 589.620117188 945.262695312 c 0
 588.323242188 945.272460938 521.286132812 945.838867188 520.986328125 945.840820312 c 0xb0
 326.998046875 945.840820312 171.014648438 711.971679688 171.014648438 711.971679688 c 1
 213.723632812 690.913085938 l 1
254.354492188 741.522460938 m 1
 296.879882812 720.221679688 l 1
 300.200195312 724.5703125 402.23828125 848.349609375 559.544921875 848.349609375 c 0
 707.859375 848.349609375 717.504882812 754.16015625 717.504882812 648.2421875 c 2
 717.504882812 1.908203125 l 1xb0
 767.504882812 1.908203125 l 1
 817.504882812 1.908203125 l 1
 817.504882812 648.2421875 l 2
 817.504882812 743.998046875 805.248046875 929.349609375 559.544921875 929.349609375 c 0
 334.352539062 929.349609375 212.65625 763.908203125 211.829101562 762.823242188 c 2
 254.354492188 741.522460938 l 1
EndSplineSet
Validated: 37
EndChar

StartChar: o
Encoding: 111 111 81
Width: 1040
GlyphClass: 2
Flags: MW
HStem: -12.3721 95.9619 2.58984 66.0361 849.362 97.1924<514.148 555.459 470.433 588.685> 865.555 64.8076<514.439 555.459 555.459 627.301>
VStem: 129.909 132.646<335.218 602.932> 162.556 67.3535<337.894 603.06 337.894 627.421> 764.044 132.403<335.31 602.671 335.31 623.075> 796.447 67.5967<337.622 603.261>
LayerCount: 2
Fore
SplineSet
514.1484375 849.362304688 m 0xaa
 663.221679688 849.362304688 764.043945312 776.43359375 764.043945312 469.715820312 c 0
 764.043945312 163.3984375 659.6640625 83.58984375 514.293945312 83.58984375 c 0
 366.455078125 83.58984375 262.555664062 163.491210938 262.555664062 469.715820312 c 0
 262.555664062 774.79296875 372.685546875 850.029296875 514.1484375 849.362304688 c 0xaa
514.439453125 930.362304688 m 0x55
 292.865234375 931.40625 162.555664062 785.125976562 162.555664062 469.715820312 c 0
 162.555664062 155.454101562 284.16015625 2.58984375 514.293945312 2.58984375 c 0
 742.390625 2.58984375 864.043945312 155.575195312 864.043945312 469.715820312 c 0
 864.043945312 785.163085938 743.620117188 930.362304688 514.439453125 930.362304688 c 0x55
512.391601562 -12.3720703125 m 0xaa
 785.243164062 -13.84375 896.447265625 200.904296875 896.447265625 469.715820312 c 0
 896.447265625 735.625976562 797.946289062 946.5546875 555.458984375 946.5546875 c 2
 470.432617188 946.5546875 l 2
 228.455078125 943.209960938 129.909179688 736.147460938 129.909179688 469.715820312 c 0
 129.909179688 200.720703125 241.125 -10.908203125 512.391601562 -12.3720703125 c 0xaa
513.057617188 68.6259765625 m 0x55
 331.66015625 69.6044921875 229.909179688 206.072265625 229.909179688 469.715820312 c 0
 229.909179688 736.404296875 327.141601562 863.244140625 471.302734375 865.5546875 c 2
 555.458984375 865.5546875 l 2
 699.143554688 865.5546875 796.447265625 736.806640625 796.447265625 469.715820312 c 0
 796.447265625 205.52734375 694.245117188 67.6484375 513.057617188 68.6259765625 c 0x55
EndSplineSet
Validated: 41
EndChar

StartChar: p
Encoding: 112 112 82
Width: 1016
GlyphClass: 2
Flags: MW
HStem: -14.2998 109.35<438.416 510.802 438.416 663.73> 14.0498 52.6504<466.926 511.11> 848.35 97.5459<480.359 507.337 456.775 535.45> 864.896 64.4541<492.997 506.886>
VStem: 199.338 61.5791<-228.95 704.608 -228.95 704.608 704.608 773.242> 743.347 147.653<365.894 612.827 360.166 662.994> 791 52.3467<369.769 618.254>
LayerCount: 2
Fore
SplineSet
210.998046875 945.549804688 m 1x08
 160.916992188 945.549804688 l 1
 160.916992188 919.756835938 185.59375 833.01171875 199.337890625 773.2421875 c 1
 199.337890625 704.608398438 l 1
 199.337890625 -228.950195312 l 1
 249.337890625 -228.950195312 l 1
 299.337890625 -228.950195312 l 1
 299.337890625 704.608398438 l 1
 299.337890625 776.963867188 l 1
 299.337890625 780.670898438 l 1
 298.506835938 784.315429688 l 2
 286.630859375 836.4296875 262.618164062 934.298828125 261.080078125 945.549804688 c 1
 210.998046875 945.549804688 l 1x08
210.916992188 -228.950195312 m 1
 260.916992188 -228.950195312 l 1
 260.916992188 704.608398438 l 1
 260.916992188 945.549804688 l 1
 210.916992188 945.549804688 l 1
 160.916992188 945.549804688 l 1
 160.916992188 704.608398438 l 1
 160.916992188 -228.950195312 l 1
 210.916992188 -228.950195312 l 1
215.465820312 185.458007812 m 1
 175.310546875 161.327148438 l 1
 175.310546875 161.327148438 327.029296875 -14.2998046875 537.029296875 -14.2998046875 c 0
 790.431640625 -14.2998046875 891 231.331054688 891 489.000976562 c 0
 891 736.65234375 820.649414062 945.205078125 601.913085938 945.205078125 c 2
 507.336914062 945.895507812 l 2xac
 406.212890625 945.895507812 254.775390625 838.583007812 176.147460938 777.627929688 c 1
 210.719726562 748.369140625 l 1
 245.291992188 719.110351562 l 1
 321.4609375 778.16015625 479.107421875 864.895507812 506.885742188 864.895507812 c 2
 601.461914062 864.205078125 l 2
 712.280273438 864.205078125 791 747.5078125 791 489.000976562 c 0
 791 227.84765625 685.900390625 66.7001953125 537.029296875 66.7001953125 c 0x5a
 396.823242188 66.7001953125 259.32421875 205.576171875 255.62109375 209.58984375 c 1
 215.465820312 185.458007812 l 1
264.405273438 170.740234375 m 1
 244 159.040039062 l 1
 203.190429688 135.639648438 l 1
 206.059570312 132.356445312 308.752929688 14.0498046875 511.110351562 14.0498046875 c 0
 771.3359375 15.3505859375 843.346679688 249.810546875 843.346679688 489.7265625 c 0
 843.346679688 847.483398438 714.637695312 930.62890625 535.010742188 929.349609375 c 0x5a
 367.42578125 929.349609375 215.340820312 806.537109375 214.821289062 806.139648438 c 2
 249.143554688 776.688476562 l 1
 283.465820312 747.23828125 l 2
 286.252929688 749.369140625 425.267578125 848.349609375 535.450195312 848.349609375 c 0
 646.598632812 849.141601562 743.346679688 836.26171875 743.346679688 489.7265625 c 0
 743.346679688 242.061523438 666.263671875 95.8271484375 510.801757812 95.0498046875 c 0
 366.030273438 95.0498046875 286.887695312 180.137695312 284.811523438 182.44140625 c 2
 264.405273438 170.740234375 l 1
EndSplineSet
Validated: 37
EndChar

StartChar: q
Encoding: 113 113 83
Width: 1016
GlyphClass: 2
Flags: MW
HStem: -14.2998 109.35<498.577 558.859 417.626 619.808> 14.0498 52.6504<497.794 575.014 497.794 591.465> 849.162 98.0078<418.871 433.635 433.635 518.233 322.841 566.201> 866.17 63.9922<433.635 518.233 518.233 582.442>
VStem: 116.762 140.317<351.938 599.158> 157.079 59.6826<353.4 601.632 333.088 616.761> 756.48 61.5781<-228.95 -113.843 -228.95 -113.843 -113.843 733.718>
LayerCount: 2
Fore
SplineSet
806.48046875 945.549804688 m 1x02
 756.483398438 945.145507812 l 1
 756.728515625 925.270507812 718.705078125 743.470703125 718.705078125 743.470703125 c 1
 718.05859375 740.245117188 l 1
 718.05859375 736.978515625 l 1
 718.05859375 -113.842773438 l 1
 718.05859375 -228.950195312 l 1
 768.05859375 -228.950195312 l 1
 818.05859375 -228.950195312 l 1
 818.05859375 -113.842773438 l 1
 818.05859375 733.717773438 l 1
 823.322265625 760.063476562 856.815429688 918.603515625 856.477539062 945.954101562 c 1
 806.48046875 945.549804688 l 1x02
806.48046875 945.549804688 m 1
 756.48046875 945.549804688 l 1
 756.48046875 788.818359375 l 1
 756.48046875 -113.842773438 l 1
 756.48046875 -228.950195312 l 1
 806.48046875 -228.950195312 l 1
 856.48046875 -228.950195312 l 1
 856.48046875 -113.842773438 l 1
 856.48046875 788.818359375 l 1
 856.48046875 945.549804688 l 1
 806.48046875 945.549804688 l 1
781.564453125 648.734375 m 1
 856.564453125 648.734375 l 1
 856.564453125 697.234375 747.741210938 947.169921875 518.233398438 947.169921875 c 2
 433.634765625 947.169921875 l 2
 212.046875 947.169921875 116.76171875 726.841796875 116.76171875 471.474609375 c 0
 116.76171875 185.200195312 259.922851562 -17.3251953125 498.577148438 -14.2998046875 c 0xaa
 741.038085938 -14.2998046875 852.069335938 220.993164062 852.069335938 220.993164062 c 1
 759.862304688 252.342773438 l 1
 755.5390625 243.999023438 652.233398438 66.7001953125 497.793945312 66.7001953125 c 0
 348.838867188 64.8115234375 216.76171875 194.701171875 216.76171875 471.474609375 c 0
 216.76171875 731.790039062 318.482421875 866.169921875 433.634765625 866.169921875 c 2
 518.233398438 866.169921875 l 2x56
 646.650390625 866.169921875 750.5625 685.856445312 756.451171875 648.734375 c 1
 781.564453125 648.734375 l 1
768.325195312 183.204101562 m 1
 726.846679688 205.819335938 l 1
 723.991210938 202.3828125 627.583007812 95.0498046875 490.134765625 95.0498046875 c 0
 345.118164062 95.0498046875 257.079101562 231.177734375 257.079101562 472.697265625 c 0
 257.079101562 758.462890625 346.1640625 849.162109375 491.577148438 849.162109375 c 0xaa
 640.825195312 849.162109375 719.618164062 725.98828125 722.641601562 720.915039062 c 1
 767.864257812 738.192382812 l 1
 813.0859375 755.469726562 l 2
 812.747070312 756.051757812 715.663085938 930.162109375 491.577148438 930.162109375 c 0
 256.884765625 930.162109375 157.079101562 760.82421875 157.079101562 472.697265625 c 0
 157.079101562 234.103515625 243.969726562 14.0498046875 490.134765625 14.0498046875 c 0x56
 692.795898438 14.0498046875 808.837890625 159.426757812 809.803710938 160.588867188 c 2
 768.325195312 183.204101562 l 1
EndSplineSet
Validated: 37
EndChar

StartChar: r
Encoding: 114 114 84
Width: 712
GlyphClass: 2
Flags: MW
HStem: 848.35 97.2002<559.545 670> 864.55 64.7998<520.725 559.545 559.545 670>
VStem: 202.5 62.2305<1.90039 124.169 124.169 738.394 1.90039 124.169>
LayerCount: 2
Fore
SplineSet
252.5 1.900390625 m 1xa0
 302.5 1.900390625 l 1
 302.5 741.411132812 l 1
 302.5 744.428710938 l 1
 301.948242188 747.413085938 l 1
 264.1796875 951.552734375 l 1
 214.731445312 945.549804688 l 1
 165.283203125 939.547851562 l 1
 202.5 738.393554688 l 1
 202.5 1.900390625 l 1
 252.5 1.900390625 l 1xa0
214.73046875 1.900390625 m 1
 264.73046875 1.900390625 l 1
 264.73046875 124.168945312 l 1
 264.73046875 779.237304688 l 1
 264.731445312 945.549804688 l 1
 214.731445312 945.549804688 l 1
 164.731445312 945.549804688 l 1
 164.73046875 779.237304688 l 1
 164.73046875 124.168945312 l 1
 164.73046875 1.900390625 l 1
 214.73046875 1.900390625 l 1
214.73046875 691.728515625 m 1
 218.234375 690.166015625 l 1
 258.53125 672.196289062 l 1
 263.409179688 679.374023438 404.775390625 864.549804688 520.724609375 864.549804688 c 2
 670 864.549804688 l 1x60
 670 905.049804688 l 1
 670 945.549804688 l 1
 520.724609375 945.549804688 l 2
 312.911132812 945.549804688 170.9296875 711.26171875 170.9296875 711.26171875 c 1
 214.73046875 691.728515625 l 1
252.08984375 740.095703125 m 1
 294.494140625 718.635742188 l 1
 297.416992188 722.42578125 401.897460938 848.349609375 559.544921875 848.349609375 c 2
 670 848.349609375 l 1xa0
 670 888.849609375 l 1
 670 929.349609375 l 1
 559.544921875 929.349609375 l 2
 334.247070312 929.349609375 210.439453125 762.532226562 209.685546875 761.5546875 c 2
 252.08984375 740.095703125 l 1
EndSplineSet
Validated: 5
EndChar

StartChar: s
Encoding: 115 115 85
Width: 944
GlyphClass: 2
Flags: MW
HStem: -14.2998 105.759<388.333 481.18> 10.459 56.2412<374.272 481.304 374.272 533.122> 848.35 97.1689 864.519 64.8311<377.871 404.427>
VStem: 131.278 127.759<646.523 741.599 646.523 793.618> 159.037 72.2412<651.129 763.17> 656.686 144.424<666.65 667.102> 682.006 127.653<190.035 298.607> 701.111 55.5723<666.659 667.093> 709.659 72.3467<184.882 306.863>
LayerCount: 2
Fore
SplineSet
219.21875 290.293945312 m 1x95
 169.21875 290.293945312 l 1
 169.21875 218.387695312 198.294921875 10.458984375 491.163085938 10.458984375 c 0
 575.080078125 10.458984375 782.005859375 61.9482421875 782.005859375 256.946289062 c 0x4040
 782.005859375 375.91796875 689.530273438 475.79296875 538.569335938 508.94140625 c 2
 452.426757812 529.526367188 l 2
 347.178710938 554.678710938 259.037109375 594.4921875 259.037109375 698.5546875 c 0
 259.037109375 784.643554688 332.512695312 848.04296875 450.19140625 848.349609375 c 0
 614.106445312 845.543945312 656.114257812 751.342773438 656.685546875 666.650390625 c 1x6a
 706.684570312 666.87109375 l 1
 756.68359375 667.092773438 l 1x6080
 755.97265625 772.6171875 687.7734375 925.888671875 451.079101562 929.349609375 c 0
 279.186523438 929.349609375 159.037109375 827.78515625 159.037109375 698.5546875 c 0
 159.037109375 541.087890625 309.364257812 479.262695312 424.129882812 451.836914062 c 2
 511.469726562 430.965820312 l 2
 623.426757812 406.666992188 682.005859375 340.268554688 682.005859375 256.946289062 c 0
 682.005859375 123.124023438 544.880859375 91.458984375 491.163085938 91.458984375 c 0
 285.501953125 91.458984375 269.21875 222.909179688 269.21875 290.293945312 c 1
 219.21875 290.293945312 l 1x95
172.575195312 290.293945312 m 1
 122.575195312 290.293945312 l 1
 122.575195312 177.658203125 190.712890625 -14.2998046875 480.897460938 -14.2998046875 c 0
 481.462890625 -14.2998046875 482.765625 -14.298828125 483.4765625 -14.2900390625 c 0
 635.002929688 -13.521484375 809.659179688 57.3623046875 809.659179688 263.0390625 c 0x81
 809.659179688 388.565429688 716.978515625 469.208007812 570.108398438 501.362304688 c 2
 451.8203125 529.786132812 l 2
 301.073242188 562.50390625 231.278320312 591.109375 231.278320312 711.1484375 c 0
 231.278320312 819.94140625 351.314453125 864.518554688 404.426757812 864.518554688 c 2
 486.6015625 864.581054688 l 2
 597.505859375 864.666992188 700.3046875 786.244140625 701.111328125 666.659179688 c 1x9480
 751.110351562 666.880859375 l 1
 801.109375 667.1015625 l 1
 800.044921875 824.948242188 659.130859375 945.71484375 486.505859375 945.581054688 c 2
 404.356445312 945.518554688 l 2
 308.603515625 945.518554688 131.278320312 876.087890625 131.278320312 711.1484375 c 0x2a
 131.278320312 541.849609375 267.495117188 486.020507812 424.651367188 451.825195312 c 2
 542.935546875 423.40234375 l 2
 660.344726562 397.920898438 709.659179688 350.6875 709.659179688 263.0390625 c 0
 709.659179688 106.724609375 598.151367188 67.29296875 482.455078125 66.7060546875 c 0
 481.787109375 66.6982421875 481.7109375 66.7001953125 480.897460938 66.7001953125 c 0
 267.646484375 66.7001953125 222.575195312 194.859375 222.575195312 290.293945312 c 1
 172.575195312 290.293945312 l 1
EndSplineSet
Validated: 37
EndChar

StartChar: t
Encoding: 116 116 86
Width: 720
GlyphClass: 2
Flags: MW
HStem: 1.90039 121.5<360.575 371.279 371.279 580> 42.4004 40.5<371.279 580>
VStem: 165.372 136.166<183.18 226.708 226.708 1318.35> 201.538 63.834<141.221 1318.35 226.708 1318.35 226.708 1318.35>
LayerCount: 2
Fore
SplineSet
215.372070312 1318.34570312 m 1x50
 165.372070312 1318.34570312 l 1
 165.372070312 226.708007812 l 2
 165.372070312 120.763671875 188.952148438 1.900390625 360.575195312 1.900390625 c 2
 580 1.900390625 l 1xa0
 580 42.400390625 l 1
 580 82.900390625 l 1
 360.575195312 82.900390625 l 2
 278.723632812 82.900390625 265.372070312 115.634765625 265.372070312 226.708007812 c 2
 265.372070312 1318.34570312 l 1
 215.372070312 1318.34570312 l 1x50
251.538085938 1318.34570312 m 1
 201.538085938 1318.34570312 l 1
 201.538085938 183.1796875 l 2
 201.538085938 99.26171875 254.758789062 42.400390625 371.279296875 42.400390625 c 2
 580 42.400390625 l 1
 580 82.900390625 l 1x50
 580 123.400390625 l 1
 371.279296875 123.400390625 l 2
 304.055664062 123.400390625 301.538085938 127.9921875 301.538085938 183.1796875 c 2
 301.538085938 1318.34570312 l 1
 251.538085938 1318.34570312 l 1
26.3818359375 901.571289062 m 1
 26.3818359375 861.071289062 l 1
 552.7890625 861.071289062 l 1
 552.7890625 901.571289062 l 1
 552.7890625 942.071289062 l 1
 26.3818359375 942.071289062 l 1
 26.3818359375 901.571289062 l 1
24.654296875 901.571289062 m 1
 24.654296875 861.071289062 l 1
 551.772460938 861.071289062 l 1
 551.772460938 901.571289062 l 1
 551.772460938 942.071289062 l 1
 24.654296875 942.071289062 l 1
 24.654296875 901.571289062 l 1
EndSplineSet
Validated: 5
EndChar

StartChar: u
Encoding: 117 117 87
Width: 1024
GlyphClass: 2
Flags: MW
HStem: -14.2998 109.35<389.118 539.739 389.118 579.339> 14.0498 52.6504<363.985 532.649 363.985 578.34>
VStem: 168.73 136.376<213.904 943.633 297.298 943.633 297.298 943.648> 205.106 63.624<249.557 297.298 297.298 943.633> 757.881 62.2305<233.078 821.372 821.372 943.641>
LayerCount: 2
Fore
SplineSet
770.111328125 943.640625 m 1x08
 720.111328125 943.640625 l 1
 720.111328125 230.374023438 l 1
 720.111328125 227.673828125 l 1
 720.553710938 224.999023438 l 2
 732.484375 152.827148438 756.53515625 15.8681640625 757.8125 1.900390625 c 1
 807.880859375 1.900390625 l 1
 857.880859375 1.900390625 l 1
 857.880859375 24.703125 833.3671875 153.232421875 820.111328125 233.078125 c 1
 820.111328125 943.640625 l 1
 770.111328125 943.640625 l 1x08
807.880859375 943.640625 m 1
 757.880859375 943.640625 l 1
 757.880859375 821.372070312 l 1
 757.880859375 166.303710938 l 1
 757.880859375 1.900390625 l 1
 807.880859375 1.900390625 l 1
 857.880859375 1.900390625 l 1
 857.880859375 166.303710938 l 1
 857.880859375 821.372070312 l 1
 857.880859375 943.640625 l 1
 807.880859375 943.640625 l 1
808.887695312 290.267578125 m 1
 762.9765625 306.309570312 l 1
 758.232421875 297.399414062 621.756835938 66.7001953125 443.541015625 66.7001953125 c 0
 284.428710938 66.7001953125 268.73046875 181.470703125 268.73046875 244.880859375 c 2
 268.73046875 943.6484375 l 1x58
 218.73046875 943.6484375 l 1
 168.73046875 943.6484375 l 1
 168.73046875 244.880859375 l 2
 168.73046875 182.926757812 189.920898438 -14.2998046875 443.541015625 -14.2998046875 c 0xa8
 715.137695312 -14.2998046875 854.798828125 274.2265625 854.798828125 274.2265625 c 1
 808.887695312 290.267578125 l 1
768.256835938 228.318359375 m 1
 723.97265625 247.123046875 l 1
 720.543945312 241.82421875 616.411132812 95.0498046875 463.06640625 95.0498046875 c 0
 315.169921875 95.0498046875 305.106445312 191.109375 305.106445312 297.297851562 c 2
 305.106445312 943.6328125 l 1xa8
 255.106445312 943.6328125 l 1
 205.106445312 943.6328125 l 1
 205.106445312 297.297851562 l 2
 205.106445312 201.815429688 216.9453125 14.0498046875 463.06640625 14.0498046875 c 0
 693.614257812 14.0498046875 812.541015625 209.514648438 812.541015625 209.514648438 c 1
 768.256835938 228.318359375 l 1
EndSplineSet
Validated: 5
EndChar

StartChar: v
Encoding: 118 118 88
Width: 976
GlyphClass: 2
Flags: W
LayerCount: 2
Fore
SplineSet
147.741210938 945.549804688 m 1
 71.7412109375 945.549804688 l 1
 71.7412109375 910.40234375 399.84765625 35.8486328125 401.684570312 30.8486328125 c 2
 412.319335938 1.900390625 l 1
 560.174804688 1.900390625 l 1
 570.809570312 30.8486328125 l 2
 572.645507812 35.845703125 900.752929688 910.407226562 900.752929688 945.549804688 c 1
 799.40234375 945.549804688 l 1
 785.357421875 899.19921875 541.553710938 235.330078125 486.247070312 84.6787109375 c 1
 430.247070312 237.21875 187.151367188 899.149414062 173.091796875 945.549804688 c 1
 147.741210938 945.549804688 l 1
170.505859375 945.549804688 m 1
 120.153320312 945.549804688 l 1
 120.153320312 901.317382812 422.16796875 36.1142578125 423.72265625 31.5751953125 c 2
 433.884765625 1.900390625 l 1
 471.903320312 1.900390625 l 1
 486.247070312 1.900390625 l 1
 500.590820312 1.900390625 l 1
 538.663085938 1.900390625 l 1
 548.790039062 31.626953125 l 2
 550.396484375 36.3447265625 852.340820312 905.6796875 852.340820312 945.549804688 c 1
 802.340820312 945.549804688 l 1
 751.479492188 945.549804688 l 1
 740.28515625 901.389648438 561.499023438 374.185546875 486.166015625 152.471679688 c 1
 410.510742188 374.122070312 231.896484375 899.203125 220.859375 945.549804688 c 1
 170.505859375 945.549804688 l 1
EndSplineSet
Validated: 5
EndChar

StartChar: w
Encoding: 119 119 89
Width: 1328
GlyphClass: 2
Flags: MW
VStem: 1162.75 51.5879<927.52 945.55 927.52 945.55>
LayerCount: 2
Fore
SplineSet
121.895507812 945.549804688 m 1
 71.7412109375 945.549804688 l 1
 71.7412109375 908.08203125 285.599609375 38.4951171875 286.543945312 34.5966796875 c 2
 294.470703125 1.900390625 l 1
 335.607421875 1.900390625 l 1
 462.88671875 1.900390625 l 1
 505.520507812 1.900390625 l 1
 512.258789062 36 l 1
 667.327148438 820.823242188 l 1
 822.233398438 36.005859375 l 1
 828.96484375 1.900390625 l 1
 871.606445312 1.900390625 l 1
 998.88671875 1.900390625 l 1
 1039.97363281 1.900390625 l 1
 1047.93847656 34.548828125 l 2
 1048.86425781 38.345703125 1262.75292969 902.68359375 1262.75292969 945.549804688 c 1
 1212.75292969 945.549804688 l 1
 1162.75292969 945.549804688 l 1
 1162.75292969 905.506835938 994.353515625 233.076171875 957.790039062 82.900390625 c 1
 914.248046875 82.900390625 l 1
 750.7109375 911.443359375 l 1
 743.979492188 945.549804688 l 1
 701.337890625 945.549804688 l 1
 667.3359375 945.549804688 l 1
 633.333007812 945.549804688 l 1
 590.69921875 945.549804688 l 1
 583.9609375 911.450195312 l 1
 420.252929688 82.900390625 l 1
 376.751953125 82.900390625 l 1
 339.3671875 237.356445312 178.36328125 906.32421875 172.049804688 945.549804688 c 1
 121.895507812 945.549804688 l 1
170.24609375 945.549804688 m 1
 120.153320312 945.549804688 l 1
 120.153320312 909.340820312 301.872070312 39.1923828125 302.586914062 35.7265625 c 2
 309.563476562 1.900390625 l 1
 351.903320312 1.900390625 l 1
 448.590820312 1.900390625 l 1
 492.217773438 1.900390625 l 1
 498.129882812 36.9111328125 l 1
 637.887695312 864.549804688 l 1
 696.661132812 864.549804688 l 1
 836.364257812 36.9140625 l 1
 842.274414062 1.900390625 l 1
 885.903320312 1.900390625 l 1
 984.590820312 1.900390625 l 1
 1027.00683594 1.900390625 l 1
 1033.921875 35.7978515625 l 2
 1034.62304688 39.2333984375 1214.34082031 909.489257812 1214.34082031 945.549804688 c 1
 1164.34082031 945.549804688 l 1
 1114.34082031 945.549804688 l 1
 1114.34082031 908.228515625 973.669921875 237.588867188 942.166992188 82.900390625 c 1
 929.532226562 82.900390625 l 1
 789.829101562 910.536132812 l 1
 783.918945312 945.549804688 l 1
 740.290039062 945.549804688 l 1
 594.260742188 945.549804688 l 1
 550.633789062 945.549804688 l 1
 544.721679688 910.538085938 l 1
 404.963867188 82.900390625 l 1
 394.25 82.900390625 l 1
 362.153320312 238.76953125 225.233398438 907.575195312 220.338867188 945.549804688 c 1
 170.24609375 945.549804688 l 1
EndSplineSet
Validated: 5
EndChar

StartChar: x
Encoding: 120 120 90
Width: 944
GlyphClass: 2
Flags: W
LayerCount: 2
Fore
SplineSet
208.950195312 958.907226562 m 2
 788.233398438 1.900390625 l 1
 842.233398438 1.900390625 l 1
 842.233398438 52.37109375 248.07421875 892.143554688 208.950195312 958.907226562 c 2
744.659179688 -10.5478515625 m 2
 161.741210938 945.549804688 l 1
 111.741210938 945.549804688 l 1
 111.741210938 897.788085938 704.095703125 60.7568359375 744.659179688 -10.5478515625 c 2
742.090820312 1.8662109375 m 1
 792.090820312 1.8662109375 l 1
 792.090820312 46.515625 299.989257812 868.572265625 266.654296875 945.549804688 c 1
 164.153320312 945.549804688 l 1
 164.153320312 891.489257812 662.020507812 56.435546875 694.0390625 -9.2890625 c 0
 694.403320312 -10.04296875 742.090820312 1.8662109375 742.090820312 1.8662109375 c 1
792.233398438 945.549804688 m 1
 209.315429688 -10.5478515625 l 2
 249.87890625 60.7568359375 842.233398438 897.788085938 842.233398438 945.549804688 c 1
 792.233398438 945.549804688 l 1
165.741210938 1.900390625 m 1
 745.024414062 958.907226562 l 2
 705.900390625 892.143554688 111.741210938 52.37109375 111.741210938 1.900390625 c 1
 165.741210938 1.900390625 l 1
259.935546875 -9.2890625 m 1
 291.954101562 56.435546875 789.821289062 891.489257812 789.821289062 945.549804688 c 1
 687.3203125 945.549804688 l 1
 653.985351562 868.572265625 161.883789062 46.515625 161.883789062 1.8662109375 c 1
 211.883789062 1.8662109375 l 1
 259.935546875 -9.2890625 l 1
EndSplineSet
Validated: 5
EndChar

StartChar: y
Encoding: 121 121 91
Width: 976
GlyphClass: 2
Flags: W
LayerCount: 2
Fore
SplineSet
266.290039062 -228.950195312 m 1
 317.879882812 -228.950195312 l 1
 336.692382812 -188.41796875 550.404296875 202.630859375 550.404296875 202.630859375 c 1
 551.6328125 204.885742188 l 1
 552.514648438 207.245117188 l 2
 554.369140625 212.20703125 822.469726562 910.875976562 822.469726562 945.549804688 c 1
 721.081054688 945.549804688 l 1
 706.616210938 898.650390625 473.375976562 275.060546875 457.686523438 233.073242188 c 1
 436.142578125 193.513671875 214.701171875 -189.456054688 214.701171875 -228.950195312 c 1
 266.290039062 -228.950195312 l 1
318.166992188 -228.950195312 m 1
 369.05078125 -228.950195312 l 1
 395.563476562 -153.916992188 874.935546875 901.155273438 874.935546875 945.549804688 c 1
 773.209960938 945.549804688 l 1
 746.668945312 869.765625 267.282226562 -185.176757812 267.282226562 -228.950195312 c 1
 318.166992188 -228.950195312 l 1
186.98046875 945.549804688 m 1
 136.083984375 945.549804688 l 1
 136.083984375 908.28125 343.880859375 452.385742188 457.814453125 205.040039062 c 1
 504.66015625 219.197265625 l 1
 551.505859375 233.35546875 l 1
 445.375 463.760742188 252.532226562 904.106445312 237.875976562 945.549804688 c 1
 186.98046875 945.549804688 l 1
167.23828125 945.549804688 m 1
 83.23828125 945.549804688 l 1
 83.23828125 899.857421875 334.014648438 449.724609375 458.393554688 203.841796875 c 1
 550.926757812 234.552734375 l 1
 434.444335938 464.826171875 204.299804688 898.588867188 185.416992188 945.549804688 c 1
 167.23828125 945.549804688 l 1
EndSplineSet
Validated: 5
EndChar

StartChar: z
Encoding: 122 122 92
Width: 936
GlyphClass: 2
Flags: W
LayerCount: 2
Fore
SplineSet
76.755859375 905.049804688 m 1
 76.755859375 864.549804688 l 1
 746.122070312 864.549804688 l 1
 746.122070312 857.532226562 l 1
 86.4013671875 127.0625 l 1
 76.755859375 116.3828125 l 1
 76.755859375 103.150390625 l 1
 76.755859375 42.400390625 l 1
 76.755859375 1.900390625 l 1
 126.755859375 1.900390625 l 1
 846.122070312 1.900390625 l 1
 846.122070312 42.400390625 l 1
 846.122070312 82.900390625 l 1
 176.755859375 82.900390625 l 1
 176.755859375 89.91796875 l 1
 836.4765625 820.387695312 l 1
 846.122070312 831.067382812 l 1
 846.122070312 844.299804688 l 1
 846.122070312 905.049804688 l 1
 846.122070312 945.549804688 l 1
 796.122070312 945.549804688 l 1
 76.755859375 945.549804688 l 1
 76.755859375 905.049804688 l 1
76.228515625 888.849609375 m 1
 76.228515625 848.349609375 l 1
 695.791015625 848.349609375 l 1
 134.178710938 141.262695312 l 1
 126.228515625 131.252929688 l 1
 126.228515625 119.349609375 l 1
 126.228515625 66.7001953125 l 1
 126.228515625 26.2001953125 l 1
 176.228515625 26.2001953125 l 1
 845.594726562 26.2001953125 l 1
 845.594726562 66.7001953125 l 1
 845.594726562 107.200195312 l 1
 226.032226562 107.200195312 l 1
 787.64453125 814.287109375 l 1
 795.594726562 824.297851562 l 1
 795.594726562 836.200195312 l 1
 795.594726562 888.849609375 l 1
 795.594726562 929.349609375 l 1
 745.594726562 929.349609375 l 1
 76.228515625 929.349609375 l 1
 76.228515625 888.849609375 l 1
EndSplineSet
Validated: 5
EndChar

StartChar: braceleft
Encoding: 123 123 93
Width: 480
GlyphClass: 2
Flags: W
LayerCount: 2
Fore
SplineSet
32 704 m 1
 32 784 l 1
 117 795 152 859 136 976 c 1
 136 1384 l 2
 136 1576 237 1672 440 1672 c 1
 440 1568 l 1
 333 1568 280 1507 280 1384 c 2
 280 976 l 2
 280 864 240 787 160 744 c 1
 240 696 280 619 280 512 c 2
 280 64 l 2
 280 -59 333 -120 440 -120 c 1
 440 -216 l 1
 237 -216 136 -123 136 64 c 2
 136 512 l 1
 147 624 112 688 32 704 c 1
EndSplineSet
Validated: 33
EndChar

StartChar: bar
Encoding: 124 124 94
Width: 480
GlyphClass: 2
Flags: W
LayerCount: 2
Fore
SplineSet
168 -176 m 1
 168 1664 l 1
 312 1664 l 1
 312 -176 l 1
 168 -176 l 1
EndSplineSet
Validated: 1
EndChar

StartChar: braceright
Encoding: 125 125 95
Width: 480
GlyphClass: 2
Flags: W
LayerCount: 2
Fore
SplineSet
40 -112 m 1
 147 -112 200 -51 200 72 c 2
 200 480 l 2
 200 592 243 669 328 712 c 1
 243 760 200 837 200 944 c 2
 200 1392 l 2
 200 1515 147 1576 40 1576 c 1
 40 1672 l 1
 248 1672 352 1579 352 1392 c 2
 352 944 l 1
 336 832 368 768 448 752 c 1
 448 672 l 1
 368 661 336 597 352 480 c 1
 352 72 l 2
 352 -120 248 -216 40 -216 c 1
 40 -112 l 1
EndSplineSet
Validated: 33
EndChar

StartChar: asciitilde
Encoding: 126 126 96
Width: 848
GlyphClass: 2
Flags: W
LayerCount: 2
Fore
SplineSet
80 1408 m 1
 155 1568 264 1603 408 1512 c 1
 499 1437 576 1448 640 1544 c 1
 736 1440 l 1
 661 1296 547 1267 392 1352 c 1
 301 1416 229 1405 176 1320 c 1
 80 1408 l 1
EndSplineSet
Validated: 33
EndChar

StartChar: exclamdown
Encoding: 161 161 98
Width: 448
GlyphClass: 2
Flags: W
LayerCount: 2
Fore
SplineSet
136 -152 m 1
 160 1096 l 1
 288 1096 l 1
 312 -152 l 1
 136 -152 l 1
152 1360 m 1
 152 1624 l 1
 304 1624 l 1
 304 1360 l 1
 152 1360 l 1
EndSplineSet
Validated: 1
EndChar

StartChar: cent
Encoding: 162 162 99
Width: 1024
GlyphClass: 2
Flags: W
LayerCount: 2
Fore
SplineSet
104 816 m 0
 104 987 143 1119 220 1212 c 0
 297 1305 392 1352 504 1352 c 0
 536 1352 565 1349 592 1344 c 1
 624 1496 l 1
 696 1480 l 1
 656 1328 l 1
 736 1301 797 1257 840 1196 c 0
 883 1135 909 1056 920 960 c 1
 760 960 l 1
 749 1019 733 1068 712 1108 c 0
 691 1148 661 1173 624 1184 c 1
 448 432 l 1
 475 427 499 424 520 424 c 0
 579 424 631 441 676 476 c 0
 721 511 749 560 760 624 c 1
 912 624 l 1
 901 528 860 447 788 380 c 0
 716 313 627 280 520 280 c 0
 483 280 448 283 416 288 c 1
 360 40 l 1
 288 56 l 1
 352 320 l 1
 283 347 224 403 176 488 c 0
 128 573 104 683 104 816 c 0
248 808 m 0
 248 723 259 653 280 600 c 0
 301 547 336 504 384 472 c 1
 560 1200 l 1
 504 1200 l 2
 435 1200 375 1169 324 1108 c 0
 273 1047 248 947 248 808 c 0
EndSplineSet
Validated: 1
EndChar

StartChar: sterling
Encoding: 163 163 100
Width: 1368
GlyphClass: 2
Flags: W
LayerCount: 2
Fore
SplineSet
72 216 m 0
 72 307 99 368 152 400 c 0
 205 432 267 448 336 448 c 0
 421 448 515 413 616 344 c 1
 621 365 624 387 624 408 c 0
 624 536 592 659 528 776 c 1
 208 776 l 1
 208 896 l 1
 472 896 l 1
 435 971 416 1051 416 1136 c 0
 416 1264 447 1365 508 1440 c 0
 569 1515 661 1552 784 1552 c 0
 901 1552 993 1521 1060 1460 c 0
 1127 1399 1160 1328 1160 1248 c 1
 960 1248 l 1
 960 1285 947 1321 920 1356 c 0
 893 1391 848 1408 784 1408 c 0
 720 1408 673 1381 644 1328 c 0
 615 1275 600 1211 600 1136 c 0
 600 1061 621 981 664 896 c 1
 1064 896 l 1
 1064 776 l 1
 736 776 l 1
 800 643 832 523 832 416 c 0
 832 357 816 296 784 232 c 1
 848 184 901 160 944 160 c 0
 997 160 1041 179 1076 216 c 0
 1111 253 1128 344 1128 488 c 1
 1296 440 l 1
 1296 259 1265 140 1204 84 c 0
 1143 28 1061 0 960 0 c 0
 880 0 789 32 688 96 c 1
 624 32 515 0 360 0 c 0
 285 0 219 19 160 56 c 0
 101 93 72 147 72 216 c 0
240 216 m 0
 240 163 280 133 360 128 c 1
 440 128 504 157 552 216 c 1
 477 275 405 304 336 304 c 0
 272 304 240 275 240 216 c 0
EndSplineSet
Validated: 1
EndChar

StartChar: currency
Encoding: 164 164 101
Width: 1048
GlyphClass: 2
Flags: W
LayerCount: 2
Fore
SplineSet
120 64 m 1
 256 328 l 1
 213 435 189 571 184 736 c 1
 184 880 208 1016 256 1144 c 1
 120 1400 l 1
 192 1536 l 1
 328 1272 l 1
 387 1357 453 1400 528 1400 c 0
 608 1400 677 1355 736 1264 c 1
 872 1528 l 1
 944 1408 l 1
 808 1136 l 1
 851 1019 869 885 864 736 c 1
 864 587 843 453 800 336 c 1
 944 56 l 1
 880 -64 l 1
 736 208 l 1
 677 123 608 80 528 80 c 0
 453 80 384 120 320 200 c 1
 192 -64 l 1
 120 64 l 1
280 736 m 0
 280 571 304 448 352 368 c 0
 400 288 459 248 528 248 c 0
 613 248 676 300 716 404 c 0
 756 508 776 619 776 736 c 0
 776 880 753 996 708 1084 c 0
 663 1172 603 1216 528 1216 c 0
 448 1216 387 1169 344 1076 c 0
 301 983 280 869 280 736 c 0
EndSplineSet
Validated: 33
EndChar

StartChar: yen
Encoding: 165 165 102
Width: 1208
GlyphClass: 2
Flags: W
LayerCount: 2
Fore
SplineSet
104 1552 m 1
 296 1552 l 1
 608 976 l 1
 920 1552 l 1
 1104 1552 l 1
 736 864 l 1
 1080 864 l 1
 1080 736 l 1
 696 736 l 1
 696 448 l 1
 1080 448 l 1
 1080 320 l 1
 696 320 l 1
 696 0 l 1
 520 0 l 1
 520 320 l 1
 128 320 l 1
 128 448 l 1
 520 448 l 1
 520 736 l 1
 128 736 l 1
 128 864 l 1
 480 864 l 1
 104 1552 l 1
EndSplineSet
Validated: 1
EndChar

StartChar: brokenbar
Encoding: 166 166 103
Width: 464
GlyphClass: 2
Flags: W
LayerCount: 2
Fore
SplineSet
192 -152 m 1
 192 1624 l 1
 272 1624 l 1
 272 -152 l 1
 192 -152 l 1
EndSplineSet
Validated: 1
EndChar

StartChar: section
Encoding: 167 167 104
Width: 2048
GlyphClass: 2
Flags: W
LayerCount: 2
Fore
SplineSet
328 232 m 1
 544 232 l 1
 565 67 728 -16 1032 -16 c 0
 1341 -16 1496 45 1496 168 c 0
 1496 227 1440 276 1328 316 c 0
 1216 356 1072 397 896 440 c 0
 672 493 521 544 444 592 c 0
 367 640 328 707 328 792 c 0
 328 872 424 952 616 1032 c 1
 472 1101 400 1187 400 1288 c 0
 400 1395 452 1477 556 1536 c 0
 660 1595 819 1624 1032 1624 c 0
 1459 1624 1685 1496 1712 1240 c 1
 1512 1240 l 1
 1507 1400 1347 1480 1032 1480 c 0
 755 1480 616 1416 616 1288 c 0
 616 1219 669 1165 776 1128 c 0
 883 1091 997 1059 1120 1032 c 1
 1328 973 1479 919 1572 868 c 0
 1665 817 1712 752 1712 672 c 0
 1712 576 1624 496 1448 432 c 1
 1619 368 1704 280 1704 168 c 0
 1704 72 1640 -5 1512 -64 c 0
 1384 -123 1224 -152 1032 -152 c 0
 600 -152 365 -24 328 232 c 1
536 792 m 0
 536 717 691 643 1000 568 c 2
 1256 504 l 1
 1416 547 1496 605 1496 680 c 0
 1496 755 1360 827 1088 896 c 2
 816 968 l 1
 629 915 536 856 536 792 c 0
EndSplineSet
Validated: 1
EndChar

StartChar: dieresis
Encoding: 168 168 105
Width: 1024
GlyphClass: 2
Flags: MW
HStem: 1178.19 211.493<417.146 467.146 454.628 467.146 467.146 504.628 467.146 504.628 504.628 517.146 504.628 517.146 517.146 554.628 517.146 517.146 417.146 554.628 737.146 787.146 774.628 787.146 787.146 824.628 787.146 824.628 824.628 837.146 824.628 837.146 837.146 874.628 837.146 837.146>
LayerCount: 2
Fore
SplineSet
504.627929688 1389.68261719 m 1
 454.627929688 1389.68261719 l 1
 454.627929688 1178.18945312 l 1
 504.627929688 1178.18945312 l 1
 554.627929688 1178.18945312 l 1
 554.627929688 1389.68261719 l 1
 504.627929688 1389.68261719 l 1
467.145507812 1389.68261719 m 1
 417.145507812 1389.68261719 l 1
 417.145507812 1178.18945312 l 1
 467.145507812 1178.18945312 l 1
 517.145507812 1178.18945312 l 1
 517.145507812 1389.68261719 l 1
 467.145507812 1389.68261719 l 1
824.627929688 1389.68261719 m 1
 774.627929688 1389.68261719 l 1
 774.627929688 1178.18945312 l 1
 824.627929688 1178.18945312 l 1
 874.627929688 1178.18945312 l 1
 874.627929688 1389.68261719 l 1
 824.627929688 1389.68261719 l 1
787.145507812 1389.68261719 m 1
 737.145507812 1389.68261719 l 1
 737.145507812 1178.18945312 l 1
 787.145507812 1178.18945312 l 1
 837.145507812 1178.18945312 l 1
 837.145507812 1389.68261719 l 1
 787.145507812 1389.68261719 l 1
EndSplineSet
Validated: 5
EndChar

StartChar: copyright
Encoding: 169 169 106
Width: 1368
GlyphClass: 2
Flags: W
LayerCount: 2
Fore
SplineSet
120 736 m 0
 120 928 177 1081 292 1196 c 0
 407 1311 536 1368 680 1368 c 0
 845 1368 980 1311 1084 1196 c 0
 1188 1081 1240 928 1240 736 c 0
 1240 560 1188 411 1084 288 c 0
 980 165 845 104 680 104 c 0
 515 104 380 165 276 288 c 0
 172 411 120 560 120 736 c 0
208 736 m 1
 213 576 260 447 348 348 c 0
 436 249 547 200 680 200 c 0
 813 200 927 251 1020 352 c 0
 1113 453 1160 581 1160 736 c 0
 1160 891 1113 1019 1020 1120 c 0
 927 1221 813 1272 680 1272 c 0
 547 1272 435 1220 344 1116 c 0
 253 1012 208 885 208 736 c 1
384 728 m 0
 384 813 413 889 472 956 c 0
 531 1023 600 1056 680 1056 c 0
 749 1056 808 1035 856 992 c 0
 904 949 936 888 952 808 c 1
 848 808 l 1
 837 861 819 900 792 924 c 0
 765 948 728 960 680 960 c 0
 632 960 588 940 548 900 c 0
 508 860 488 803 488 728 c 0
 488 653 507 595 544 552 c 0
 581 509 627 488 680 488 c 0
 728 488 767 503 796 532 c 0
 825 561 845 603 856 656 c 1
 960 656 l 1
 955 581 927 520 876 472 c 0
 825 424 760 400 680 400 c 0
 600 400 531 432 472 496 c 0
 413 560 384 637 384 728 c 0
EndSplineSet
Validated: 1
EndChar

StartChar: ordfeminine
Encoding: 170 170 107
Width: 728
GlyphClass: 2
Flags: HW
LayerCount: 2
Fore
SplineSet
216 1200 m 0
 216 1275 240 1329 288 1364 c 0
 336 1399 392 1419 456 1424 c 1
 456 1464 l 2
 456 1485 449 1507 436 1528 c 0
 423 1549 403 1560 376 1560 c 0
 349 1560 329 1551 316 1532 c 0
 303 1513 296 1491 296 1464 c 1
 232 1464 l 1
 232 1512 243 1551 264 1580 c 0
 285 1609 312 1624 344 1624 c 2
 400 1624 l 2
 437 1624 468 1607 492 1572 c 0
 516 1537 528 1491 528 1432 c 2
 528 1176 l 1
 544 1056 l 1
 472 1056 l 1
 464 1120 l 1
 448 1099 432 1083 416 1072 c 0
 400 1061 376 1056 344 1056 c 0
 301 1056 269 1069 248 1096 c 0
 227 1123 216 1157 216 1200 c 0
288 1208 m 0
 288 1181 293 1161 304 1148 c 0
 315 1135 328 1128 344 1128 c 0
 371 1128 392 1133 408 1144 c 0
 424 1155 440 1179 456 1216 c 1
 456 1352 l 1
 403 1347 361 1333 332 1312 c 0
 303 1291 288 1256 288 1208 c 0
EndSplineSet
Validated: 1
EndChar

StartChar: guillemotleft
Encoding: 171 171 108
Width: 1368
GlyphClass: 2
Flags: W
LayerCount: 2
Fore
SplineSet
901.4296875 1101.30078125 m 1
 868.51953125 1131.79101562 l 1
 158.901367188 629.2578125 l 1
 116.067382812 598.923828125 l 1
 158.7109375 568.4140625 l 1
 866.885742188 61.73828125 l 1
 899.986328125 92.0927734375 l 1
 933.086914062 122.446289062 l 1
 267.555664062 598.612304688 l 1
 934.33984375 1070.81054688 l 1
 901.4296875 1101.30078125 l 1
884.310546875 1111.75585938 m 1
 850.109375 1141.29882812 l 1
 174.729492188 628.310546875 l 1
 136.03125 598.91796875 l 1
 174.543945312 569.366210938 l 1
 848.48046875 52.2353515625 l 1
 882.8671875 81.6376953125 l 1
 917.25390625 111.0390625 l 1
 281.830078125 598.618164062 l 1
 918.51171875 1082.21289062 l 1
 884.310546875 1111.75585938 l 1
1221.4296875 1101.30078125 m 1
 1188.51953125 1131.79101562 l 1
 478.901367188 629.2578125 l 1
 436.067382812 598.923828125 l 1
 478.7109375 568.4140625 l 1
 1186.88574219 61.73828125 l 1
 1219.98632812 92.0927734375 l 1
 1253.08691406 122.446289062 l 1
 587.555664062 598.612304688 l 1
 1254.33984375 1070.81054688 l 1
 1221.4296875 1101.30078125 l 1
1204.31054688 1111.75585938 m 1
 1170.109375 1141.29882812 l 1
 494.729492188 628.310546875 l 1
 456.03125 598.91796875 l 1
 494.543945312 569.366210938 l 1
 1168.48046875 52.2353515625 l 1
 1202.8671875 81.6376953125 l 1
 1237.25390625 111.0390625 l 1
 601.830078125 598.618164062 l 1
 1238.51171875 1082.21289062 l 1
 1204.31054688 1111.75585938 l 1
EndSplineSet
Validated: 5
EndChar

StartChar: logicalnot
Encoding: 172 172 109
Width: 1312
GlyphClass: 2
Flags: W
LayerCount: 2
Fore
SplineSet
112 896 m 1
 112 1024 l 1
 1152 1024 l 1
 1152 520 l 1
 1000 520 l 1
 1000 896 l 1
 112 896 l 1
EndSplineSet
Validated: 1
EndChar

StartChar: uni00AD
Encoding: 173 173 110
Width: 1032
GlyphClass: 2
Flags: W
LayerCount: 2
Fore
SplineSet
64 672 m 1
 64 808 l 1
 960 808 l 1
 960 672 l 1
 64 672 l 1
EndSplineSet
Validated: 1
EndChar

StartChar: registered
Encoding: 174 174 111
Width: 1368
GlyphClass: 2
Flags: W
LayerCount: 2
Fore
SplineSet
120 736 m 0
 120 928 177 1081 292 1196 c 0
 407 1311 536 1368 680 1368 c 0
 845 1368 980 1311 1084 1196 c 0
 1188 1081 1240 928 1240 736 c 0
 1240 560 1188 411 1084 288 c 0
 980 165 845 104 680 104 c 0
 515 104 380 165 276 288 c 0
 172 411 120 560 120 736 c 0
208 736 m 1
 213 576 260 447 348 348 c 0
 436 249 547 200 680 200 c 0
 813 200 927 251 1020 352 c 0
 1113 453 1160 581 1160 736 c 0
 1160 891 1113 1019 1020 1120 c 0
 927 1221 813 1272 680 1272 c 0
 547 1272 435 1220 344 1116 c 0
 253 1012 208 885 208 736 c 1
480 376 m 1
 480 1104 l 1
 728 1104 l 2
 792 1104 841 1085 876 1048 c 0
 911 1011 928 968 928 920 c 0
 928 872 916 831 892 796 c 0
 868 761 824 741 760 736 c 1
 960 376 l 1
 864 376 l 1
 680 736 l 1
 552 736 l 1
 552 376 l 1
 480 376 l 1
552 800 m 1
 728 800 l 2
 760 800 787 809 808 828 c 0
 829 847 840 877 840 920 c 0
 840 957 829 985 808 1004 c 0
 787 1023 760 1032 728 1032 c 2
 552 1032 l 1
 552 800 l 1
EndSplineSet
Validated: 1
EndChar

StartChar: macron
Encoding: 175 175 112
Width: 1368
GlyphClass: 2
Flags: W
LayerCount: 2
Fore
SplineSet
0 1624 m 1
 0 1760 l 1
 1368 1760 l 1
 1368 1624 l 1
 0 1624 l 1
EndSplineSet
Validated: 1
EndChar

StartChar: degree
Encoding: 176 176 113
Width: 2048
GlyphClass: 2
Flags: W
LayerCount: 2
Fore
SplineSet
112 1304 m 0
 112 1411 143 1496 204 1560 c 0
 265 1624 349 1656 456 1656 c 0
 547 1656 627 1624 696 1560 c 0
 765 1496 800 1411 800 1304 c 0
 800 1192 767 1105 700 1044 c 0
 633 983 552 952 456 952 c 0
 360 952 279 983 212 1044 c 0
 145 1105 112 1192 112 1304 c 0
256 1304 m 0
 256 1240 275 1191 312 1156 c 0
 349 1121 397 1104 456 1104 c 0
 509 1104 555 1121 592 1156 c 0
 629 1191 648 1240 648 1304 c 0
 648 1357 631 1405 596 1448 c 0
 561 1491 515 1512 456 1512 c 0
 392 1512 343 1493 308 1456 c 0
 273 1419 256 1368 256 1304 c 0
EndSplineSet
Validated: 1
EndChar

StartChar: plusminus
Encoding: 177 177 114
Width: 2048
GlyphClass: 2
Flags: W
LayerCount: 2
Fore
SplineSet
320 -8 m 1
 1728 -8 l 1
 1728 -152 l 1
 320 -152 l 1
 320 -8 l 1
320 864 m 1
 320 1024 l 1
 952 1024 l 1
 952 1624 l 1
 1096 1624 l 1
 1096 1024 l 1
 1728 1024 l 1
 1728 864 l 1
 1096 864 l 1
 1096 256 l 1
 952 256 l 1
 952 864 l 1
 320 864 l 1
EndSplineSet
Validated: 1
EndChar

StartChar: uni00B2
Encoding: 178 178 115
Width: 488
GlyphClass: 2
Flags: W
LayerCount: 2
Fore
SplineSet
32 1032 m 1
 32 1120 l 1
 152 1344 l 2
 189 1408 208 1469 208 1528 c 0
 208 1571 201 1599 188 1612 c 0
 175 1625 157 1632 136 1632 c 0
 120 1632 105 1625 92 1612 c 0
 79 1599 72 1568 72 1520 c 1
 32 1520 l 1
 32 1579 43 1625 64 1660 c 0
 85 1695 109 1712 136 1712 c 0
 168 1712 195 1696 216 1664 c 0
 237 1632 248 1587 248 1528 c 0
 248 1459 232 1389 200 1320 c 1
 88 1112 l 1
 248 1112 l 1
 248 1032 l 1
 32 1032 l 1
EndSplineSet
Validated: 1
EndChar

StartChar: uni00B3
Encoding: 179 179 116
Width: 488
GlyphClass: 2
Flags: W
LayerCount: 2
Fore
SplineSet
32 1032 m 1
 32 1104 l 1
 120 1104 l 2
 168 1104 192 1149 192 1240 c 0
 192 1341 168 1392 120 1392 c 2
 64 1392 l 1
 64 1448 l 1
 176 1640 l 1
 32 1640 l 1
 32 1712 l 1
 248 1712 l 1
 248 1640 l 1
 144 1456 l 1
 213 1456 248 1384 248 1240 c 0
 248 1101 205 1032 120 1032 c 2
 32 1032 l 1
EndSplineSet
Validated: 1
EndChar

StartChar: acute
Encoding: 180 180 117
Width: 760
GlyphClass: 2
Flags: HW
LayerCount: 2
Fore
SplineSet
244.1484375 1132.41601562 m 5
 281.296875 1105.30859375 l 5
 592.396484375 1385.03222656 l 5
 555.248046875 1412.13964844 l 5
 518.099609375 1439.24707031 l 5
 207 1159.5234375 l 5
 244.1484375 1132.41601562 l 5
227.029296875 1146.28222656 m 5
 260.495117188 1116.19140625 l 5
 605.833007812 1368.18261719 l 5
 572.3671875 1398.2734375 l 5
 538.901367188 1428.36425781 l 5
 193.563476562 1176.37304688 l 5
 227.029296875 1146.28222656 l 5
EndSplineSet
EndChar

StartChar: mu
Encoding: 181 181 118
Width: 1032
GlyphClass: 2
Flags: W
LayerCount: 2
Fore
SplineSet
152 -288 m 1
 152 960 l 1
 344 960 l 1
 344 272 l 1
 387 187 435 144 488 144 c 0
 557 144 624 192 688 288 c 1
 688 960 l 1
 872 960 l 1
 872 0 l 1
 688 0 l 1
 688 104 l 1
 624 35 557 0 488 0 c 0
 424 0 376 29 344 88 c 1
 344 -288 l 1
 152 -288 l 1
EndSplineSet
Validated: 1
EndChar

StartChar: paragraph
Encoding: 182 182 119
Width: 1024
GlyphClass: 2
Flags: W
LayerCount: 2
Fore
SplineSet
40 1296 m 0
 40 1392 56 1471 88 1532 c 0
 120 1593 163 1624 216 1624 c 2
 488 1624 l 1
 488 1496 l 1
 464 1496 l 1
 464 -152 l 1
 384 -152 l 1
 384 1496 l 1
 288 1496 l 1
 288 -152 l 1
 208 -152 l 1
 208 960 l 1
 160 955 120 984 88 1048 c 0
 56 1112 40 1195 40 1296 c 0
EndSplineSet
Validated: 33
EndChar

StartChar: periodcentered
Encoding: 183 183 120
Width: 416
GlyphClass: 2
Flags: W
LayerCount: 2
Fore
SplineSet
160 640 m 1
 160 888 l 1
 256 888 l 1
 256 640 l 1
 160 640 l 1
EndSplineSet
Validated: 1
EndChar

StartChar: cedilla
Encoding: 184 184 121
Width: 416
GlyphClass: 2
Flags: W
LayerCount: 2
Fore
SplineSet
128 144 m 0
 128 187 135 227 148 264 c 0
 161 301 179 320 200 320 c 0
 221 320 239 303 252 268 c 0
 265 233 272 192 272 144 c 0
 277 16 268 -84 244 -156 c 0
 220 -228 184 -272 136 -288 c 1
 128 -200 l 1
 155 -195 173 -181 184 -160 c 0
 195 -139 203 -112 208 -80 c 0
 213 -48 211 -32 200 -32 c 0
 179 -32 161 -16 148 16 c 0
 135 48 128 91 128 144 c 0
EndSplineSet
Validated: 33
EndChar

StartChar: uni00B9
Encoding: 185 185 122
Width: 488
GlyphClass: 2
Flags: W
LayerCount: 2
Fore
SplineSet
32 1520 m 1
 32 1616 l 1
 75 1616 101 1648 112 1712 c 1
 160 1712 l 1
 160 1032 l 1
 88 1032 l 1
 88 1520 l 1
 32 1520 l 1
EndSplineSet
Validated: 1
EndChar

StartChar: ordmasculine
Encoding: 186 186 123
Width: 488
GlyphClass: 2
Flags: W
LayerCount: 2
Fore
SplineSet
94.9765625 1078.21191406 m 0
 54.8779296875 1199.43164062 -54.28125 1318.25097656 -185.524414062 1289.765625 c 0
 -316.767578125 1261.28027344 -337.95703125 1114.17382812 -297.85546875 992.952148438 c 0
 -257.756835938 871.734375 -148.59765625 752.9140625 -17.35546875 781.399414062 c 0
 113.88671875 809.883789062 135.077148438 956.991210938 94.9765625 1078.21191406 c 0
-1.615234375 1057.24804688 m 0
 36.8662109375 940.916015625 -10.87109375 866.6640625 -43.23828125 859.639648438 c 0
 -75.603515625 852.615234375 -162.780273438 897.583007812 -201.263671875 1013.91699219 c 0
 -239.74609375 1130.24804688 -192.0078125 1204.50097656 -159.641601562 1211.52539062 c 0
 -127.275390625 1218.55078125 -40.0986328125 1173.58203125 -1.615234375 1057.24804688 c 0
74.080078125 1073.67773438 m 0
 40.2021484375 1176.09179688 -57 1307.125 -182.272460938 1279.93652344 c 0
 -307.536132812 1252.74902344 -310.845703125 1099.92578125 -276.958984375 997.487304688 c 0
 -242.984375 894.78125 -145.985351562 765.694335938 -21.1240234375 792.793945312 c 0
 103.732421875 819.891601562 108.060546875 970.955078125 74.080078125 1073.67773438 c 0
-22.51171875 1052.71289062 m 0
 12.208984375 947.750976562 -31.3359375 874.435546875 -47.0068359375 871.034179688 c 0
 -62.6728515625 867.633789062 -145.640625 913.477539062 -180.3671875 1018.45214844 c 0
 -215.181640625 1123.69433594 -171.653320312 1198.38378906 -156.389648438 1201.69628906 c 0
 -141.134765625 1205.0078125 -57.3349609375 1157.98046875 -22.51171875 1052.71289062 c 0
EndSplineSet
Validated: 41
EndChar

